STARTFONT 2.2
FONT -FontForge-SimSun-Book-R-Normal--17-120-100-100-P-169-ISO10646-1
SIZE 12 100 100
FONTBOUNDINGBOX 17 17 0 -2
METRICSSET 2
SWIDTH 3906 0
DWIDTH 17 0
SWIDTH1 3906 0
DWIDTH1 17 0
VVECTOR 8,14
COMMENT "Generated by fontforge, http://fontforge.sourceforge.net"
COMMENT "© Copyright ZHONGYI Electronic Co. 2001"
STARTPROPERTIES 38
FOUNDRY "FontForge"
FAMILY_NAME "SimSun"
WEIGHT_NAME "Book"
SLANT "R"
SETWIDTH_NAME "Normal"
ADD_STYLE_NAME ""
PIXEL_SIZE 17
POINT_SIZE 120
RESOLUTION_X 100
RESOLUTION_Y 100
SPACING "P"
AVERAGE_WIDTH 169
CHARSET_REGISTRY "ISO10646"
CHARSET_ENCODING "1"
FONTNAME_REGISTRY ""
CHARSET_COLLECTIONS "ASCII ISOLatin1Encoding ISO8859-5 JISX0208.1997 GB2312.1980 BIG5 ISO10646-1"
FONT_NAME "SimSun"
FACE_NAME "SimSun"
FONT_VERSION "5.00"
FONT_ASCENT 14
FONT_DESCENT 3
UNDERLINE_POSITION -1
UNDERLINE_THICKNESS 1
X_HEIGHT 7
CAP_HEIGHT 11
RAW_ASCENT 859
RAW_DESCENT 140
RELATIVE_WEIGHT 40
RELATIVE_SETWIDTH 50
SUPERSCRIPT_X 0
SUPERSCRIPT_Y 8
SUPERSCRIPT_SIZE 8
SUBSCRIPT_X 0
SUBSCRIPT_Y 1
SUBSCRIPT_SIZE 8
FIGURE_WIDTH 8
AVG_LOWERCASE_WIDTH 125
AVG_UPPERCASE_WIDTH 132
ENDPROPERTIES
CHARS 22038
STARTCHAR exclam
ENCODING 33
SWIDTH 500 0
DWIDTH 8 0
SWIDTH1 1000 0
BBX 1 12 3 0
BITMAP
80
80
80
80
80
80
80
80
00
00
80
80
ENDCHAR
STARTCHAR quotedbl
ENCODING 34
SWIDTH 500 0
DWIDTH 8 0
SWIDTH1 1000 0
BBX 4 4 2 8
BITMAP
90
90
90
90
ENDCHAR
STARTCHAR numbersign
ENCODING 35
SWIDTH 500 0
DWIDTH 8 0
SWIDTH1 1000 0
BBX 8 12 0 0
BITMAP
12
12
12
7F
24
24
24
24
FE
48
48
48
ENDCHAR
STARTCHAR dollar
ENCODING 36
SWIDTH 500 0
DWIDTH 8 0
SWIDTH1 1000 0
BBX 7 15 0 -1
BITMAP
10
10
38
54
92
90
50
30
18
14
12
92
54
38
10
ENDCHAR
STARTCHAR percent
ENCODING 37
SWIDTH 500 0
DWIDTH 8 0
SWIDTH1 1000 0
BBX 8 11 0 0
BITMAP
62
94
94
98
98
76
19
29
29
49
46
ENDCHAR
STARTCHAR ampersand
ENCODING 38
SWIDTH 500 0
DWIDTH 8 0
SWIDTH1 1000 0
BBX 7 12 0 0
BITMAP
30
48
48
48
30
32
4A
8A
84
84
8A
72
ENDCHAR
STARTCHAR quotesingle
ENCODING 39
SWIDTH 500 0
DWIDTH 8 0
SWIDTH1 1000 0
BBX 1 4 3 8
BITMAP
80
80
80
80
ENDCHAR
STARTCHAR parenleft
ENCODING 40
SWIDTH 500 0
DWIDTH 8 0
SWIDTH1 1000 0
BBX 4 14 2 -1
BITMAP
10
20
40
40
80
80
80
80
80
80
40
40
20
10
ENDCHAR
STARTCHAR parenright
ENCODING 41
SWIDTH 500 0
DWIDTH 8 0
SWIDTH1 1000 0
BBX 4 14 2 -1
BITMAP
80
40
20
20
10
10
10
10
10
10
20
20
40
80
ENDCHAR
STARTCHAR asterisk
ENCODING 42
SWIDTH 500 0
DWIDTH 8 0
SWIDTH1 1000 0
BBX 5 5 2 4
BITMAP
20
A8
70
50
88
ENDCHAR
STARTCHAR plus
ENCODING 43
SWIDTH 500 0
DWIDTH 8 0
SWIDTH1 1000 0
BBX 7 7 0 3
BITMAP
10
10
10
FE
10
10
10
ENDCHAR
STARTCHAR comma
ENCODING 44
SWIDTH 500 0
DWIDTH 8 0
SWIDTH1 1000 0
BBX 3 4 0 -2
BITMAP
60
60
20
C0
ENDCHAR
STARTCHAR hyphen
ENCODING 45
SWIDTH 500 0
DWIDTH 8 0
SWIDTH1 1000 0
BBX 7 1 0 6
BITMAP
FE
ENDCHAR
STARTCHAR period
ENCODING 46
SWIDTH 500 0
DWIDTH 8 0
SWIDTH1 1000 0
BBX 2 2 3 0
BITMAP
C0
C0
ENDCHAR
STARTCHAR slash
ENCODING 47
SWIDTH 500 0
DWIDTH 8 0
SWIDTH1 1000 0
BBX 6 12 0 1
BITMAP
04
04
08
08
10
10
20
20
40
40
80
80
ENDCHAR
STARTCHAR zero
ENCODING 48
SWIDTH 500 0
DWIDTH 8 0
SWIDTH1 1000 0
BBX 7 12 0 0
BITMAP
38
44
82
82
82
82
82
82
82
82
44
38
ENDCHAR
STARTCHAR one
ENCODING 49
SWIDTH 500 0
DWIDTH 8 0
SWIDTH1 1000 0
BBX 3 12 1 0
BITMAP
20
E0
20
20
20
20
20
20
20
20
20
20
ENDCHAR
STARTCHAR two
ENCODING 50
SWIDTH 500 0
DWIDTH 8 0
SWIDTH1 1000 0
BBX 6 12 1 0
BITMAP
78
84
84
04
04
08
10
20
40
80
80
FC
ENDCHAR
STARTCHAR three
ENCODING 51
SWIDTH 500 0
DWIDTH 8 0
SWIDTH1 1000 0
BBX 6 12 1 0
BITMAP
78
84
84
04
04
78
04
04
04
84
84
78
ENDCHAR
STARTCHAR four
ENCODING 52
SWIDTH 500 0
DWIDTH 8 0
SWIDTH1 1000 0
BBX 7 12 0 0
BITMAP
0C
0C
14
14
24
24
44
44
FE
04
04
04
ENDCHAR
STARTCHAR five
ENCODING 53
SWIDTH 500 0
DWIDTH 8 0
SWIDTH1 1000 0
BBX 6 12 1 0
BITMAP
FC
80
80
80
F8
84
04
04
04
84
84
78
ENDCHAR
STARTCHAR six
ENCODING 54
SWIDTH 500 0
DWIDTH 8 0
SWIDTH1 1000 0
BBX 6 12 1 0
BITMAP
78
84
84
80
80
F8
84
84
84
84
84
78
ENDCHAR
STARTCHAR seven
ENCODING 55
SWIDTH 500 0
DWIDTH 8 0
SWIDTH1 1000 0
BBX 6 12 1 0
BITMAP
FC
04
08
08
10
10
10
20
20
20
20
20
ENDCHAR
STARTCHAR eight
ENCODING 56
SWIDTH 500 0
DWIDTH 8 0
SWIDTH1 1000 0
BBX 6 12 1 0
BITMAP
78
84
84
84
84
78
84
84
84
84
84
78
ENDCHAR
STARTCHAR nine
ENCODING 57
SWIDTH 500 0
DWIDTH 8 0
SWIDTH1 1000 0
BBX 6 12 1 0
BITMAP
78
84
84
84
84
84
7C
04
04
84
84
78
ENDCHAR
STARTCHAR colon
ENCODING 58
SWIDTH 500 0
DWIDTH 8 0
SWIDTH1 1000 0
BBX 2 8 3 2
BITMAP
C0
C0
00
00
00
00
C0
C0
ENDCHAR
STARTCHAR semicolon
ENCODING 59
SWIDTH 500 0
DWIDTH 8 0
SWIDTH1 1000 0
BBX 2 10 2 0
BITMAP
40
40
00
00
00
00
40
40
40
80
ENDCHAR
STARTCHAR less
ENCODING 60
SWIDTH 500 0
DWIDTH 8 0
SWIDTH1 1000 0
BBX 6 7 1 2
BITMAP
04
18
60
80
60
18
04
ENDCHAR
STARTCHAR equal
ENCODING 61
SWIDTH 500 0
DWIDTH 8 0
SWIDTH1 1000 0
BBX 7 4 0 3
BITMAP
FE
00
00
FE
ENDCHAR
STARTCHAR greater
ENCODING 62
SWIDTH 500 0
DWIDTH 8 0
SWIDTH1 1000 0
BBX 6 7 1 2
BITMAP
80
60
18
04
18
60
80
ENDCHAR
STARTCHAR question
ENCODING 63
SWIDTH 500 0
DWIDTH 8 0
SWIDTH1 1000 0
BBX 7 12 0 0
BITMAP
38
44
82
82
04
08
10
10
10
00
10
10
ENDCHAR
STARTCHAR at
ENCODING 64
SWIDTH 500 0
DWIDTH 8 0
SWIDTH1 1000 0
BBX 7 12 0 0
BITMAP
38
44
82
9A
AA
AA
AA
AA
96
80
44
38
ENDCHAR
STARTCHAR A
ENCODING 65
SWIDTH 500 0
DWIDTH 8 0
SWIDTH1 1000 0
BBX 7 12 0 0
BITMAP
10
10
10
28
28
28
44
44
7C
82
82
82
ENDCHAR
STARTCHAR B
ENCODING 66
SWIDTH 500 0
DWIDTH 8 0
SWIDTH1 1000 0
BBX 7 12 0 0
BITMAP
F8
84
82
82
84
F8
84
82
82
82
84
F8
ENDCHAR
STARTCHAR C
ENCODING 67
SWIDTH 500 0
DWIDTH 8 0
SWIDTH1 1000 0
BBX 7 12 0 0
BITMAP
38
44
82
82
80
80
80
80
82
82
44
38
ENDCHAR
STARTCHAR D
ENCODING 68
SWIDTH 500 0
DWIDTH 8 0
SWIDTH1 1000 0
BBX 7 12 0 0
BITMAP
F8
84
84
82
82
82
82
82
82
84
84
F8
ENDCHAR
STARTCHAR E
ENCODING 69
SWIDTH 500 0
DWIDTH 8 0
SWIDTH1 1000 0
BBX 7 12 0 0
BITMAP
FE
80
80
80
80
FC
80
80
80
80
80
FE
ENDCHAR
STARTCHAR F
ENCODING 70
SWIDTH 500 0
DWIDTH 8 0
SWIDTH1 1000 0
BBX 7 12 0 0
BITMAP
FE
80
80
80
80
FC
80
80
80
80
80
80
ENDCHAR
STARTCHAR G
ENCODING 71
SWIDTH 500 0
DWIDTH 8 0
SWIDTH1 1000 0
BBX 7 12 0 0
BITMAP
38
44
82
80
80
80
8E
82
82
82
46
3A
ENDCHAR
STARTCHAR H
ENCODING 72
SWIDTH 500 0
DWIDTH 8 0
SWIDTH1 1000 0
BBX 7 12 0 0
BITMAP
82
82
82
82
82
FE
82
82
82
82
82
82
ENDCHAR
STARTCHAR I
ENCODING 73
SWIDTH 500 0
DWIDTH 8 0
SWIDTH1 1000 0
BBX 5 12 1 0
BITMAP
F8
20
20
20
20
20
20
20
20
20
20
F8
ENDCHAR
STARTCHAR J
ENCODING 74
SWIDTH 500 0
DWIDTH 8 0
SWIDTH1 1000 0
BBX 5 12 0 0
BITMAP
08
08
08
08
08
08
08
08
08
88
88
70
ENDCHAR
STARTCHAR K
ENCODING 75
SWIDTH 500 0
DWIDTH 8 0
SWIDTH1 1000 0
BBX 7 12 0 0
BITMAP
82
84
88
90
A0
C0
C0
A0
90
88
84
82
ENDCHAR
STARTCHAR L
ENCODING 76
SWIDTH 500 0
DWIDTH 8 0
SWIDTH1 1000 0
BBX 6 12 1 0
BITMAP
80
80
80
80
80
80
80
80
80
80
80
FC
ENDCHAR
STARTCHAR M
ENCODING 77
SWIDTH 500 0
DWIDTH 8 0
SWIDTH1 1000 0
BBX 7 12 0 0
BITMAP
82
82
C6
C6
AA
AA
92
92
92
82
82
82
ENDCHAR
STARTCHAR N
ENCODING 78
SWIDTH 500 0
DWIDTH 8 0
SWIDTH1 1000 0
BBX 7 12 0 0
BITMAP
82
C2
C2
A2
A2
92
92
8A
8A
86
86
82
ENDCHAR
STARTCHAR O
ENCODING 79
SWIDTH 500 0
DWIDTH 8 0
SWIDTH1 1000 0
BBX 7 12 0 0
BITMAP
38
44
82
82
82
82
82
82
82
82
44
38
ENDCHAR
STARTCHAR P
ENCODING 80
SWIDTH 500 0
DWIDTH 8 0
SWIDTH1 1000 0
BBX 7 12 0 0
BITMAP
F8
84
82
82
82
84
F8
80
80
80
80
80
ENDCHAR
STARTCHAR Q
ENCODING 81
SWIDTH 500 0
DWIDTH 8 0
SWIDTH1 1000 0
BBX 7 13 0 -1
BITMAP
38
44
82
82
82
82
82
82
92
8A
44
3C
02
ENDCHAR
STARTCHAR R
ENCODING 82
SWIDTH 500 0
DWIDTH 8 0
SWIDTH1 1000 0
BBX 7 12 0 0
BITMAP
F8
84
82
82
82
84
F8
84
82
82
82
82
ENDCHAR
STARTCHAR S
ENCODING 83
SWIDTH 500 0
DWIDTH 8 0
SWIDTH1 1000 0
BBX 7 12 0 0
BITMAP
38
44
82
80
60
18
04
02
02
82
44
38
ENDCHAR
STARTCHAR T
ENCODING 84
SWIDTH 500 0
DWIDTH 8 0
SWIDTH1 1000 0
BBX 7 12 0 0
BITMAP
FE
10
10
10
10
10
10
10
10
10
10
10
ENDCHAR
STARTCHAR U
ENCODING 85
SWIDTH 500 0
DWIDTH 8 0
SWIDTH1 1000 0
BBX 7 12 0 0
BITMAP
82
82
82
82
82
82
82
82
82
82
82
7C
ENDCHAR
STARTCHAR V
ENCODING 86
SWIDTH 500 0
DWIDTH 8 0
SWIDTH1 1000 0
BBX 7 12 0 0
BITMAP
82
82
82
44
44
44
28
28
28
10
10
10
ENDCHAR
STARTCHAR W
ENCODING 87
SWIDTH 500 0
DWIDTH 8 0
SWIDTH1 1000 0
BBX 7 12 0 0
BITMAP
92
92
92
92
AA
AA
AA
AA
44
44
44
44
ENDCHAR
STARTCHAR X
ENCODING 88
SWIDTH 500 0
DWIDTH 8 0
SWIDTH1 1000 0
BBX 7 12 0 0
BITMAP
82
82
44
44
28
10
28
28
44
44
82
82
ENDCHAR
STARTCHAR Y
ENCODING 89
SWIDTH 500 0
DWIDTH 8 0
SWIDTH1 1000 0
BBX 7 12 0 0
BITMAP
82
82
44
44
28
28
10
10
10
10
10
10
ENDCHAR
STARTCHAR Z
ENCODING 90
SWIDTH 500 0
DWIDTH 8 0
SWIDTH1 1000 0
BBX 6 12 1 0
BITMAP
FC
04
08
08
10
10
20
20
40
40
80
FC
ENDCHAR
STARTCHAR bracketleft
ENCODING 91
SWIDTH 500 0
DWIDTH 8 0
SWIDTH1 1000 0
BBX 4 14 3 -1
BITMAP
F0
80
80
80
80
80
80
80
80
80
80
80
80
F0
ENDCHAR
STARTCHAR backslash
ENCODING 92
SWIDTH 500 0
DWIDTH 8 0
SWIDTH1 1000 0
BBX 6 12 1 1
BITMAP
80
80
40
40
20
20
10
10
08
08
04
04
ENDCHAR
STARTCHAR bracketright
ENCODING 93
SWIDTH 500 0
DWIDTH 8 0
SWIDTH1 1000 0
BBX 4 14 1 -1
BITMAP
F0
10
10
10
10
10
10
10
10
10
10
10
10
F0
ENDCHAR
STARTCHAR asciicircum
ENCODING 94
SWIDTH 500 0
DWIDTH 8 0
SWIDTH1 1000 0
BBX 5 3 1 10
BITMAP
20
50
88
ENDCHAR
STARTCHAR underscore
ENCODING 95
SWIDTH 500 0
DWIDTH 8 0
SWIDTH1 1000 0
BBX 8 1 0 -2
BITMAP
FF
ENDCHAR
STARTCHAR grave
ENCODING 96
SWIDTH 500 0
DWIDTH 8 0
SWIDTH1 1000 0
BBX 3 3 1 10
BITMAP
80
40
20
ENDCHAR
STARTCHAR a
ENCODING 97
SWIDTH 500 0
DWIDTH 8 0
SWIDTH1 1000 0
BBX 7 8 1 0
BITMAP
78
84
04
7C
84
84
84
7A
ENDCHAR
STARTCHAR b
ENCODING 98
SWIDTH 500 0
DWIDTH 8 0
SWIDTH1 1000 0
BBX 7 12 0 0
BITMAP
80
80
80
80
B8
C4
82
82
82
82
C4
B8
ENDCHAR
STARTCHAR c
ENCODING 99
SWIDTH 500 0
DWIDTH 8 0
SWIDTH1 1000 0
BBX 7 8 0 0
BITMAP
3C
42
80
80
80
80
42
3C
ENDCHAR
STARTCHAR d
ENCODING 100
SWIDTH 500 0
DWIDTH 8 0
SWIDTH1 1000 0
BBX 7 12 0 0
BITMAP
02
02
02
02
3A
46
82
82
82
82
46
3A
ENDCHAR
STARTCHAR e
ENCODING 101
SWIDTH 500 0
DWIDTH 8 0
SWIDTH1 1000 0
BBX 7 8 0 0
BITMAP
38
44
82
FE
80
80
42
3C
ENDCHAR
STARTCHAR f
ENCODING 102
SWIDTH 500 0
DWIDTH 8 0
SWIDTH1 1000 0
BBX 6 12 1 0
BITMAP
1C
20
20
20
FC
20
20
20
20
20
20
20
ENDCHAR
STARTCHAR g
ENCODING 103
SWIDTH 500 0
DWIDTH 8 0
SWIDTH1 1000 0
BBX 6 9 1 -1
BITMAP
7C
84
84
84
84
7C
04
84
78
ENDCHAR
STARTCHAR h
ENCODING 104
SWIDTH 500 0
DWIDTH 8 0
SWIDTH1 1000 0
BBX 6 12 1 0
BITMAP
80
80
80
80
B8
C4
84
84
84
84
84
84
ENDCHAR
STARTCHAR i
ENCODING 105
SWIDTH 500 0
DWIDTH 8 0
SWIDTH1 1000 0
BBX 5 12 1 0
BITMAP
20
20
00
00
E0
20
20
20
20
20
20
F8
ENDCHAR
STARTCHAR j
ENCODING 106
SWIDTH 500 0
DWIDTH 8 0
SWIDTH1 1000 0
BBX 4 13 1 -1
BITMAP
10
10
00
00
70
10
10
10
10
10
10
10
E0
ENDCHAR
STARTCHAR k
ENCODING 107
SWIDTH 500 0
DWIDTH 8 0
SWIDTH1 1000 0
BBX 6 12 1 0
BITMAP
80
80
80
84
88
90
A0
C0
A0
90
88
84
ENDCHAR
STARTCHAR l
ENCODING 108
SWIDTH 500 0
DWIDTH 8 0
SWIDTH1 1000 0
BBX 5 12 1 0
BITMAP
E0
20
20
20
20
20
20
20
20
20
20
F8
ENDCHAR
STARTCHAR m
ENCODING 109
SWIDTH 500 0
DWIDTH 8 0
SWIDTH1 1000 0
BBX 7 8 0 0
BITMAP
EC
92
92
92
92
92
92
92
ENDCHAR
STARTCHAR n
ENCODING 110
SWIDTH 500 0
DWIDTH 8 0
SWIDTH1 1000 0
BBX 6 8 1 0
BITMAP
B8
C4
84
84
84
84
84
84
ENDCHAR
STARTCHAR o
ENCODING 111
SWIDTH 500 0
DWIDTH 8 0
SWIDTH1 1000 0
BBX 7 8 0 0
BITMAP
38
44
82
82
82
82
44
38
ENDCHAR
STARTCHAR p
ENCODING 112
SWIDTH 500 0
DWIDTH 8 0
SWIDTH1 1000 0
BBX 7 10 0 -2
BITMAP
B8
C4
82
82
82
C4
B8
80
80
80
ENDCHAR
STARTCHAR q
ENCODING 113
SWIDTH 500 0
DWIDTH 8 0
SWIDTH1 1000 0
BBX 7 10 0 -2
BITMAP
3A
46
82
82
82
46
3A
02
02
02
ENDCHAR
STARTCHAR r
ENCODING 114
SWIDTH 500 0
DWIDTH 8 0
SWIDTH1 1000 0
BBX 6 8 1 0
BITMAP
9C
A0
C0
80
80
80
80
80
ENDCHAR
STARTCHAR s
ENCODING 115
SWIDTH 500 0
DWIDTH 8 0
SWIDTH1 1000 0
BBX 6 8 0 0
BITMAP
78
84
80
60
18
04
84
78
ENDCHAR
STARTCHAR t
ENCODING 116
SWIDTH 500 0
DWIDTH 8 0
SWIDTH1 1000 0
BBX 6 12 1 0
BITMAP
20
20
20
20
FC
20
20
20
20
20
20
1C
ENDCHAR
STARTCHAR u
ENCODING 117
SWIDTH 500 0
DWIDTH 8 0
SWIDTH1 1000 0
BBX 6 8 1 0
BITMAP
84
84
84
84
84
84
84
7C
ENDCHAR
STARTCHAR v
ENCODING 118
SWIDTH 500 0
DWIDTH 8 0
SWIDTH1 1000 0
BBX 7 8 0 0
BITMAP
82
82
44
44
28
28
10
10
ENDCHAR
STARTCHAR w
ENCODING 119
SWIDTH 500 0
DWIDTH 8 0
SWIDTH1 1000 0
BBX 7 8 0 0
BITMAP
82
92
92
92
AA
6C
44
44
ENDCHAR
STARTCHAR x
ENCODING 120
SWIDTH 500 0
DWIDTH 8 0
SWIDTH1 1000 0
BBX 7 8 0 0
BITMAP
82
44
28
10
10
28
44
82
ENDCHAR
STARTCHAR y
ENCODING 121
SWIDTH 500 0
DWIDTH 8 0
SWIDTH1 1000 0
BBX 7 9 0 -1
BITMAP
82
82
44
44
28
28
10
10
E0
ENDCHAR
STARTCHAR z
ENCODING 122
SWIDTH 500 0
DWIDTH 8 0
SWIDTH1 1000 0
BBX 6 8 1 0
BITMAP
FC
04
08
10
20
40
80
FC
ENDCHAR
STARTCHAR braceleft
ENCODING 123
SWIDTH 500 0
DWIDTH 8 0
SWIDTH1 1000 0
BBX 5 14 1 -1
BITMAP
18
20
20
20
20
20
C0
20
20
20
20
20
20
18
ENDCHAR
STARTCHAR bar
ENCODING 124
SWIDTH 500 0
DWIDTH 8 0
SWIDTH1 1000 0
BBX 1 17 4 -2
BITMAP
80
80
80
80
80
80
80
80
80
80
80
80
80
80
80
80
80
ENDCHAR
STARTCHAR braceright
ENCODING 125
SWIDTH 500 0
DWIDTH 8 0
SWIDTH1 1000 0
BBX 5 14 1 -1
BITMAP
C0
20
20
20
20
20
18
20
20
20
20
20
20
C0
ENDCHAR
STARTCHAR asciitilde
ENCODING 126
SWIDTH 500 0
DWIDTH 8 0
SWIDTH1 1000 0
BBX 8 4 1 10
BITMAP
60
D1
8B
06
ENDCHAR
STARTCHAR exclamdown
ENCODING 161
SWIDTH 500 0
DWIDTH 8 0
SWIDTH1 1000 0
BBX 1 13 4 0
BITMAP
80
80
00
80
80
80
80
80
80
80
80
80
80
ENDCHAR
STARTCHAR cent
ENCODING 162
SWIDTH 500 0
DWIDTH 8 0
SWIDTH1 1000 0
BBX 7 10 0 -1
BITMAP
02
3C
46
88
88
90
90
62
3C
40
ENDCHAR
STARTCHAR sterling
ENCODING 163
SWIDTH 500 0
DWIDTH 8 0
SWIDTH1 1000 0
BBX 7 13 0 0
BITMAP
18
24
24
20
20
F8
20
20
10
70
92
9A
64
ENDCHAR
STARTCHAR currency
ENCODING 164
SWIDTH 1000 0
SWIDTH1 1000 0
BBX 14 14 2 0
BITMAP
8004
4008
2FD0
1020
2010
2010
2010
2010
2010
2010
1020
2FD0
4008
8004
ENDCHAR
STARTCHAR yen
ENCODING 165
SWIDTH 500 0
DWIDTH 8 0
SWIDTH1 1000 0
BBX 7 13 0 0
BITMAP
82
82
44
44
28
28
7C
10
10
7C
10
10
10
ENDCHAR
STARTCHAR brokenbar
ENCODING 166
SWIDTH 500 0
DWIDTH 8 0
SWIDTH1 1000 0
BBX 1 15 3 -1
BITMAP
80
80
80
80
80
80
00
00
00
80
80
80
80
80
80
ENDCHAR
STARTCHAR section
ENCODING 167
SWIDTH 1000 0
SWIDTH1 1000 0
BBX 6 15 5 -1
BITMAP
78
84
84
40
30
48
84
84
84
48
30
08
84
84
78
ENDCHAR
STARTCHAR dieresis
ENCODING 168
SWIDTH 1000 0
SWIDTH1 1000 0
BBX 7 2 5 10
BITMAP
C6
C6
ENDCHAR
STARTCHAR copyright
ENCODING 169
SWIDTH 500 0
DWIDTH 8 0
SWIDTH1 1000 0
BBX 7 8 0 2
BITMAP
7C
82
9A
A2
A2
9A
82
7C
ENDCHAR
STARTCHAR ordfeminine
ENCODING 170
SWIDTH 500 0
DWIDTH 8 0
SWIDTH1 1000 0
BBX 5 5 2 8
BITMAP
60
90
70
90
68
ENDCHAR
STARTCHAR guillemotleft
ENCODING 171
SWIDTH 500 0
DWIDTH 8 0
SWIDTH1 1000 0
BBX 7 7 0 3
BITMAP
12
24
48
90
48
24
12
ENDCHAR
STARTCHAR logicalnot
ENCODING 172
SWIDTH 500 0
DWIDTH 8 0
SWIDTH1 1000 0
BBX 7 4 0 5
BITMAP
FE
02
02
02
ENDCHAR
STARTCHAR uni00AD
ENCODING 173
SWIDTH 500 0
DWIDTH 8 0
SWIDTH1 1000 0
BBX 5 1 1 6
BITMAP
F8
ENDCHAR
STARTCHAR registered
ENCODING 174
SWIDTH 500 0
DWIDTH 8 0
SWIDTH1 1000 0
BBX 7 8 0 2
BITMAP
7C
82
BA
A6
BA
AA
A6
7C
ENDCHAR
STARTCHAR macron
ENCODING 175
SWIDTH 500 0
DWIDTH 8 0
SWIDTH1 1000 0
BBX 6 1 1 12
BITMAP
FC
ENDCHAR
STARTCHAR degree
ENCODING 176
SWIDTH 1000 0
SWIDTH1 1000 0
BBX 4 4 2 10
BITMAP
60
90
90
60
ENDCHAR
STARTCHAR plusminus
ENCODING 177
SWIDTH 1000 0
SWIDTH1 1000 0
BBX 9 12 4 1
BITMAP
0800
0800
0800
0800
FF80
0800
0800
0800
0800
0000
0000
FF80
ENDCHAR
STARTCHAR uni00B2
ENCODING 178
SWIDTH 500 0
DWIDTH 8 0
SWIDTH1 1000 0
BBX 3 5 2 8
BITMAP
40
A0
20
40
E0
ENDCHAR
STARTCHAR uni00B3
ENCODING 179
SWIDTH 500 0
DWIDTH 8 0
SWIDTH1 1000 0
BBX 3 5 2 8
BITMAP
C0
20
40
20
C0
ENDCHAR
STARTCHAR acute
ENCODING 180
SWIDTH 500 0
DWIDTH 8 0
SWIDTH1 1000 0
BBX 3 2 3 12
BITMAP
60
80
ENDCHAR
STARTCHAR mu
ENCODING 181
SWIDTH 500 0
DWIDTH 8 0
SWIDTH1 1000 0
BBX 7 9 0 -1
BITMAP
82
82
82
82
82
82
C6
BA
80
ENDCHAR
STARTCHAR paragraph
ENCODING 182
SWIDTH 500 0
DWIDTH 8 0
SWIDTH1 1000 0
BBX 7 15 0 -1
BITMAP
3E
72
F2
F2
F2
72
32
12
12
12
12
12
12
12
12
ENDCHAR
STARTCHAR periodcentered
ENCODING 183
SWIDTH 1000 0
SWIDTH1 1000 0
BBX 4 4 6 4
BITMAP
60
F0
F0
60
ENDCHAR
STARTCHAR cedilla
ENCODING 184
SWIDTH 500 0
DWIDTH 8 0
SWIDTH1 1000 0
BBX 3 4 2 -1
BITMAP
40
60
20
C0
ENDCHAR
STARTCHAR uni00B9
ENCODING 185
SWIDTH 500 0
DWIDTH 8 0
SWIDTH1 1000 0
BBX 2 5 2 8
BITMAP
40
C0
40
40
40
ENDCHAR
STARTCHAR ordmasculine
ENCODING 186
SWIDTH 500 0
DWIDTH 8 0
SWIDTH1 1000 0
BBX 4 5 2 8
BITMAP
60
90
90
90
60
ENDCHAR
STARTCHAR guillemotright
ENCODING 187
SWIDTH 500 0
DWIDTH 8 0
SWIDTH1 1000 0
BBX 7 7 0 3
BITMAP
90
48
24
12
24
48
90
ENDCHAR
STARTCHAR onequarter
ENCODING 188
SWIDTH 500 0
DWIDTH 8 0
SWIDTH1 1000 0
BBX 7 13 0 0
BITMAP
42
C2
44
44
48
48
10
22
26
4A
52
9E
82
ENDCHAR
STARTCHAR onehalf
ENCODING 189
SWIDTH 500 0
DWIDTH 8 0
SWIDTH1 1000 0
BBX 7 13 0 0
BITMAP
42
C2
44
44
48
48
10
2C
32
42
44
88
9E
ENDCHAR
STARTCHAR threequarters
ENCODING 190
SWIDTH 500 0
DWIDTH 8 0
SWIDTH1 1000 0
BBX 7 13 0 0
BITMAP
62
92
24
14
98
68
10
22
26
4A
52
9E
82
ENDCHAR
STARTCHAR questiondown
ENCODING 191
SWIDTH 500 0
DWIDTH 8 0
SWIDTH1 1000 0
BBX 6 13 1 0
BITMAP
30
30
00
00
10
10
20
40
80
84
84
48
30
ENDCHAR
STARTCHAR Agrave
ENCODING 192
SWIDTH 500 0
DWIDTH 8 0
SWIDTH1 1000 0
BBX 7 14 0 0
BITMAP
40
20
10
10
10
28
28
28
44
44
7C
82
82
82
ENDCHAR
STARTCHAR Aacute
ENCODING 193
SWIDTH 500 0
DWIDTH 8 0
SWIDTH1 1000 0
BBX 7 14 0 0
BITMAP
04
08
10
10
10
28
28
28
44
44
7C
82
82
82
ENDCHAR
STARTCHAR Acircumflex
ENCODING 194
SWIDTH 500 0
DWIDTH 8 0
SWIDTH1 1000 0
BBX 7 14 0 0
BITMAP
10
28
44
10
10
28
28
28
44
44
7C
82
82
82
ENDCHAR
STARTCHAR Atilde
ENCODING 195
SWIDTH 500 0
DWIDTH 8 0
SWIDTH1 1000 0
BBX 7 14 0 0
BITMAP
64
98
00
10
10
28
28
28
44
44
7C
82
82
82
ENDCHAR
STARTCHAR Adieresis
ENCODING 196
SWIDTH 500 0
DWIDTH 8 0
SWIDTH1 1000 0
BBX 7 14 0 0
BITMAP
6C
6C
00
10
10
28
28
28
44
44
7C
82
82
82
ENDCHAR
STARTCHAR Aring
ENCODING 197
SWIDTH 500 0
DWIDTH 8 0
SWIDTH1 1000 0
BBX 7 14 0 0
BITMAP
10
28
28
10
10
28
28
28
44
44
7C
82
82
82
ENDCHAR
STARTCHAR AE
ENCODING 198
SWIDTH 500 0
DWIDTH 8 0
SWIDTH1 1000 0
BBX 7 13 0 0
BITMAP
3E
30
50
50
50
50
5E
90
F0
90
90
90
9E
ENDCHAR
STARTCHAR Ccedilla
ENCODING 199
SWIDTH 500 0
DWIDTH 8 0
SWIDTH1 1000 0
BBX 7 15 0 -2
BITMAP
38
44
82
82
80
80
80
80
82
82
44
38
30
10
60
ENDCHAR
STARTCHAR Egrave
ENCODING 200
SWIDTH 500 0
DWIDTH 8 0
SWIDTH1 1000 0
BBX 7 14 0 0
BITMAP
40
20
10
FE
80
80
80
80
FC
80
80
80
80
FE
ENDCHAR
STARTCHAR Eacute
ENCODING 201
SWIDTH 500 0
DWIDTH 8 0
SWIDTH1 1000 0
BBX 7 14 0 0
BITMAP
04
08
10
FE
80
80
80
80
FC
80
80
80
80
FE
ENDCHAR
STARTCHAR Ecircumflex
ENCODING 202
SWIDTH 500 0
DWIDTH 8 0
SWIDTH1 1000 0
BBX 7 14 0 0
BITMAP
10
28
44
FE
80
80
80
80
FC
80
80
80
80
FE
ENDCHAR
STARTCHAR Edieresis
ENCODING 203
SWIDTH 500 0
DWIDTH 8 0
SWIDTH1 1000 0
BBX 7 14 0 0
BITMAP
6C
6C
00
FE
80
80
80
80
FC
80
80
80
80
FE
ENDCHAR
STARTCHAR Igrave
ENCODING 204
SWIDTH 500 0
DWIDTH 8 0
SWIDTH1 1000 0
BBX 4 14 1 0
BITMAP
80
40
20
70
20
20
20
20
20
20
20
20
20
70
ENDCHAR
STARTCHAR Iacute
ENCODING 205
SWIDTH 500 0
DWIDTH 8 0
SWIDTH1 1000 0
BBX 4 14 2 0
BITMAP
10
20
40
E0
40
40
40
40
40
40
40
40
40
E0
ENDCHAR
STARTCHAR Icircumflex
ENCODING 206
SWIDTH 500 0
DWIDTH 8 0
SWIDTH1 1000 0
BBX 5 14 1 0
BITMAP
20
50
88
70
20
20
20
20
20
20
20
20
20
70
ENDCHAR
STARTCHAR Idieresis
ENCODING 207
SWIDTH 500 0
DWIDTH 8 0
SWIDTH1 1000 0
BBX 5 14 1 0
BITMAP
D8
D8
00
70
20
20
20
20
20
20
20
20
20
70
ENDCHAR
STARTCHAR Eth
ENCODING 208
SWIDTH 500 0
DWIDTH 8 0
SWIDTH1 1000 0
BBX 7 13 0 0
BITMAP
78
44
42
42
42
42
F2
42
42
42
42
44
78
ENDCHAR
STARTCHAR Ntilde
ENCODING 209
SWIDTH 500 0
DWIDTH 8 0
SWIDTH1 1000 0
BBX 7 14 0 0
BITMAP
64
98
00
C2
C2
A2
A2
92
92
8A
8A
86
86
82
ENDCHAR
STARTCHAR Ograve
ENCODING 210
SWIDTH 500 0
DWIDTH 8 0
SWIDTH1 1000 0
BBX 7 14 0 0
BITMAP
40
20
10
38
44
82
82
82
82
82
82
82
44
38
ENDCHAR
STARTCHAR Oacute
ENCODING 211
SWIDTH 500 0
DWIDTH 8 0
SWIDTH1 1000 0
BBX 7 14 0 0
BITMAP
04
08
10
38
44
82
82
82
82
82
82
82
44
38
ENDCHAR
STARTCHAR Ocircumflex
ENCODING 212
SWIDTH 500 0
DWIDTH 8 0
SWIDTH1 1000 0
BBX 7 14 0 0
BITMAP
10
28
44
38
44
82
82
82
82
82
82
82
44
38
ENDCHAR
STARTCHAR Otilde
ENCODING 213
SWIDTH 500 0
DWIDTH 8 0
SWIDTH1 1000 0
BBX 7 14 0 0
BITMAP
64
98
00
38
44
82
82
82
82
82
82
82
44
38
ENDCHAR
STARTCHAR Odieresis
ENCODING 214
SWIDTH 500 0
DWIDTH 8 0
SWIDTH1 1000 0
BBX 7 14 0 0
BITMAP
6C
6C
00
38
44
82
82
82
82
82
82
82
44
38
ENDCHAR
STARTCHAR multiply
ENCODING 215
SWIDTH 1000 0
SWIDTH1 1000 0
BBX 9 9 4 2
BITMAP
8080
4100
2200
1400
0800
1400
2200
4100
8080
ENDCHAR
STARTCHAR Oslash
ENCODING 216
SWIDTH 500 0
DWIDTH 8 0
SWIDTH1 1000 0
BBX 7 15 0 -1
BITMAP
02
3A
44
86
8A
8A
92
92
A2
A2
C2
C2
44
B8
80
ENDCHAR
STARTCHAR Ugrave
ENCODING 217
SWIDTH 500 0
DWIDTH 8 0
SWIDTH1 1000 0
BBX 7 14 0 0
BITMAP
40
20
10
82
82
82
82
82
82
82
82
82
44
38
ENDCHAR
STARTCHAR Uacute
ENCODING 218
SWIDTH 500 0
DWIDTH 8 0
SWIDTH1 1000 0
BBX 7 14 0 0
BITMAP
04
08
10
82
82
82
82
82
82
82
82
82
44
38
ENDCHAR
STARTCHAR Ucircumflex
ENCODING 219
SWIDTH 500 0
DWIDTH 8 0
SWIDTH1 1000 0
BBX 7 14 0 0
BITMAP
10
28
44
82
82
82
82
82
82
82
82
82
44
38
ENDCHAR
STARTCHAR Udieresis
ENCODING 220
SWIDTH 500 0
DWIDTH 8 0
SWIDTH1 1000 0
BBX 7 14 0 0
BITMAP
6C
6C
00
82
82
82
82
82
82
82
82
82
44
38
ENDCHAR
STARTCHAR Yacute
ENCODING 221
SWIDTH 500 0
DWIDTH 8 0
SWIDTH1 1000 0
BBX 7 14 0 0
BITMAP
04
08
10
82
82
44
44
28
28
10
10
10
10
10
ENDCHAR
STARTCHAR Thorn
ENCODING 222
SWIDTH 500 0
DWIDTH 8 0
SWIDTH1 1000 0
BBX 6 13 1 0
BITMAP
80
80
80
F0
88
84
84
84
88
F0
80
80
80
ENDCHAR
STARTCHAR germandbls
ENCODING 223
SWIDTH 500 0
DWIDTH 8 0
SWIDTH1 1000 0
BBX 6 13 1 0
BITMAP
60
90
88
88
90
A0
90
88
84
84
A4
A4
98
ENDCHAR
STARTCHAR agrave
ENCODING 224
SWIDTH 500 0
DWIDTH 8 0
SWIDTH1 1000 0
BBX 7 12 1 0
BITMAP
40
20
10
00
78
84
04
3C
44
84
8C
76
ENDCHAR
STARTCHAR aacute
ENCODING 225
SWIDTH 500 0
DWIDTH 8 0
SWIDTH1 1000 0
BBX 7 12 1 0
BITMAP
08
10
20
00
78
84
04
3C
44
84
8C
76
ENDCHAR
STARTCHAR acircumflex
ENCODING 226
SWIDTH 500 0
DWIDTH 8 0
SWIDTH1 1000 0
BBX 7 12 0 0
BITMAP
10
28
44
00
78
84
04
3C
44
84
8C
76
ENDCHAR
STARTCHAR atilde
ENCODING 227
SWIDTH 500 0
DWIDTH 8 0
SWIDTH1 1000 0
BBX 7 11 0 0
BITMAP
64
98
00
78
84
04
3C
44
84
8C
76
ENDCHAR
STARTCHAR adieresis
ENCODING 228
SWIDTH 500 0
DWIDTH 8 0
SWIDTH1 1000 0
BBX 7 11 0 0
BITMAP
6C
6C
00
78
84
04
3C
44
84
8C
76
ENDCHAR
STARTCHAR aring
ENCODING 229
SWIDTH 500 0
DWIDTH 8 0
SWIDTH1 1000 0
BBX 7 11 0 0
BITMAP
30
48
48
78
84
04
3C
44
84
8C
76
ENDCHAR
STARTCHAR ae
ENCODING 230
SWIDTH 500 0
DWIDTH 8 0
SWIDTH1 1000 0
BBX 7 8 0 0
BITMAP
6C
92
12
7E
90
90
92
6C
ENDCHAR
STARTCHAR ccedilla
ENCODING 231
SWIDTH 500 0
DWIDTH 8 0
SWIDTH1 1000 0
BBX 7 10 0 -2
BITMAP
3C
42
80
80
80
42
3C
18
08
30
ENDCHAR
STARTCHAR egrave
ENCODING 232
SWIDTH 500 0
DWIDTH 8 0
SWIDTH1 1000 0
BBX 7 12 0 0
BITMAP
40
20
10
00
38
44
82
FE
80
80
42
3C
ENDCHAR
STARTCHAR eacute
ENCODING 233
SWIDTH 500 0
DWIDTH 8 0
SWIDTH1 1000 0
BBX 7 12 0 0
BITMAP
04
08
10
00
38
44
82
FE
80
80
42
3C
ENDCHAR
STARTCHAR ecircumflex
ENCODING 234
SWIDTH 500 0
DWIDTH 8 0
SWIDTH1 1000 0
BBX 7 12 0 0
BITMAP
10
28
44
00
38
44
82
FE
80
80
42
3C
ENDCHAR
STARTCHAR edieresis
ENCODING 235
SWIDTH 500 0
DWIDTH 8 0
SWIDTH1 1000 0
BBX 7 11 0 0
BITMAP
6C
6C
00
38
44
82
FE
80
80
42
3C
ENDCHAR
STARTCHAR igrave
ENCODING 236
SWIDTH 500 0
DWIDTH 8 0
SWIDTH1 1000 0
BBX 3 12 1 0
BITMAP
80
40
20
00
20
20
20
20
20
20
20
20
ENDCHAR
STARTCHAR iacute
ENCODING 237
SWIDTH 500 0
DWIDTH 8 0
SWIDTH1 1000 0
BBX 3 12 3 0
BITMAP
20
40
80
00
80
80
80
80
80
80
80
80
ENDCHAR
STARTCHAR icircumflex
ENCODING 238
SWIDTH 500 0
DWIDTH 8 0
SWIDTH1 1000 0
BBX 5 12 1 0
BITMAP
20
50
88
00
20
20
20
20
20
20
20
20
ENDCHAR
STARTCHAR idieresis
ENCODING 239
SWIDTH 500 0
DWIDTH 8 0
SWIDTH1 1000 0
BBX 5 11 1 0
BITMAP
D8
D8
00
20
20
20
20
20
20
20
20
ENDCHAR
STARTCHAR eth
ENCODING 240
SWIDTH 500 0
DWIDTH 8 0
SWIDTH1 1000 0
BBX 7 13 0 0
BITMAP
40
2C
10
68
04
3C
46
82
82
82
82
44
38
ENDCHAR
STARTCHAR ntilde
ENCODING 241
SWIDTH 500 0
DWIDTH 8 0
SWIDTH1 1000 0
BBX 7 11 0 0
BITMAP
64
98
00
B8
C4
82
82
82
82
82
82
ENDCHAR
STARTCHAR ograve
ENCODING 242
SWIDTH 500 0
DWIDTH 8 0
SWIDTH1 1000 0
BBX 7 12 0 0
BITMAP
40
20
10
00
38
44
82
82
82
82
44
38
ENDCHAR
STARTCHAR oacute
ENCODING 243
SWIDTH 500 0
DWIDTH 8 0
SWIDTH1 1000 0
BBX 7 12 0 0
BITMAP
04
08
10
00
38
44
82
82
82
82
44
38
ENDCHAR
STARTCHAR ocircumflex
ENCODING 244
SWIDTH 500 0
DWIDTH 8 0
SWIDTH1 1000 0
BBX 7 12 0 0
BITMAP
10
28
44
00
38
44
82
82
82
82
44
38
ENDCHAR
STARTCHAR otilde
ENCODING 245
SWIDTH 500 0
DWIDTH 8 0
SWIDTH1 1000 0
BBX 7 11 0 0
BITMAP
64
98
00
38
44
82
82
82
82
44
38
ENDCHAR
STARTCHAR odieresis
ENCODING 246
SWIDTH 500 0
DWIDTH 8 0
SWIDTH1 1000 0
BBX 7 11 0 0
BITMAP
6C
6C
00
38
44
82
82
82
82
44
38
ENDCHAR
STARTCHAR divide
ENCODING 247
SWIDTH 1000 0
SWIDTH1 1000 0
BBX 10 9 3 2
BITMAP
0C00
0C00
0000
0000
FFC0
0000
0000
0C00
0C00
ENDCHAR
STARTCHAR oslash
ENCODING 248
SWIDTH 500 0
DWIDTH 8 0
SWIDTH1 1000 0
BBX 7 10 0 -1
BITMAP
02
3C
44
8A
92
92
A2
44
78
80
ENDCHAR
STARTCHAR ugrave
ENCODING 249
SWIDTH 500 0
DWIDTH 8 0
SWIDTH1 1000 0
BBX 7 12 0 0
BITMAP
40
20
10
00
82
82
82
82
82
82
46
3A
ENDCHAR
STARTCHAR uacute
ENCODING 250
SWIDTH 500 0
DWIDTH 8 0
SWIDTH1 1000 0
BBX 7 12 0 0
BITMAP
04
08
10
00
82
82
82
82
82
82
46
3A
ENDCHAR
STARTCHAR ucircumflex
ENCODING 251
SWIDTH 500 0
DWIDTH 8 0
SWIDTH1 1000 0
BBX 7 12 0 0
BITMAP
10
28
44
00
82
82
82
82
82
82
46
3A
ENDCHAR
STARTCHAR udieresis
ENCODING 252
SWIDTH 500 0
DWIDTH 8 0
SWIDTH1 1000 0
BBX 7 11 0 0
BITMAP
6C
6C
00
82
82
82
82
82
82
46
3A
ENDCHAR
STARTCHAR yacute
ENCODING 253
SWIDTH 500 0
DWIDTH 8 0
SWIDTH1 1000 0
BBX 7 13 0 -1
BITMAP
04
08
10
00
82
82
44
44
28
28
10
20
C0
ENDCHAR
STARTCHAR thorn
ENCODING 254
SWIDTH 500 0
DWIDTH 8 0
SWIDTH1 1000 0
BBX 6 14 1 -1
BITMAP
80
80
80
80
B0
C8
84
84
84
84
C8
B0
80
80
ENDCHAR
STARTCHAR ydieresis
ENCODING 255
SWIDTH 500 0
DWIDTH 8 0
SWIDTH1 1000 0
BBX 7 12 0 -1
BITMAP
6C
6C
00
82
82
44
44
28
28
10
20
C0
ENDCHAR
STARTCHAR amacron
ENCODING 257
SWIDTH 500 0
DWIDTH 8 0
SWIDTH1 1000 0
BBX 7 10 0 0
BITMAP
7C
00
78
84
04
3C
44
84
8C
76
ENDCHAR
STARTCHAR emacron
ENCODING 275
SWIDTH 500 0
DWIDTH 8 0
SWIDTH1 1000 0
BBX 7 10 0 0
BITMAP
7C
00
38
44
82
FE
80
80
42
3C
ENDCHAR
STARTCHAR ecaron
ENCODING 283
SWIDTH 500 0
DWIDTH 8 0
SWIDTH1 1000 0
BBX 7 12 0 0
BITMAP
44
28
10
00
38
44
82
FE
80
80
42
3C
ENDCHAR
STARTCHAR imacron
ENCODING 299
SWIDTH 500 0
DWIDTH 8 0
SWIDTH1 1000 0
BBX 5 10 1 0
BITMAP
F8
00
20
20
20
20
20
20
20
20
ENDCHAR
STARTCHAR nacute
ENCODING 324
SWIDTH 500 0
DWIDTH 8 0
SWIDTH1 1000 0
BBX 7 12 0 0
BITMAP
04
08
10
00
B8
C4
82
82
82
82
82
82
ENDCHAR
STARTCHAR ncaron
ENCODING 328
SWIDTH 500 0
DWIDTH 8 0
SWIDTH1 1000 0
BBX 7 12 0 0
BITMAP
44
28
10
00
B8
C4
82
82
82
82
82
82
ENDCHAR
STARTCHAR omacron
ENCODING 333
SWIDTH 500 0
DWIDTH 8 0
SWIDTH1 1000 0
BBX 7 10 0 0
BITMAP
7C
00
38
44
82
82
82
82
44
38
ENDCHAR
STARTCHAR OE
ENCODING 338
SWIDTH 500 0
DWIDTH 8 0
SWIDTH1 1000 0
BBX 7 13 0 0
BITMAP
7E
90
90
90
90
90
9C
90
90
90
90
90
7E
ENDCHAR
STARTCHAR oe
ENCODING 339
SWIDTH 500 0
DWIDTH 8 0
SWIDTH1 1000 0
BBX 7 8 0 0
BITMAP
6C
92
92
9E
90
90
92
6C
ENDCHAR
STARTCHAR Scaron
ENCODING 352
SWIDTH 500 0
DWIDTH 8 0
SWIDTH1 1000 0
BBX 7 14 0 0
BITMAP
44
28
10
38
44
82
82
60
18
04
82
82
44
38
ENDCHAR
STARTCHAR scaron
ENCODING 353
SWIDTH 500 0
DWIDTH 8 0
SWIDTH1 1000 0
BBX 7 12 0 0
BITMAP
44
28
10
00
7C
82
80
60
1C
02
82
7C
ENDCHAR
STARTCHAR umacron
ENCODING 363
SWIDTH 500 0
DWIDTH 8 0
SWIDTH1 1000 0
BBX 7 10 0 0
BITMAP
7C
00
82
82
82
82
82
82
46
3A
ENDCHAR
STARTCHAR Ydieresis
ENCODING 376
SWIDTH 500 0
DWIDTH 8 0
SWIDTH1 1000 0
BBX 7 14 0 0
BITMAP
6C
6C
00
82
82
44
44
28
28
10
10
10
10
10
ENDCHAR
STARTCHAR florin
ENCODING 402
SWIDTH 500 0
DWIDTH 8 0
SWIDTH1 1000 0
BBX 7 14 0 -1
BITMAP
0C
12
12
10
10
7C
10
10
10
10
10
90
90
60
ENDCHAR
STARTCHAR uni01CE
ENCODING 462
SWIDTH 500 0
DWIDTH 8 0
SWIDTH1 1000 0
BBX 7 12 1 0
BITMAP
44
28
10
00
78
84
04
3C
44
84
8C
76
ENDCHAR
STARTCHAR uni01D0
ENCODING 464
SWIDTH 500 0
DWIDTH 8 0
SWIDTH1 1000 0
BBX 5 12 2 0
BITMAP
88
50
20
00
20
20
20
20
20
20
20
20
ENDCHAR
STARTCHAR uni01D2
ENCODING 466
SWIDTH 500 0
DWIDTH 8 0
SWIDTH1 1000 0
BBX 7 12 1 0
BITMAP
44
28
10
00
38
44
82
82
82
82
44
38
ENDCHAR
STARTCHAR uni01D4
ENCODING 468
SWIDTH 500 0
DWIDTH 8 0
SWIDTH1 1000 0
BBX 7 12 1 0
BITMAP
44
28
10
00
82
82
82
82
82
82
46
3A
ENDCHAR
STARTCHAR uni01D6
ENCODING 470
SWIDTH 500 0
DWIDTH 8 0
SWIDTH1 1000 0
BBX 7 11 1 0
BITMAP
FE
00
82
00
82
82
82
82
82
46
3A
ENDCHAR
STARTCHAR uni01D8
ENCODING 472
SWIDTH 500 0
DWIDTH 8 0
SWIDTH1 1000 0
BBX 7 13 1 0
BITMAP
08
10
20
00
82
00
82
82
82
82
82
46
3A
ENDCHAR
STARTCHAR uni01DA
ENCODING 474
SWIDTH 500 0
DWIDTH 8 0
SWIDTH1 1000 0
BBX 7 13 1 0
BITMAP
44
28
10
82
00
82
82
82
82
82
82
46
3A
ENDCHAR
STARTCHAR uni01DC
ENCODING 476
SWIDTH 500 0
DWIDTH 8 0
SWIDTH1 1000 0
BBX 7 13 1 0
BITMAP
20
10
08
00
82
00
82
82
82
82
82
46
3A
ENDCHAR
STARTCHAR uni01F9
ENCODING 505
SWIDTH 500 0
DWIDTH 8 0
SWIDTH1 1000 0
BBX 7 12 1 0
BITMAP
20
10
08
00
B8
C4
82
82
82
82
82
82
ENDCHAR
STARTCHAR uni0251
ENCODING 593
SWIDTH 500 0
DWIDTH 8 0
SWIDTH1 1000 0
BBX 7 7 1 0
BITMAP
78
84
3C
44
84
84
7E
ENDCHAR
STARTCHAR uni0261
ENCODING 609
SWIDTH 500 0
DWIDTH 8 0
SWIDTH1 1000 0
BBX 6 9 1 -2
BITMAP
7C
88
88
70
80
78
84
84
78
ENDCHAR
STARTCHAR circumflex
ENCODING 710
SWIDTH 500 0
DWIDTH 8 0
SWIDTH1 1000 0
BBX 7 4 0 10
BITMAP
10
28
44
82
ENDCHAR
STARTCHAR caron
ENCODING 711
SWIDTH 1000 0
SWIDTH1 1000 0
BBX 7 4 5 10
BITMAP
82
44
28
10
ENDCHAR
STARTCHAR uni02C9
ENCODING 713
SWIDTH 1000 0
SWIDTH1 1000 0
BBX 7 1 5 11
BITMAP
FE
ENDCHAR
STARTCHAR uni02CA
ENCODING 714
SWIDTH 1000 0
SWIDTH1 1000 0
BBX 4 5 4 9
BITMAP
20
30
60
40
80
ENDCHAR
STARTCHAR uni02CB
ENCODING 715
SWIDTH 1000 0
SWIDTH1 1000 0
BBX 4 5 10 9
BITMAP
80
C0
60
20
10
ENDCHAR
STARTCHAR dotaccent
ENCODING 729
SWIDTH 1000 0
SWIDTH1 1000 0
BBX 2 2 8 7
BITMAP
C0
C0
ENDCHAR
STARTCHAR tilde
ENCODING 732
SWIDTH 500 0
DWIDTH 8 0
SWIDTH1 1000 0
BBX 6 2 1 12
BITMAP
64
98
ENDCHAR
STARTCHAR Alpha
ENCODING 913
SWIDTH 1000 0
SWIDTH1 1000 0
BBX 9 11 4 0
BITMAP
0800
0800
1400
1400
2200
2200
4100
7F00
8080
8080
8080
ENDCHAR
STARTCHAR Beta
ENCODING 914
SWIDTH 1000 0
SWIDTH1 1000 0
BBX 9 11 4 0
BITMAP
FC00
8200
8100
8100
8200
FE00
8100
8080
8080
8100
FE00
ENDCHAR
STARTCHAR Gamma
ENCODING 915
SWIDTH 1000 0
SWIDTH1 1000 0
BBX 8 11 4 0
BITMAP
FF
80
80
80
80
80
80
80
80
80
80
ENDCHAR
STARTCHAR uni0394
ENCODING 916
SWIDTH 1000 0
SWIDTH1 1000 0
BBX 9 11 4 0
BITMAP
0800
0800
1400
1400
2200
2200
4100
4100
8080
8080
FF80
ENDCHAR
STARTCHAR Epsilon
ENCODING 917
SWIDTH 1000 0
SWIDTH1 1000 0
BBX 9 11 4 0
BITMAP
FF80
8000
8000
8000
8000
FF00
8000
8000
8000
8000
FF80
ENDCHAR
STARTCHAR Zeta
ENCODING 918
SWIDTH 1000 0
SWIDTH1 1000 0
BBX 8 11 4 0
BITMAP
FF
01
02
04
08
08
10
20
40
80
FF
ENDCHAR
STARTCHAR Eta
ENCODING 919
SWIDTH 1000 0
SWIDTH1 1000 0
BBX 10 11 3 0
BITMAP
8040
8040
8040
8040
8040
FFC0
8040
8040
8040
8040
8040
ENDCHAR
STARTCHAR Theta
ENCODING 920
SWIDTH 1000 0
SWIDTH1 1000 0
BBX 11 11 3 0
BITMAP
1F00
2080
4040
8020
8020
BFA0
8020
8020
4040
2080
1F00
ENDCHAR
STARTCHAR Iota
ENCODING 921
SWIDTH 1000 0
SWIDTH1 1000 0
BBX 1 11 8 0
BITMAP
80
80
80
80
80
80
80
80
80
80
80
ENDCHAR
STARTCHAR Kappa
ENCODING 922
SWIDTH 1000 0
SWIDTH1 1000 0
BBX 9 11 4 0
BITMAP
8100
8200
8400
8800
9000
B000
C800
8400
8200
8100
8080
ENDCHAR
STARTCHAR Lambda
ENCODING 923
SWIDTH 1000 0
SWIDTH1 1000 0
BBX 9 11 4 0
BITMAP
0800
0800
1400
1400
2200
2200
4100
4100
8080
8080
8080
ENDCHAR
STARTCHAR Mu
ENCODING 924
SWIDTH 1000 0
SWIDTH1 1000 0
BBX 12 11 2 0
BITMAP
8010
C030
C030
A050
A050
9090
9090
8910
8910
8610
8610
ENDCHAR
STARTCHAR Nu
ENCODING 925
SWIDTH 1000 0
SWIDTH1 1000 0
BBX 10 11 3 0
BITMAP
8040
C040
A040
9040
8840
8840
8440
8240
8140
80C0
8040
ENDCHAR
STARTCHAR Xi
ENCODING 926
SWIDTH 1000 0
SWIDTH1 1000 0
BBX 10 11 3 0
BITMAP
FFC0
0000
0000
0000
0000
3F00
0000
0000
0000
0000
FFC0
ENDCHAR
STARTCHAR Omicron
ENCODING 927
SWIDTH 1000 0
SWIDTH1 1000 0
BBX 11 11 3 0
BITMAP
1F00
2080
4040
8020
8020
8020
8020
8020
4040
2080
1F00
ENDCHAR
STARTCHAR Pi
ENCODING 928
SWIDTH 1000 0
SWIDTH1 1000 0
BBX 9 11 4 0
BITMAP
FF80
8080
8080
8080
8080
8080
8080
8080
8080
8080
8080
ENDCHAR
STARTCHAR Rho
ENCODING 929
SWIDTH 1000 0
SWIDTH1 1000 0
BBX 8 11 4 0
BITMAP
FC
82
81
81
82
FC
80
80
80
80
80
ENDCHAR
STARTCHAR Sigma
ENCODING 931
SWIDTH 1000 0
SWIDTH1 1000 0
BBX 9 11 3 0
BITMAP
FF80
4000
2000
1000
0800
0400
0800
1000
2000
4000
FF80
ENDCHAR
STARTCHAR Tau
ENCODING 932
SWIDTH 1000 0
SWIDTH1 1000 0
BBX 9 11 4 0
BITMAP
FF80
0800
0800
0800
0800
0800
0800
0800
0800
0800
0800
ENDCHAR
STARTCHAR Upsilon
ENCODING 933
SWIDTH 1000 0
SWIDTH1 1000 0
BBX 9 11 4 0
BITMAP
8080
8080
4100
2200
2200
1400
0800
0800
0800
0800
0800
ENDCHAR
STARTCHAR Phi
ENCODING 934
SWIDTH 1000 0
SWIDTH1 1000 0
BBX 9 12 4 0
BITMAP
0800
0800
3E00
4900
8880
8880
8880
8880
4900
3E00
0800
0800
ENDCHAR
STARTCHAR Chi
ENCODING 935
SWIDTH 1000 0
SWIDTH1 1000 0
BBX 9 11 4 0
BITMAP
8080
4100
2200
2200
1400
0800
1400
2200
2200
4100
8080
ENDCHAR
STARTCHAR Psi
ENCODING 936
SWIDTH 1000 0
SWIDTH1 1000 0
BBX 11 11 3 0
BITMAP
8420
4440
4440
4440
4440
4440
2480
1F00
0400
0400
0400
ENDCHAR
STARTCHAR uni03A9
ENCODING 937
SWIDTH 1000 0
SWIDTH1 1000 0
BBX 10 11 3 0
BITMAP
1E00
2100
4080
8040
8040
8040
4080
3300
9240
9240
F3C0
ENDCHAR
STARTCHAR alpha
ENCODING 945
SWIDTH 1000 0
SWIDTH1 1000 0
BBX 9 9 4 0
BITMAP
3880
4500
8500
8200
8200
8400
8400
4A80
3100
ENDCHAR
STARTCHAR beta
ENCODING 946
SWIDTH 1000 0
SWIDTH1 1000 0
BBX 7 13 5 -2
BITMAP
30
48
84
84
98
84
82
82
82
C4
B8
80
80
ENDCHAR
STARTCHAR gamma
ENCODING 947
SWIDTH 1000 0
SWIDTH1 1000 0
BBX 7 11 5 -2
BITMAP
82
82
44
44
28
28
10
38
44
44
38
ENDCHAR
STARTCHAR delta
ENCODING 948
SWIDTH 1000 0
SWIDTH1 1000 0
BBX 7 11 5 0
BITMAP
38
44
20
10
38
44
82
82
82
44
38
ENDCHAR
STARTCHAR epsilon
ENCODING 949
SWIDTH 1000 0
SWIDTH1 1000 0
BBX 7 9 5 0
BITMAP
7C
82
80
80
78
80
80
82
7C
ENDCHAR
STARTCHAR zeta
ENCODING 950
SWIDTH 1000 0
SWIDTH1 1000 0
BBX 6 13 5 -2
BITMAP
F8
10
20
40
40
80
80
80
40
38
04
04
38
ENDCHAR
STARTCHAR eta
ENCODING 951
SWIDTH 1000 0
SWIDTH1 1000 0
BBX 10 11 4 -2
BITMAP
B800
C400
8200
8200
8200
8200
8200
8200
8200
0240
0180
ENDCHAR
STARTCHAR theta
ENCODING 952
SWIDTH 1000 0
SWIDTH1 1000 0
BBX 10 11 3 0
BITMAP
1E00
2100
4080
8040
8040
FFC0
8040
8040
4080
2100
1E00
ENDCHAR
STARTCHAR iota
ENCODING 953
SWIDTH 1000 0
SWIDTH1 1000 0
BBX 4 9 7 0
BITMAP
80
80
80
80
80
80
90
90
60
ENDCHAR
STARTCHAR kappa
ENCODING 954
SWIDTH 1000 0
SWIDTH1 1000 0
BBX 7 9 5 0
BITMAP
84
88
90
A0
E0
90
88
84
82
ENDCHAR
STARTCHAR lambda
ENCODING 955
SWIDTH 1000 0
SWIDTH1 1000 0
BBX 10 11 4 0
BITMAP
6000
1000
1000
1000
1000
2800
2800
4400
4440
8240
8180
ENDCHAR
STARTCHAR uni03BC
ENCODING 956
SWIDTH 1000 0
SWIDTH1 1000 0
BBX 7 11 5 -2
BITMAP
82
82
82
82
82
82
82
C6
BA
80
80
ENDCHAR
STARTCHAR nu
ENCODING 957
SWIDTH 1000 0
SWIDTH1 1000 0
BBX 7 9 4 0
BITMAP
C2
42
42
42
24
24
24
18
18
ENDCHAR
STARTCHAR xi
ENCODING 958
SWIDTH 1000 0
SWIDTH1 1000 0
BBX 5 13 6 -2
BITMAP
F0
20
40
40
30
40
80
80
40
30
08
08
70
ENDCHAR
STARTCHAR omicron
ENCODING 959
SWIDTH 1000 0
SWIDTH1 1000 0
BBX 8 9 4 0
BITMAP
3C
42
81
81
81
81
81
42
3C
ENDCHAR
STARTCHAR pi
ENCODING 960
SWIDTH 1000 0
SWIDTH1 1000 0
BBX 9 9 4 0
BITMAP
FF80
2400
2400
2400
2400
2400
2480
4480
8300
ENDCHAR
STARTCHAR rho
ENCODING 961
SWIDTH 1000 0
SWIDTH1 1000 0
BBX 8 11 4 -2
BITMAP
3C
42
81
81
81
81
81
C2
BC
80
80
ENDCHAR
STARTCHAR sigma
ENCODING 963
SWIDTH 1000 0
SWIDTH1 1000 0
BBX 9 9 4 0
BITMAP
3F80
4200
8100
8100
8100
8100
8100
4200
3C00
ENDCHAR
STARTCHAR tau
ENCODING 964
SWIDTH 1000 0
SWIDTH1 1000 0
BBX 7 9 4 0
BITMAP
FE
10
10
10
10
10
12
12
0C
ENDCHAR
STARTCHAR upsilon
ENCODING 965
SWIDTH 1000 0
SWIDTH1 1000 0
BBX 7 9 5 0
BITMAP
88
84
82
82
82
82
82
84
78
ENDCHAR
STARTCHAR phi
ENCODING 966
SWIDTH 1000 0
SWIDTH1 1000 0
BBX 9 13 4 -2
BITMAP
0800
0800
3E00
4900
8880
8880
8880
8880
8880
4900
3E00
0800
0800
ENDCHAR
STARTCHAR chi
ENCODING 967
SWIDTH 1000 0
SWIDTH1 1000 0
BBX 9 11 3 -2
BITMAP
7080
0900
0A00
0A00
0C00
0800
1400
2400
2400
4400
8380
ENDCHAR
STARTCHAR psi
ENCODING 968
SWIDTH 1000 0
SWIDTH1 1000 0
BBX 9 10 4 -1
BITMAP
8880
4900
4900
4900
4900
4900
2A00
1C00
0800
0800
ENDCHAR
STARTCHAR omega
ENCODING 969
SWIDTH 1000 0
SWIDTH1 1000 0
BBX 9 9 4 0
BITMAP
2200
4100
8880
8880
8880
8880
8880
4900
3600
ENDCHAR
STARTCHAR uni0401
ENCODING 1025
SWIDTH 1000 0
SWIDTH1 1000 0
BBX 8 13 4 0
BITMAP
24
00
FF
80
80
80
80
FE
80
80
80
80
FF
ENDCHAR
STARTCHAR uni0410
ENCODING 1040
SWIDTH 1000 0
SWIDTH1 1000 0
BBX 9 11 4 0
BITMAP
0800
0800
1400
1400
2200
2200
4100
7F00
8080
8080
8080
ENDCHAR
STARTCHAR uni0411
ENCODING 1041
SWIDTH 1000 0
SWIDTH1 1000 0
BBX 9 11 4 0
BITMAP
FF00
8000
8000
8000
FE00
8100
8080
8080
8080
8100
FE00
ENDCHAR
STARTCHAR uni0412
ENCODING 1042
SWIDTH 1000 0
SWIDTH1 1000 0
BBX 9 11 4 0
BITMAP
FC00
8200
8100
8100
8200
FE00
8100
8080
8080
8100
FE00
ENDCHAR
STARTCHAR uni0413
ENCODING 1043
SWIDTH 1000 0
SWIDTH1 1000 0
BBX 8 11 5 0
BITMAP
FF
80
80
80
80
80
80
80
80
80
80
ENDCHAR
STARTCHAR uni0414
ENCODING 1044
SWIDTH 1000 0
SWIDTH1 1000 0
BBX 13 13 1 -2
BITMAP
0FE0
0820
0820
0820
0820
1020
1020
1020
2020
2020
7FF0
4010
8008
ENDCHAR
STARTCHAR uni0415
ENCODING 1045
SWIDTH 1000 0
SWIDTH1 1000 0
BBX 8 11 4 0
BITMAP
FF
80
80
80
80
FE
80
80
80
80
FF
ENDCHAR
STARTCHAR uni0416
ENCODING 1046
SWIDTH 1000 0
SWIDTH1 1000 0
BBX 13 11 2 0
BITMAP
E238
1240
1240
0A80
0A80
0F80
0A80
0A80
1240
1240
E238
ENDCHAR
STARTCHAR uni0417
ENCODING 1047
SWIDTH 1000 0
SWIDTH1 1000 0
BBX 7 11 4 0
BITMAP
38
44
82
02
04
18
04
02
82
44
38
ENDCHAR
STARTCHAR uni0418
ENCODING 1048
SWIDTH 1000 0
SWIDTH1 1000 0
BBX 9 11 4 0
BITMAP
8080
8080
8180
8280
8480
8880
9080
A080
C080
8080
8080
ENDCHAR
STARTCHAR uni0419
ENCODING 1049
SWIDTH 1000 0
SWIDTH1 1000 0
BBX 9 14 4 0
BITMAP
3300
1E00
0000
8080
8080
8180
8280
8480
8880
9080
A080
C080
8080
8080
ENDCHAR
STARTCHAR uni041A
ENCODING 1050
SWIDTH 1000 0
SWIDTH1 1000 0
BBX 9 11 4 0
BITMAP
8100
8200
8400
8800
9000
B000
C800
8400
8200
8100
8080
ENDCHAR
STARTCHAR uni041B
ENCODING 1051
SWIDTH 1000 0
SWIDTH1 1000 0
BBX 9 11 2 0
BITMAP
1F80
1080
1080
1080
1080
1080
1080
1080
1080
2080
C080
ENDCHAR
STARTCHAR uni041C
ENCODING 1052
SWIDTH 1000 0
SWIDTH1 1000 0
BBX 12 11 2 0
BITMAP
8010
C030
C030
A050
A050
9090
9090
8910
8910
8610
8610
ENDCHAR
STARTCHAR uni041D
ENCODING 1053
SWIDTH 1000 0
SWIDTH1 1000 0
BBX 9 11 4 0
BITMAP
8080
8080
8080
8080
8080
FF80
8080
8080
8080
8080
8080
ENDCHAR
STARTCHAR uni041E
ENCODING 1054
SWIDTH 1000 0
SWIDTH1 1000 0
BBX 11 11 3 0
BITMAP
1F00
2080
4040
8020
8020
8020
8020
8020
4040
2080
1F00
ENDCHAR
STARTCHAR uni041F
ENCODING 1055
SWIDTH 1000 0
SWIDTH1 1000 0
BBX 9 11 4 0
BITMAP
FF80
8080
8080
8080
8080
8080
8080
8080
8080
8080
8080
ENDCHAR
STARTCHAR uni0420
ENCODING 1056
SWIDTH 1000 0
SWIDTH1 1000 0
BBX 8 11 4 0
BITMAP
FC
82
81
81
82
FC
80
80
80
80
80
ENDCHAR
STARTCHAR uni0421
ENCODING 1057
SWIDTH 1000 0
SWIDTH1 1000 0
BBX 10 11 3 0
BITMAP
1F00
2080
4040
8040
8000
8000
8000
8000
4040
2080
1F00
ENDCHAR
STARTCHAR uni0422
ENCODING 1058
SWIDTH 1000 0
SWIDTH1 1000 0
BBX 9 11 4 0
BITMAP
FF80
0800
0800
0800
0800
0800
0800
0800
0800
0800
0800
ENDCHAR
STARTCHAR uni0423
ENCODING 1059
SWIDTH 1000 0
SWIDTH1 1000 0
BBX 6 11 5 0
BITMAP
84
84
84
48
48
30
30
20
20
40
80
ENDCHAR
STARTCHAR uni0424
ENCODING 1060
SWIDTH 1000 0
SWIDTH1 1000 0
BBX 9 11 4 0
BITMAP
0800
0800
3E00
4900
8880
8880
8880
4900
3E00
0800
0800
ENDCHAR
STARTCHAR uni0425
ENCODING 1061
SWIDTH 1000 0
SWIDTH1 1000 0
BBX 9 11 4 0
BITMAP
8080
4100
2200
2200
1400
0800
1400
2200
2200
4100
8080
ENDCHAR
STARTCHAR uni0426
ENCODING 1062
SWIDTH 1000 0
SWIDTH1 1000 0
BBX 10 13 3 -2
BITMAP
8080
8080
8080
8080
8080
8080
8080
8080
8080
8080
FF80
0040
0040
ENDCHAR
STARTCHAR uni0427
ENCODING 1063
SWIDTH 1000 0
SWIDTH1 1000 0
BBX 7 11 4 0
BITMAP
82
82
82
82
82
82
46
3A
02
02
02
ENDCHAR
STARTCHAR uni0428
ENCODING 1064
SWIDTH 1000 0
SWIDTH1 1000 0
BBX 13 11 2 0
BITMAP
8208
8208
8208
8208
8208
8208
8208
8208
8208
8208
FFF8
ENDCHAR
STARTCHAR uni0429
ENCODING 1065
SWIDTH 1000 0
SWIDTH1 1000 0
BBX 14 13 1 -2
BITMAP
8208
8208
8208
8208
8208
8208
8208
8208
8208
8208
FFFC
0004
0004
ENDCHAR
STARTCHAR uni042A
ENCODING 1066
SWIDTH 1000 0
SWIDTH1 1000 0
BBX 11 11 2 0
BITMAP
F000
1000
1000
1000
1F80
1040
1020
1020
1020
1040
1F80
ENDCHAR
STARTCHAR uni042B
ENCODING 1067
SWIDTH 1000 0
SWIDTH1 1000 0
BBX 11 11 3 0
BITMAP
8020
8020
8020
8020
FC20
8220
8120
8120
8120
8220
FC20
ENDCHAR
STARTCHAR uni042C
ENCODING 1068
SWIDTH 1000 0
SWIDTH1 1000 0
BBX 8 12 4 0
BITMAP
80
80
80
80
80
FC
82
81
81
81
82
FC
ENDCHAR
STARTCHAR uni042D
ENCODING 1069
SWIDTH 1000 0
SWIDTH1 1000 0
BBX 10 11 3 0
BITMAP
3E00
4100
8080
0040
0040
3FC0
0040
0040
8080
4100
3E00
ENDCHAR
STARTCHAR uni042E
ENCODING 1070
SWIDTH 1000 0
SWIDTH1 1000 0
BBX 14 11 1 0
BITMAP
83E0
8410
8808
9004
9004
F004
9004
9004
8808
8410
83E0
ENDCHAR
STARTCHAR uni042F
ENCODING 1071
SWIDTH 1000 0
SWIDTH1 1000 0
BBX 9 11 3 0
BITMAP
3F80
4080
8080
8080
4080
3F80
4080
8080
8080
8080
8080
ENDCHAR
STARTCHAR uni0430
ENCODING 1072
SWIDTH 1000 0
SWIDTH1 1000 0
BBX 8 9 4 0
BITMAP
7C
82
02
1E
62
82
82
82
7D
ENDCHAR
STARTCHAR uni0431
ENCODING 1073
SWIDTH 1000 0
SWIDTH1 1000 0
BBX 7 12 5 0
BITMAP
02
04
18
20
78
C4
82
82
82
82
44
38
ENDCHAR
STARTCHAR uni0432
ENCODING 1074
SWIDTH 1000 0
SWIDTH1 1000 0
BBX 7 9 5 0
BITMAP
FC
82
82
82
FC
82
82
82
FC
ENDCHAR
STARTCHAR uni0433
ENCODING 1075
SWIDTH 1000 0
SWIDTH1 1000 0
BBX 7 9 5 0
BITMAP
FE
80
80
80
80
80
80
80
80
ENDCHAR
STARTCHAR uni0434
ENCODING 1076
SWIDTH 1000 0
SWIDTH1 1000 0
BBX 10 11 3 -2
BITMAP
1F00
1100
1100
1100
2100
2100
2100
4100
7FC0
8040
8040
ENDCHAR
STARTCHAR uni0435
ENCODING 1077
SWIDTH 1000 0
SWIDTH1 1000 0
BBX 7 9 4 0
BITMAP
38
44
82
82
FE
80
80
42
3C
ENDCHAR
STARTCHAR uni0436
ENCODING 1078
SWIDTH 1000 0
SWIDTH1 1000 0
BBX 11 9 3 0
BITMAP
C460
2480
1500
1500
1F00
1500
1500
2480
C460
ENDCHAR
STARTCHAR uni0437
ENCODING 1079
SWIDTH 1000 0
SWIDTH1 1000 0
BBX 7 9 5 0
BITMAP
38
44
82
04
38
04
82
44
38
ENDCHAR
STARTCHAR uni0438
ENCODING 1080
SWIDTH 1000 0
SWIDTH1 1000 0
BBX 7 9 5 0
BITMAP
82
82
86
8A
92
A2
C2
82
82
ENDCHAR
STARTCHAR uni0439
ENCODING 1081
SWIDTH 1000 0
SWIDTH1 1000 0
BBX 7 12 5 0
BITMAP
CC
78
00
82
82
86
8A
92
A2
C2
82
82
ENDCHAR
STARTCHAR uni043A
ENCODING 1082
SWIDTH 1000 0
SWIDTH1 1000 0
BBX 7 9 5 0
BITMAP
84
88
90
A0
E0
90
88
84
82
ENDCHAR
STARTCHAR uni043B
ENCODING 1083
SWIDTH 1000 0
SWIDTH1 1000 0
BBX 8 9 3 0
BITMAP
3F
21
21
21
21
21
21
21
C1
ENDCHAR
STARTCHAR uni043C
ENCODING 1084
SWIDTH 1000 0
SWIDTH1 1000 0
BBX 9 9 4 0
BITMAP
8080
C180
C180
A280
A280
9480
9480
8880
8880
ENDCHAR
STARTCHAR uni043D
ENCODING 1085
SWIDTH 1000 0
SWIDTH1 1000 0
BBX 8 9 4 0
BITMAP
81
81
81
81
FF
81
81
81
81
ENDCHAR
STARTCHAR uni043E
ENCODING 1086
SWIDTH 1000 0
SWIDTH1 1000 0
BBX 8 9 4 0
BITMAP
3C
42
81
81
81
81
81
42
3C
ENDCHAR
STARTCHAR uni043F
ENCODING 1087
SWIDTH 1000 0
SWIDTH1 1000 0
BBX 8 9 4 0
BITMAP
FF
81
81
81
81
81
81
81
81
ENDCHAR
STARTCHAR uni0440
ENCODING 1088
SWIDTH 1000 0
SWIDTH1 1000 0
BBX 8 11 4 -2
BITMAP
BC
C2
81
81
81
81
81
C2
BC
80
80
ENDCHAR
STARTCHAR uni0441
ENCODING 1089
SWIDTH 1000 0
SWIDTH1 1000 0
BBX 7 9 4 0
BITMAP
3C
42
80
80
80
80
80
42
3C
ENDCHAR
STARTCHAR uni0442
ENCODING 1090
SWIDTH 1000 0
SWIDTH1 1000 0
BBX 9 9 4 0
BITMAP
FF80
0800
0800
0800
0800
0800
0800
0800
0800
ENDCHAR
STARTCHAR uni0443
ENCODING 1091
SWIDTH 1000 0
SWIDTH1 1000 0
BBX 6 11 5 -2
BITMAP
84
84
84
48
48
30
30
20
20
40
80
ENDCHAR
STARTCHAR uni0444
ENCODING 1092
SWIDTH 1000 0
SWIDTH1 1000 0
BBX 11 13 3 -2
BITMAP
0400
0400
3580
4E40
8420
8420
8420
8420
8420
4E40
3580
0400
0400
ENDCHAR
STARTCHAR uni0445
ENCODING 1093
SWIDTH 1000 0
SWIDTH1 1000 0
BBX 6 9 5 0
BITMAP
84
48
48
30
30
48
48
84
84
ENDCHAR
STARTCHAR uni0446
ENCODING 1094
SWIDTH 1000 0
SWIDTH1 1000 0
BBX 8 11 5 -2
BITMAP
84
84
84
84
84
84
84
84
FF
01
01
ENDCHAR
STARTCHAR uni0447
ENCODING 1095
SWIDTH 1000 0
SWIDTH1 1000 0
BBX 7 9 4 0
BITMAP
82
82
82
82
46
3A
02
02
02
ENDCHAR
STARTCHAR uni0448
ENCODING 1096
SWIDTH 1000 0
SWIDTH1 1000 0
BBX 11 9 3 0
BITMAP
8420
8420
8420
8420
8420
8420
8420
8420
FFE0
ENDCHAR
STARTCHAR uni0449
ENCODING 1097
SWIDTH 1000 0
SWIDTH1 1000 0
BBX 12 11 2 -2
BITMAP
8420
8420
8420
8420
8420
8420
8420
8420
FFF0
0010
0010
ENDCHAR
STARTCHAR uni044A
ENCODING 1098
SWIDTH 1000 0
SWIDTH1 1000 0
BBX 9 9 3 0
BITMAP
E000
2000
2000
3E00
2100
2080
2080
2100
3E00
ENDCHAR
STARTCHAR uni044B
ENCODING 1099
SWIDTH 1000 0
SWIDTH1 1000 0
BBX 10 9 3 0
BITMAP
8040
8040
8040
F840
8440
8240
8240
8440
F840
ENDCHAR
STARTCHAR uni044C
ENCODING 1100
SWIDTH 1000 0
SWIDTH1 1000 0
BBX 7 9 5 0
BITMAP
80
80
80
F8
84
82
82
84
F8
ENDCHAR
STARTCHAR uni044D
ENCODING 1101
SWIDTH 1000 0
SWIDTH1 1000 0
BBX 7 9 4 0
BITMAP
78
84
02
02
7E
02
02
84
78
ENDCHAR
STARTCHAR uni044E
ENCODING 1102
SWIDTH 1000 0
SWIDTH1 1000 0
BBX 10 9 3 0
BITMAP
8F00
9080
A040
A040
E040
A040
A040
9080
8F00
ENDCHAR
STARTCHAR uni044F
ENCODING 1103
SWIDTH 1000 0
SWIDTH1 1000 0
BBX 7 9 5 0
BITMAP
7E
82
82
82
7E
42
82
82
82
ENDCHAR
STARTCHAR uni0451
ENCODING 1105
SWIDTH 1000 0
SWIDTH1 1000 0
BBX 7 11 5 0
BITMAP
28
00
38
44
82
82
FE
80
80
42
3C
ENDCHAR
STARTCHAR uni2010
ENCODING 8208
SWIDTH 1000 0
SWIDTH1 1000 0
BBX 4 1 6 6
BITMAP
F0
ENDCHAR
STARTCHAR endash
ENCODING 8211
SWIDTH 1000 0
SWIDTH1 1000 0
BBX 6 1 5 6
BITMAP
FC
ENDCHAR
STARTCHAR emdash
ENCODING 8212
SWIDTH 1000 0
SWIDTH1 1000 0
BBX 16 1 0 6
BITMAP
FFFF
ENDCHAR
STARTCHAR uni2015
ENCODING 8213
SWIDTH 1000 0
SWIDTH1 1000 0
BBX 14 1 1 6
BITMAP
FFFC
ENDCHAR
STARTCHAR uni2016
ENCODING 8214
SWIDTH 1000 0
SWIDTH1 1000 0
BBX 4 16 6 -2
BITMAP
90
90
90
90
90
90
90
90
90
90
90
90
90
90
90
90
ENDCHAR
STARTCHAR quoteleft
ENCODING 8216
SWIDTH 1000 0
SWIDTH1 1000 0
BBX 3 5 11 8
BITMAP
20
40
80
C0
C0
ENDCHAR
STARTCHAR quoteright
ENCODING 8217
SWIDTH 1000 0
SWIDTH1 1000 0
BBX 3 5 2 8
BITMAP
60
60
20
40
80
ENDCHAR
STARTCHAR quotesinglbase
ENCODING 8218
SWIDTH 500 0
DWIDTH 8 0
SWIDTH1 1000 0
BBX 1 1 0 0
BITMAP
00
ENDCHAR
STARTCHAR quotedblleft
ENCODING 8220
SWIDTH 1000 0
SWIDTH1 1000 0
BBX 7 5 8 8
BITMAP
22
44
88
CC
CC
ENDCHAR
STARTCHAR quotedblright
ENCODING 8221
SWIDTH 1000 0
SWIDTH1 1000 0
BBX 7 5 1 8
BITMAP
66
66
22
44
88
ENDCHAR
STARTCHAR quotedblbase
ENCODING 8222
SWIDTH 500 0
DWIDTH 8 0
SWIDTH1 1000 0
BBX 1 1 0 0
BITMAP
00
ENDCHAR
STARTCHAR dagger
ENCODING 8224
SWIDTH 500 0
DWIDTH 8 0
SWIDTH1 1000 0
BBX 7 14 0 -2
BITMAP
10
38
10
54
FE
54
10
38
10
10
10
10
10
10
ENDCHAR
STARTCHAR daggerdbl
ENCODING 8225
SWIDTH 500 0
DWIDTH 8 0
SWIDTH1 1000 0
BBX 5 14 2 -2
BITMAP
20
70
20
F8
20
20
70
70
20
20
F8
20
70
20
ENDCHAR
STARTCHAR bullet
ENCODING 8226
SWIDTH 500 0
DWIDTH 8 0
SWIDTH1 1000 0
BBX 4 4 2 5
BITMAP
60
F0
F0
60
ENDCHAR
STARTCHAR twodotenleader
ENCODING 8229
SWIDTH 1000 0
SWIDTH1 1000 0
BBX 8 2 4 5
BITMAP
C3
C3
ENDCHAR
STARTCHAR ellipsis
ENCODING 8230
SWIDTH 1000 0
SWIDTH1 1000 0
BBX 14 2 2 5
BITMAP
C30C
C30C
ENDCHAR
STARTCHAR perthousand
ENCODING 8240
SWIDTH 1000 0
SWIDTH1 1000 0
BBX 16 14 0 -1
BITMAP
6000
9020
9040
9080
9100
9200
6400
0986
1249
2249
4249
8249
0249
0186
ENDCHAR
STARTCHAR minute
ENCODING 8242
SWIDTH 1000 0
SWIDTH1 1000 0
BBX 2 6 2 7
BITMAP
40
40
40
80
80
80
ENDCHAR
STARTCHAR second
ENCODING 8243
SWIDTH 1000 0
SWIDTH1 1000 0
BBX 5 5 2 8
BITMAP
48
48
48
90
90
ENDCHAR
STARTCHAR uni2035
ENCODING 8245
SWIDTH 1000 0
SWIDTH1 1000 0
BBX 3 4 6 9
BITMAP
C0
40
20
20
ENDCHAR
STARTCHAR guilsinglleft
ENCODING 8249
SWIDTH 500 0
DWIDTH 8 0
SWIDTH1 1000 0
BBX 3 7 1 2
BITMAP
20
40
80
80
80
40
20
ENDCHAR
STARTCHAR guilsinglright
ENCODING 8250
SWIDTH 500 0
DWIDTH 8 0
SWIDTH1 1000 0
BBX 3 7 1 2
BITMAP
80
40
20
20
20
40
80
ENDCHAR
STARTCHAR uni203B
ENCODING 8251
SWIDTH 1000 0
SWIDTH1 1000 0
BBX 12 12 2 0
BITMAP
8610
4620
2040
1080
0900
C630
C630
0900
1080
2040
4620
8610
ENDCHAR
STARTCHAR Euro
ENCODING 8364
SWIDTH 1000 0
SWIDTH1 1000 0
BBX 11 12 3 1
BITMAP
0020
0FA0
1060
2020
2020
FF00
2000
FE00
2000
2020
1040
0F80
ENDCHAR
STARTCHAR uni2103
ENCODING 8451
SWIDTH 1000 0
SWIDTH1 1000 0
BBX 14 14 1 -1
BITMAP
6000
91F4
920C
6404
0804
0800
0800
0800
0800
0800
0804
0408
0210
01E0
ENDCHAR
STARTCHAR uni2105
ENCODING 8453
SWIDTH 1000 0
SWIDTH1 1000 0
BBX 12 14 2 -1
BITMAP
3080
4880
8900
8100
8200
8200
7400
04E0
0510
0A10
0A10
1220
11C0
1000
ENDCHAR
STARTCHAR uni2109
ENCODING 8457
SWIDTH 1000 0
SWIDTH1 1000 0
BBX 14 13 0 0
BITMAP
6FFC
9104
9104
6100
0110
01F0
0110
0110
0100
0100
0100
0100
0780
ENDCHAR
STARTCHAR uni2116
ENCODING 8470
SWIDTH 1000 0
SWIDTH1 1000 0
BBX 14 12 1 0
BITMAP
C380
6100
6100
5118
5124
4924
4924
4524
4524
4318
4100
E13C
ENDCHAR
STARTCHAR uni2121
ENCODING 8481
SWIDTH 1000 0
SWIDTH1 1000 0
BBX 11 5 3 9
BITMAP
EE80
4880
4E80
4880
4EE0
ENDCHAR
STARTCHAR trademark
ENCODING 8482
SWIDTH 500 0
DWIDTH 8 0
SWIDTH1 1000 0
BBX 8 7 0 6
BITMAP
FB
5B
5B
55
55
55
55
ENDCHAR
STARTCHAR uni2160
ENCODING 8544
SWIDTH 1000 0
SWIDTH1 1000 0
BBX 5 13 6 0
BITMAP
F8
20
20
20
20
20
20
20
20
20
20
20
F8
ENDCHAR
STARTCHAR uni2161
ENCODING 8545
SWIDTH 1000 0
SWIDTH1 1000 0
BBX 9 13 4 0
BITMAP
FF80
2200
2200
2200
2200
2200
2200
2200
2200
2200
2200
2200
FF80
ENDCHAR
STARTCHAR uni2162
ENCODING 8546
SWIDTH 1000 0
SWIDTH1 1000 0
BBX 11 13 3 0
BITMAP
FFE0
2480
2480
2480
2480
2480
2480
2480
2480
2480
2480
2480
FFE0
ENDCHAR
STARTCHAR uni2163
ENCODING 8547
SWIDTH 1000 0
SWIDTH1 1000 0
BBX 13 13 2 0
BITMAP
F838
5010
5010
4820
4820
4820
4440
4440
4280
4280
4280
4100
E100
ENDCHAR
STARTCHAR uni2164
ENCODING 8548
SWIDTH 1000 0
SWIDTH1 1000 0
BBX 11 13 3 0
BITMAP
E0E0
4040
4040
2080
2080
2080
1100
1100
0A00
0A00
0A00
0400
0400
ENDCHAR
STARTCHAR uni2165
ENCODING 8549
SWIDTH 1000 0
SWIDTH1 1000 0
BBX 14 13 1 0
BITMAP
E0FC
4048
4048
2088
2088
2088
1108
1108
0A08
0A08
0A08
0408
041C
ENDCHAR
STARTCHAR uni2166
ENCODING 8550
SWIDTH 1000 0
SWIDTH1 1000 0
BBX 14 13 1 0
BITMAP
E3FC
4148
4148
4148
2248
2248
2248
1448
1448
1448
0848
0848
08FC
ENDCHAR
STARTCHAR uni2167
ENCODING 8551
SWIDTH 1000 0
SWIDTH1 1000 0
BBX 14 13 1 0
BITMAP
EFFC
44A8
44A8
44A8
44A8
28A8
28A8
28A8
28A8
10A8
10A8
10A8
11FC
ENDCHAR
STARTCHAR uni2168
ENCODING 8552
SWIDTH 1000 0
SWIDTH1 1000 0
BBX 12 13 2 0
BITMAP
FC70
4820
4440
4440
4280
4280
4100
4280
4280
4440
4440
4820
FC70
ENDCHAR
STARTCHAR uni2169
ENCODING 8553
SWIDTH 1000 0
SWIDTH1 1000 0
BBX 11 13 3 0
BITMAP
E0E0
4040
2080
1100
1100
0A00
0400
0A00
1100
1100
2080
4040
E0E0
ENDCHAR
STARTCHAR uni216A
ENCODING 8554
SWIDTH 1000 0
SWIDTH1 1000 0
BBX 14 14 1 0
BITMAP
E39C
4108
2208
2208
1408
1408
0808
0808
1408
1408
2208
2208
4108
E39C
ENDCHAR
STARTCHAR uni216B
ENCODING 8555
SWIDTH 1000 0
SWIDTH1 1000 0
BBX 15 14 1 0
BITMAP
E3BE
4114
2214
2214
1414
1414
0814
0814
1414
1414
2214
2214
4114
E3BE
ENDCHAR
STARTCHAR uni2170
ENCODING 8560
SWIDTH 1000 0
SWIDTH1 1000 0
BBX 3 13 7 0
BITMAP
40
40
00
00
C0
40
40
40
40
40
40
40
E0
ENDCHAR
STARTCHAR uni2171
ENCODING 8561
SWIDTH 1000 0
SWIDTH1 1000 0
BBX 7 13 5 0
BITMAP
44
44
00
00
CC
44
44
44
44
44
44
44
EE
ENDCHAR
STARTCHAR uni2172
ENCODING 8562
SWIDTH 1000 0
SWIDTH1 1000 0
BBX 9 13 4 0
BITMAP
4900
4900
0000
0000
DB00
4900
4900
4900
4900
4900
4900
4900
FF80
ENDCHAR
STARTCHAR uni2173
ENCODING 8563
SWIDTH 1000 0
SWIDTH1 1000 0
BBX 12 13 3 0
BITMAP
4000
4000
0000
0000
FC70
4820
4820
4440
4440
4280
4280
4100
E100
ENDCHAR
STARTCHAR uni2174
ENCODING 8564
SWIDTH 1000 0
SWIDTH1 1000 0
BBX 9 9 4 0
BITMAP
E380
4100
4100
2200
2200
1400
1400
0800
0800
ENDCHAR
STARTCHAR uni2175
ENCODING 8565
SWIDTH 1000 0
SWIDTH1 1000 0
BBX 12 13 2 0
BITMAP
0020
0020
0000
0000
E3E0
4120
4120
2220
2220
1420
1420
0820
0870
ENDCHAR
STARTCHAR uni2176
ENCODING 8566
SWIDTH 1000 0
SWIDTH1 1000 0
BBX 15 13 1 0
BITMAP
0024
0024
0000
0000
E3EC
4124
4124
2224
2224
1424
1424
0824
087E
ENDCHAR
STARTCHAR uni2177
ENCODING 8567
SWIDTH 1000 0
SWIDTH1 1000 0
BBX 15 13 1 0
BITMAP
0124
0124
0000
0000
EF6C
4524
4524
4524
2924
2924
2924
1124
13FE
ENDCHAR
STARTCHAR uni2178
ENCODING 8568
SWIDTH 1000 0
SWIDTH1 1000 0
BBX 11 13 3 0
BITMAP
4000
4000
0000
0000
DCE0
4840
4480
4480
4300
4480
4480
4840
FCE0
ENDCHAR
STARTCHAR uni2179
ENCODING 8569
SWIDTH 1000 0
SWIDTH1 1000 0
BBX 10 9 3 0
BITMAP
E1C0
4080
2100
1200
0C00
1200
2100
4080
E1C0
ENDCHAR
STARTCHAR arrowleft
ENCODING 8592
SWIDTH 1000 0
SWIDTH1 1000 0
BBX 15 7 1 3
BITMAP
1000
2000
4000
FFFE
4000
2000
1000
ENDCHAR
STARTCHAR arrowup
ENCODING 8593
SWIDTH 1000 0
SWIDTH1 1000 0
BBX 7 15 5 -1
BITMAP
10
38
54
92
10
10
10
10
10
10
10
10
10
10
10
ENDCHAR
STARTCHAR arrowright
ENCODING 8594
SWIDTH 1000 0
SWIDTH1 1000 0
BBX 15 7 1 3
BITMAP
0010
0008
0004
FFFE
0004
0008
0010
ENDCHAR
STARTCHAR arrowdown
ENCODING 8595
SWIDTH 1000 0
SWIDTH1 1000 0
BBX 7 15 5 -1
BITMAP
10
10
10
10
10
10
10
10
10
10
10
92
54
38
10
ENDCHAR
STARTCHAR uni2196
ENCODING 8598
SWIDTH 1000 0
SWIDTH1 1000 0
BBX 11 11 3 1
BITMAP
F800
C000
A000
9000
8800
0400
0200
0100
0080
0040
0020
ENDCHAR
STARTCHAR uni2197
ENCODING 8599
SWIDTH 1000 0
SWIDTH1 1000 0
BBX 11 11 3 1
BITMAP
03E0
0060
00A0
0120
0220
0400
0800
1000
2000
4000
8000
ENDCHAR
STARTCHAR uni2198
ENCODING 8600
SWIDTH 1000 0
SWIDTH1 1000 0
BBX 11 11 3 1
BITMAP
8000
4000
2000
1000
0800
0400
0220
0120
00A0
0060
03E0
ENDCHAR
STARTCHAR uni2199
ENCODING 8601
SWIDTH 1000 0
SWIDTH1 1000 0
BBX 11 11 3 1
BITMAP
0020
0040
0080
0100
0200
0400
8800
9000
A000
C000
F800
ENDCHAR
STARTCHAR element
ENCODING 8712
SWIDTH 1000 0
SWIDTH1 1000 0
BBX 11 9 3 2
BITMAP
1FE0
6000
4000
8000
FFE0
8000
4000
6000
1FE0
ENDCHAR
STARTCHAR product
ENCODING 8719
SWIDTH 1000 0
SWIDTH1 1000 0
BBX 7 13 1 0
BITMAP
FE
82
82
82
82
82
82
82
82
82
82
82
82
ENDCHAR
STARTCHAR summation
ENCODING 8721
SWIDTH 1000 0
SWIDTH1 1000 0
BBX 11 11 3 1
BITMAP
FFE0
4000
2000
1000
0800
0400
0800
1000
2000
4000
FFE0
ENDCHAR
STARTCHAR uni2215
ENCODING 8725
SWIDTH 1000 0
SWIDTH1 1000 0
BBX 7 15 1 -1
BITMAP
02
02
04
04
08
08
10
10
10
20
20
40
40
80
80
ENDCHAR
STARTCHAR radical
ENCODING 8730
SWIDTH 1000 0
SWIDTH1 1000 0
BBX 15 15 1 -1
BITMAP
07FE
0400
0400
0400
0400
0800
0800
0800
0800
2800
6800
B000
1000
1000
1000
ENDCHAR
STARTCHAR proportional
ENCODING 8733
SWIDTH 1000 0
SWIDTH1 1000 0
BBX 14 7 1 3
BITMAP
3838
4444
8280
8100
8280
4444
3838
ENDCHAR
STARTCHAR infinity
ENCODING 8734
SWIDTH 1000 0
SWIDTH1 1000 0
BBX 15 7 1 3
BITMAP
3838
4444
8282
8102
8282
4444
3838
ENDCHAR
STARTCHAR orthogonal
ENCODING 8735
SWIDTH 1000 0
SWIDTH1 1000 0
BBX 11 11 3 1
BITMAP
8000
8000
8000
8000
8000
8000
8000
8000
8000
8000
FFE0
ENDCHAR
STARTCHAR angle
ENCODING 8736
SWIDTH 1000 0
SWIDTH1 1000 0
BBX 11 11 3 1
BITMAP
0020
0040
0080
0100
0200
0400
0800
1000
2000
4000
FFE0
ENDCHAR
STARTCHAR uni2223
ENCODING 8739
SWIDTH 1000 0
SWIDTH1 1000 0
BBX 1 16 8 -2
BITMAP
80
80
80
80
80
80
80
80
80
80
80
80
80
80
80
80
ENDCHAR
STARTCHAR uni2225
ENCODING 8741
SWIDTH 1000 0
SWIDTH1 1000 0
BBX 8 14 4 -1
BITMAP
11
11
11
22
22
22
22
44
44
44
44
88
88
88
ENDCHAR
STARTCHAR logicaland
ENCODING 8743
SWIDTH 1000 0
SWIDTH1 1000 0
BBX 11 13 3 0
BITMAP
0400
0400
0A00
0A00
1100
1100
1100
2080
2080
4040
4040
8020
8020
ENDCHAR
STARTCHAR logicalor
ENCODING 8744
SWIDTH 1000 0
SWIDTH1 1000 0
BBX 11 13 3 0
BITMAP
8020
8020
4040
4040
2080
2080
1100
1100
1100
0A00
0A00
0400
0400
ENDCHAR
STARTCHAR intersection
ENCODING 8745
SWIDTH 1000 0
SWIDTH1 1000 0
BBX 9 11 4 1
BITMAP
1C00
6300
4100
8080
8080
8080
8080
8080
8080
8080
8080
ENDCHAR
STARTCHAR union
ENCODING 8746
SWIDTH 1000 0
SWIDTH1 1000 0
BBX 9 11 4 1
BITMAP
8080
8080
8080
8080
8080
8080
8080
8080
4100
6300
1C00
ENDCHAR
STARTCHAR integral
ENCODING 8747
SWIDTH 1000 0
SWIDTH1 1000 0
BBX 5 15 6 -1
BITMAP
30
48
48
40
40
40
20
20
20
10
10
10
90
90
60
ENDCHAR
STARTCHAR uni222E
ENCODING 8750
SWIDTH 1000 0
SWIDTH1 1000 0
BBX 7 15 5 -1
BITMAP
18
24
24
20
38
54
92
92
92
54
38
08
48
48
30
ENDCHAR
STARTCHAR therefore
ENCODING 8756
SWIDTH 1000 0
SWIDTH1 1000 0
BBX 10 10 3 2
BITMAP
0C00
0C00
0000
0000
0000
0000
0000
0000
C0C0
C0C0
ENDCHAR
STARTCHAR uni2235
ENCODING 8757
SWIDTH 1000 0
SWIDTH1 1000 0
BBX 10 9 3 2
BITMAP
C0C0
C0C0
0000
0000
0000
0000
0000
0C00
0C00
ENDCHAR
STARTCHAR uni2236
ENCODING 8758
SWIDTH 1000 0
SWIDTH1 1000 0
BBX 2 10 7 1
BITMAP
C0
C0
00
00
00
00
00
00
C0
C0
ENDCHAR
STARTCHAR uni2237
ENCODING 8759
SWIDTH 1000 0
SWIDTH1 1000 0
BBX 10 10 3 1
BITMAP
C0C0
C0C0
0000
0000
0000
0000
0000
0000
C0C0
C0C0
ENDCHAR
STARTCHAR uni223D
ENCODING 8765
SWIDTH 1000 0
SWIDTH1 1000 0
BBX 14 6 1 3
BITMAP
2070
4088
8104
8204
4408
3810
ENDCHAR
STARTCHAR approxequal
ENCODING 8776
SWIDTH 1000 0
SWIDTH1 1000 0
BBX 14 8 1 2
BITMAP
3800
4604
8188
0070
3800
4604
8188
0070
ENDCHAR
STARTCHAR uni224C
ENCODING 8780
SWIDTH 1000 0
SWIDTH1 1000 0
BBX 14 11 1 0
BITMAP
2070
4088
8104
8204
4408
3810
0000
FFFC
0000
0000
FFFC
ENDCHAR
STARTCHAR uni2252
ENCODING 8786
SWIDTH 1000 0
SWIDTH1 1000 0
BBX 12 11 2 1
BITMAP
6000
6000
0000
0000
FFF0
0000
FFF0
0000
0000
0060
0060
ENDCHAR
STARTCHAR notequal
ENCODING 8800
SWIDTH 1000 0
SWIDTH1 1000 0
BBX 14 12 1 0
BITMAP
0020
0020
0040
0080
FFFC
0100
0100
0200
FFFC
0400
0800
1000
ENDCHAR
STARTCHAR equivalence
ENCODING 8801
SWIDTH 1000 0
SWIDTH1 1000 0
BBX 14 7 1 2
BITMAP
FFFC
0000
0000
FFFC
0000
0000
FFFC
ENDCHAR
STARTCHAR lessequal
ENCODING 8804
SWIDTH 1000 0
SWIDTH1 1000 0
BBX 14 13 1 -1
BITMAP
000C
0070
0380
1C00
E000
1C00
0380
0070
E00C
1C00
0380
0070
000C
ENDCHAR
STARTCHAR greaterequal
ENCODING 8805
SWIDTH 1000 0
SWIDTH1 1000 0
BBX 14 13 1 -1
BITMAP
C000
3800
0700
00E0
001C
00E0
0700
3800
C01C
00E0
0700
3800
C000
ENDCHAR
STARTCHAR uni2266
ENCODING 8806
SWIDTH 1000 0
SWIDTH1 1000 0
BBX 11 11 2 1
BITMAP
0060
0380
0C00
7000
0F00
00E0
0000
FFE0
0000
0000
FFE0
ENDCHAR
STARTCHAR uni2267
ENCODING 8807
SWIDTH 1000 0
SWIDTH1 1000 0
BBX 12 10 2 1
BITMAP
7800
0700
00E0
0700
F800
0000
0000
FFE0
0000
FFF0
ENDCHAR
STARTCHAR uni226E
ENCODING 8814
SWIDTH 1000 0
SWIDTH1 1000 0
BBX 13 14 1 -1
BITMAP
0200
0200
0218
0260
0380
0E00
3200
C200
3200
0E00
0380
0260
0218
0200
ENDCHAR
STARTCHAR uni226F
ENCODING 8815
SWIDTH 1000 0
SWIDTH1 1000 0
BBX 13 14 2 -1
BITMAP
0200
0200
C200
3200
0E00
0380
0260
0218
0260
0380
0E00
3200
C200
0200
ENDCHAR
STARTCHAR circleplus
ENCODING 8853
SWIDTH 1000 0
SWIDTH1 1000 0
BBX 9 9 4 1
BITMAP
3E00
4900
8880
8880
FF80
8880
8880
4900
3E00
ENDCHAR
STARTCHAR uni2299
ENCODING 8857
SWIDTH 1000 0
SWIDTH1 1000 0
BBX 14 14 1 -1
BITMAP
0FC0
1020
2010
4008
8004
8004
8304
8304
8004
8004
4008
2010
1020
0FC0
ENDCHAR
STARTCHAR perpendicular
ENCODING 8869
SWIDTH 1000 0
SWIDTH1 1000 0
BBX 13 14 1 -1
BITMAP
0200
0200
0200
0200
0200
0200
0200
0200
0200
0200
0200
0200
0200
FFF8
ENDCHAR
STARTCHAR uni22BF
ENCODING 8895
SWIDTH 1000 0
SWIDTH1 1000 0
BBX 12 12 2 0
BITMAP
0010
0030
0050
0090
0110
0210
0410
0810
1010
2010
4010
FFF0
ENDCHAR
STARTCHAR uni2312
ENCODING 8978
SWIDTH 1000 0
SWIDTH1 1000 0
BBX 14 6 1 5
BITMAP
0780
1860
2010
4008
8004
8004
ENDCHAR
STARTCHAR uni2460
ENCODING 9312
SWIDTH 1000 0
SWIDTH1 1000 0
BBX 15 15 1 -1
BITMAP
07C0
1830
2108
4304
4104
8102
8102
8102
8102
8102
4104
4104
2108
1830
07C0
ENDCHAR
STARTCHAR uni2461
ENCODING 9313
SWIDTH 1000 0
SWIDTH1 1000 0
BBX 15 15 1 -1
BITMAP
07C0
1830
2388
4444
4824
8822
8042
8082
8102
8202
4404
4804
2FE8
1830
07C0
ENDCHAR
STARTCHAR uni2462
ENCODING 9314
SWIDTH 1000 0
SWIDTH1 1000 0
BBX 15 15 1 -1
BITMAP
07C0
1830
2388
4444
4824
8022
8042
8382
8042
8022
4824
4444
2388
1830
07C0
ENDCHAR
STARTCHAR uni2463
ENCODING 9315
SWIDTH 1000 0
SWIDTH1 1000 0
BBX 15 15 1 -1
BITMAP
07C0
1830
2188
4284
4284
8482
8482
8882
8882
9082
5FE4
4084
2088
1830
07C0
ENDCHAR
STARTCHAR uni2464
ENCODING 9316
SWIDTH 1000 0
SWIDTH1 1000 0
BBX 15 15 1 -1
BITMAP
07C0
1830
27C8
4404
4404
8582
8642
8422
8022
8022
4424
4244
2188
1830
07C0
ENDCHAR
STARTCHAR uni2465
ENCODING 9317
SWIDTH 1000 0
SWIDTH1 1000 0
BBX 15 15 1 -1
BITMAP
07C0
1830
2388
4444
4824
8802
8B82
8C42
8822
8822
4824
4444
2388
1830
07C0
ENDCHAR
STARTCHAR uni2466
ENCODING 9318
SWIDTH 1000 0
SWIDTH1 1000 0
BBX 15 15 1 -1
BITMAP
07C0
1830
2008
4FE4
4024
8042
8042
8082
8082
8102
4104
4204
2208
1830
07C0
ENDCHAR
STARTCHAR uni2467
ENCODING 9319
SWIDTH 1000 0
SWIDTH1 1000 0
BBX 15 15 1 -1
BITMAP
07C0
1830
2388
4444
4824
8822
8442
8382
8442
8822
4824
4444
2388
1830
07C0
ENDCHAR
STARTCHAR uni2468
ENCODING 9320
SWIDTH 1000 0
SWIDTH1 1000 0
BBX 15 15 1 -1
BITMAP
07C0
1830
2388
4444
4824
8822
8822
8462
83A2
8022
4824
4444
2388
1830
07C0
ENDCHAR
STARTCHAR uni2469
ENCODING 9321
SWIDTH 1000 0
SWIDTH1 1000 0
BBX 15 15 1 -1
BITMAP
07C0
1830
2008
58E4
4914
8912
8912
8912
8912
8912
4914
48E4
2008
1830
07C0
ENDCHAR
STARTCHAR uni2474
ENCODING 9332
SWIDTH 1000 0
SWIDTH1 1000 0
BBX 16 14 0 -1
BITMAP
1008
2084
4182
4082
8081
8081
8081
8081
8081
8081
4082
41C2
2004
1008
ENDCHAR
STARTCHAR uni2475
ENCODING 9333
SWIDTH 1000 0
SWIDTH1 1000 0
BBX 16 14 0 -1
BITMAP
1008
23C4
4422
4422
8021
8021
8041
8081
8101
8201
4422
47E2
2004
1008
ENDCHAR
STARTCHAR uni2476
ENCODING 9334
SWIDTH 1000 0
SWIDTH1 1000 0
BBX 16 14 0 -1
BITMAP
1008
23C4
4422
4422
8021
8041
8381
8041
8021
8421
4422
43C2
2004
1008
ENDCHAR
STARTCHAR uni2477
ENCODING 9335
SWIDTH 1000 0
SWIDTH1 1000 0
BBX 16 14 0 -1
BITMAP
1008
2044
4042
40C2
8141
8141
8241
8241
8441
87E1
4042
40E2
2004
1008
ENDCHAR
STARTCHAR uni2478
ENCODING 9336
SWIDTH 1000 0
SWIDTH1 1000 0
BBX 16 14 0 -1
BITMAP
1008
27E4
4402
4402
8401
85C1
8621
8021
8021
8421
4422
43C2
2004
1008
ENDCHAR
STARTCHAR uni2479
ENCODING 9337
SWIDTH 1000 0
SWIDTH1 1000 0
BBX 16 14 0 -1
BITMAP
1008
21C4
4222
4422
8401
85C1
8621
8421
8421
8421
4422
43C2
2004
1008
ENDCHAR
STARTCHAR uni247A
ENCODING 9338
SWIDTH 1000 0
SWIDTH1 1000 0
BBX 16 14 0 -1
BITMAP
1008
27E4
4422
4442
8041
8081
8081
8081
8101
8101
4102
4102
2004
1008
ENDCHAR
STARTCHAR uni247B
ENCODING 9339
SWIDTH 1000 0
SWIDTH1 1000 0
BBX 16 14 0 -1
BITMAP
1008
23C4
4422
4422
8421
8241
8181
8241
8421
8421
4422
43C2
2004
1008
ENDCHAR
STARTCHAR uni247C
ENCODING 9340
SWIDTH 1000 0
SWIDTH1 1000 0
BBX 16 14 0 -1
BITMAP
1008
23C4
4422
4422
8421
8421
8461
83A1
8021
8421
4422
43C2
2004
1008
ENDCHAR
STARTCHAR uni247D
ENCODING 9341
SWIDTH 1000 0
SWIDTH1 1000 0
BBX 16 14 0 -1
BITMAP
1008
2C74
448A
448A
8489
8489
8489
8489
8489
8489
448A
4E72
2004
1008
ENDCHAR
STARTCHAR uni247E
ENCODING 9342
SWIDTH 1000 0
SWIDTH1 1000 0
BBX 16 14 0 -1
BITMAP
1008
2C64
4422
4422
8421
8421
8421
8421
8421
8421
4422
4E72
2004
1008
ENDCHAR
STARTCHAR uni247F
ENCODING 9343
SWIDTH 1000 0
SWIDTH1 1000 0
BBX 16 14 0 -1
BITMAP
1008
2C74
448A
448A
8409
8409
8411
8421
8441
8481
448A
4EFA
2004
1008
ENDCHAR
STARTCHAR uni2480
ENCODING 9344
SWIDTH 1000 0
SWIDTH1 1000 0
BBX 16 14 0 -1
BITMAP
1008
2C74
448A
448A
8409
8411
8461
8411
8409
8489
448A
4E72
2004
1008
ENDCHAR
STARTCHAR uni2481
ENCODING 9345
SWIDTH 1000 0
SWIDTH1 1000 0
BBX 16 14 0 -1
BITMAP
1008
2C14
4412
4432
8451
8451
8451
8491
8491
84F9
4412
4E3A
2004
1008
ENDCHAR
STARTCHAR uni2482
ENCODING 9346
SWIDTH 1000 0
SWIDTH1 1000 0
BBX 16 14 0 -1
BITMAP
1008
2CF4
4482
4482
8481
84F1
8489
8409
8409
8409
448A
4E72
2004
1008
ENDCHAR
STARTCHAR uni2483
ENCODING 9347
SWIDTH 1000 0
SWIDTH1 1000 0
BBX 16 14 0 -1
BITMAP
1008
2C74
448A
448A
8481
84B1
84C9
8489
8489
8489
448A
4E72
2004
1008
ENDCHAR
STARTCHAR uni2484
ENCODING 9348
SWIDTH 1000 0
SWIDTH1 1000 0
BBX 16 14 0 -1
BITMAP
1008
2CF4
4492
4412
8421
8421
8421
8441
8441
8441
4442
4442
2E44
1008
ENDCHAR
STARTCHAR uni2485
ENCODING 9349
SWIDTH 1000 0
SWIDTH1 1000 0
BBX 16 14 0 -1
BITMAP
1008
2C74
448A
448A
8489
8489
8471
8489
8489
8489
448A
4E72
2004
1008
ENDCHAR
STARTCHAR uni2486
ENCODING 9350
SWIDTH 1000 0
SWIDTH1 1000 0
BBX 16 14 0 -1
BITMAP
1008
2C74
448A
448A
8489
8489
8499
8469
8409
8409
448A
4E72
2004
1008
ENDCHAR
STARTCHAR uni2487
ENCODING 9351
SWIDTH 1000 0
SWIDTH1 1000 0
BBX 16 14 0 -1
BITMAP
1008
2C64
5292
5292
8291
8291
8491
8891
9091
9291
5292
5E62
2004
1008
ENDCHAR
STARTCHAR uni2488
ENCODING 9352
SWIDTH 1000 0
SWIDTH1 1000 0
BBX 8 12 6 3
BITMAP
20
60
A0
20
20
20
20
20
20
20
23
23
ENDCHAR
STARTCHAR uni2489
ENCODING 9353
SWIDTH 1000 0
SWIDTH1 1000 0
BBX 10 12 4 3
BITMAP
7800
8400
0400
0400
0400
0800
1000
2000
4000
8000
80C0
FCC0
ENDCHAR
STARTCHAR uni248A
ENCODING 9354
SWIDTH 1000 0
SWIDTH1 1000 0
BBX 10 12 4 3
BITMAP
FC00
0400
0800
1000
3000
0800
0400
0400
0400
0400
88C0
70C0
ENDCHAR
STARTCHAR uni248B
ENCODING 9355
SWIDTH 1000 0
SWIDTH1 1000 0
BBX 10 12 4 3
BITMAP
1000
1000
2000
2000
4800
4800
8800
8800
FE00
0800
08C0
08C0
ENDCHAR
STARTCHAR uni248C
ENCODING 9356
SWIDTH 1000 0
SWIDTH1 1000 0
BBX 10 12 4 3
BITMAP
FC00
8000
8000
8000
F000
0800
0400
0400
0400
0400
88C0
70C0
ENDCHAR
STARTCHAR uni248D
ENCODING 9357
SWIDTH 1000 0
SWIDTH1 1000 0
BBX 10 12 4 3
BITMAP
1000
2000
4000
4000
8000
B800
C400
8400
8400
8400
84C0
78C0
ENDCHAR
STARTCHAR uni248E
ENCODING 9358
SWIDTH 1000 0
SWIDTH1 1000 0
BBX 10 12 4 3
BITMAP
FE00
0200
0400
0400
0800
0800
1000
1000
1000
1000
10C0
10C0
ENDCHAR
STARTCHAR uni248F
ENCODING 9359
SWIDTH 1000 0
SWIDTH1 1000 0
BBX 10 12 4 3
BITMAP
7800
8400
8400
8400
4800
3000
4800
8400
8400
8400
84C0
78C0
ENDCHAR
STARTCHAR uni2490
ENCODING 9360
SWIDTH 1000 0
SWIDTH1 1000 0
BBX 10 12 4 3
BITMAP
7800
8400
8400
8400
8400
8C00
7400
0400
0800
0800
10C0
20C0
ENDCHAR
STARTCHAR uni2491
ENCODING 9361
SWIDTH 1000 0
SWIDTH1 1000 0
BBX 14 12 1 3
BITMAP
23C0
6420
A420
2420
2420
2420
2420
2420
2420
2420
242C
23CC
ENDCHAR
STARTCHAR uni2492
ENCODING 9362
SWIDTH 1000 0
SWIDTH1 1000 0
BBX 14 12 1 3
BITMAP
2080
6180
A280
2080
2080
2080
2080
2080
2080
2080
208C
208C
ENDCHAR
STARTCHAR uni2493
ENCODING 9363
SWIDTH 1000 0
SWIDTH1 1000 0
BBX 14 12 1 3
BITMAP
23C0
6420
A020
2020
2020
2040
2080
2100
2200
2400
240C
27EC
ENDCHAR
STARTCHAR uni2494
ENCODING 9364
SWIDTH 1000 0
SWIDTH1 1000 0
BBX 14 12 1 3
BITMAP
27E0
6020
A040
2080
2180
2040
2020
2020
2020
2020
244C
238C
ENDCHAR
STARTCHAR uni2495
ENCODING 9365
SWIDTH 1000 0
SWIDTH1 1000 0
BBX 14 12 1 3
BITMAP
2080
6080
A100
2100
2240
2240
2440
2440
27F0
2040
204C
204C
ENDCHAR
STARTCHAR uni2496
ENCODING 9366
SWIDTH 1000 0
SWIDTH1 1000 0
BBX 14 12 1 3
BITMAP
27E0
6400
A400
2400
2780
2040
2020
2020
2020
2020
244C
238C
ENDCHAR
STARTCHAR uni2497
ENCODING 9367
SWIDTH 1000 0
SWIDTH1 1000 0
BBX 14 12 1 3
BITMAP
2080
6100
A200
2200
2400
25C0
2620
2420
2420
2420
242C
23CC
ENDCHAR
STARTCHAR uni2498
ENCODING 9368
SWIDTH 1000 0
SWIDTH1 1000 0
BBX 14 12 1 3
BITMAP
27F0
6010
A020
2020
2040
2040
2080
2080
2080
2080
208C
208C
ENDCHAR
STARTCHAR uni2499
ENCODING 9369
SWIDTH 1000 0
SWIDTH1 1000 0
BBX 14 12 1 3
BITMAP
23C0
6420
A420
2420
2240
2180
2240
2420
2420
2420
242C
23CC
ENDCHAR
STARTCHAR uni249A
ENCODING 9370
SWIDTH 1000 0
SWIDTH1 1000 0
BBX 14 12 1 3
BITMAP
23C0
6420
A420
2420
2420
2460
23A0
2020
2040
2040
208C
210C
ENDCHAR
STARTCHAR uni249B
ENCODING 9371
SWIDTH 1000 0
SWIDTH1 1000 0
BBX 14 12 2 3
BITMAP
71C0
8A20
0A20
0A20
0A20
1220
2220
4220
4220
8220
822C
F9CC
ENDCHAR
STARTCHAR SF100000
ENCODING 9472
SWIDTH 1000 0
SWIDTH1 1000 0
BBX 16 1 1 6
BITMAP
FFFF
ENDCHAR
STARTCHAR uni2501
ENCODING 9473
SWIDTH 1000 0
SWIDTH1 1000 0
BBX 16 2 1 6
BITMAP
FFFF
FFFF
ENDCHAR
STARTCHAR SF110000
ENCODING 9474
SWIDTH 1000 0
SWIDTH1 1000 0
BBX 1 16 8 -2
BITMAP
80
80
80
80
80
80
80
80
80
80
80
80
80
80
80
80
ENDCHAR
STARTCHAR uni2503
ENCODING 9475
SWIDTH 1000 0
SWIDTH1 1000 0
BBX 2 16 7 -2
BITMAP
C0
C0
C0
C0
C0
C0
C0
C0
C0
C0
C0
C0
C0
C0
C0
C0
ENDCHAR
STARTCHAR uni2504
ENCODING 9476
SWIDTH 1000 0
SWIDTH1 1000 0
BBX 17 1 0 6
BITMAP
F9E780
ENDCHAR
STARTCHAR uni2505
ENCODING 9477
SWIDTH 1000 0
SWIDTH1 1000 0
BBX 17 2 0 5
BITMAP
F9E780
F9E780
ENDCHAR
STARTCHAR uni2506
ENCODING 9478
SWIDTH 1000 0
SWIDTH1 1000 0
BBX 1 17 8 -2
BITMAP
80
80
80
80
80
00
00
80
80
80
80
00
00
80
80
80
80
ENDCHAR
STARTCHAR uni2507
ENCODING 9479
SWIDTH 1000 0
SWIDTH1 1000 0
BBX 2 17 8 -2
BITMAP
C0
C0
C0
C0
C0
00
00
C0
C0
C0
C0
00
00
C0
C0
C0
C0
ENDCHAR
STARTCHAR uni2508
ENCODING 9480
SWIDTH 1000 0
SWIDTH1 1000 0
BBX 17 1 0 6
BITMAP
E73980
ENDCHAR
STARTCHAR uni2509
ENCODING 9481
SWIDTH 1000 0
SWIDTH1 1000 0
BBX 17 2 0 5
BITMAP
E73980
E73980
ENDCHAR
STARTCHAR uni250A
ENCODING 9482
SWIDTH 1000 0
SWIDTH1 1000 0
BBX 1 17 8 -2
BITMAP
80
80
80
80
00
00
80
80
00
00
80
80
00
00
80
80
80
ENDCHAR
STARTCHAR uni250B
ENCODING 9483
SWIDTH 1000 0
SWIDTH1 1000 0
BBX 2 17 8 -2
BITMAP
C0
C0
C0
C0
00
00
C0
C0
00
00
C0
C0
00
00
C0
C0
C0
ENDCHAR
STARTCHAR SF010000
ENCODING 9484
SWIDTH 1000 0
SWIDTH1 1000 0
BBX 9 9 8 -2
BITMAP
FF80
8000
8000
8000
8000
8000
8000
8000
8000
ENDCHAR
STARTCHAR uni250D
ENCODING 9485
SWIDTH 1000 0
SWIDTH1 1000 0
BBX 9 9 8 -2
BITMAP
FF80
FF80
8000
8000
8000
8000
8000
8000
8000
ENDCHAR
STARTCHAR uni250E
ENCODING 9486
SWIDTH 1000 0
SWIDTH1 1000 0
BBX 9 9 8 -2
BITMAP
FF80
C000
C000
C000
C000
C000
C000
C000
C000
ENDCHAR
STARTCHAR uni250F
ENCODING 9487
SWIDTH 1000 0
SWIDTH1 1000 0
BBX 10 10 7 -2
BITMAP
FFC0
FFC0
C000
C000
C000
C000
C000
C000
C000
C000
ENDCHAR
STARTCHAR SF030000
ENCODING 9488
SWIDTH 1000 0
SWIDTH1 1000 0
BBX 8 9 1 -2
BITMAP
FF
01
01
01
01
01
01
01
01
ENDCHAR
STARTCHAR uni2511
ENCODING 9489
SWIDTH 1000 0
SWIDTH1 1000 0
BBX 9 9 0 -2
BITMAP
FF80
FF80
0080
0080
0080
0080
0080
0080
0080
ENDCHAR
STARTCHAR uni2512
ENCODING 9490
SWIDTH 1000 0
SWIDTH1 1000 0
BBX 10 9 0 -2
BITMAP
FFC0
00C0
00C0
00C0
00C0
00C0
00C0
00C0
00C0
ENDCHAR
STARTCHAR uni2513
ENCODING 9491
SWIDTH 1000 0
SWIDTH1 1000 0
BBX 8 10 1 -2
BITMAP
FF
FF
03
03
03
03
03
03
03
03
ENDCHAR
STARTCHAR SF020000
ENCODING 9492
SWIDTH 1000 0
SWIDTH1 1000 0
BBX 9 8 8 6
BITMAP
8000
8000
8000
8000
8000
8000
8000
FF80
ENDCHAR
STARTCHAR uni2515
ENCODING 9493
SWIDTH 1000 0
SWIDTH1 1000 0
BBX 9 10 8 5
BITMAP
8000
8000
8000
8000
8000
8000
8000
8000
FF80
FF80
ENDCHAR
STARTCHAR uni2516
ENCODING 9494
SWIDTH 1000 0
SWIDTH1 1000 0
BBX 9 9 8 6
BITMAP
C000
C000
C000
C000
C000
C000
C000
C000
FF80
ENDCHAR
STARTCHAR uni2517
ENCODING 9495
SWIDTH 1000 0
SWIDTH1 1000 0
BBX 10 8 7 6
BITMAP
C000
C000
C000
C000
C000
C000
FFC0
FFC0
ENDCHAR
STARTCHAR SF040000
ENCODING 9496
SWIDTH 1000 0
SWIDTH1 1000 0
BBX 8 8 1 6
BITMAP
01
01
01
01
01
01
01
FF
ENDCHAR
STARTCHAR uni2519
ENCODING 9497
SWIDTH 1000 0
SWIDTH1 1000 0
BBX 9 10 0 5
BITMAP
0080
0080
0080
0080
0080
0080
0080
0080
FF80
FF80
ENDCHAR
STARTCHAR uni251A
ENCODING 9498
SWIDTH 1000 0
SWIDTH1 1000 0
BBX 10 9 0 6
BITMAP
00C0
00C0
00C0
00C0
00C0
00C0
00C0
00C0
FFC0
ENDCHAR
STARTCHAR uni251B
ENCODING 9499
SWIDTH 1000 0
SWIDTH1 1000 0
BBX 8 8 1 6
BITMAP
03
03
03
03
03
03
FF
FF
ENDCHAR
STARTCHAR SF080000
ENCODING 9500
SWIDTH 1000 0
SWIDTH1 1000 0
BBX 9 16 8 -2
BITMAP
8000
8000
8000
8000
8000
8000
8000
FF80
8000
8000
8000
8000
8000
8000
8000
8000
ENDCHAR
STARTCHAR uni251D
ENCODING 9501
SWIDTH 1000 0
SWIDTH1 1000 0
BBX 9 16 8 -2
BITMAP
8000
8000
8000
8000
8000
8000
FF80
FF80
8000
8000
8000
8000
8000
8000
8000
8000
ENDCHAR
STARTCHAR uni251E
ENCODING 9502
SWIDTH 1000 0
SWIDTH1 1000 0
BBX 9 17 8 -2
BITMAP
C000
C000
C000
C000
C000
C000
C000
C000
FF80
8000
8000
8000
8000
8000
8000
8000
8000
ENDCHAR
STARTCHAR uni251F
ENCODING 9503
SWIDTH 1000 0
SWIDTH1 1000 0
BBX 9 17 8 -2
BITMAP
8000
8000
8000
8000
8000
8000
8000
8000
FF80
C000
C000
C000
C000
C000
C000
C000
C000
ENDCHAR
STARTCHAR uni2520
ENCODING 9504
SWIDTH 1000 0
SWIDTH1 1000 0
BBX 10 16 7 -2
BITMAP
C000
C000
C000
C000
C000
C000
C000
FFC0
C000
C000
C000
C000
C000
C000
C000
C000
ENDCHAR
STARTCHAR uni2521
ENCODING 9505
SWIDTH 1000 0
SWIDTH1 1000 0
BBX 9 17 8 -2
BITMAP
C000
C000
C000
C000
C000
C000
C000
C000
FF80
FF80
8000
8000
8000
8000
8000
8000
8000
ENDCHAR
STARTCHAR uni2522
ENCODING 9506
SWIDTH 1000 0
SWIDTH1 1000 0
BBX 9 17 8 -2
BITMAP
8000
8000
8000
8000
8000
8000
8000
8000
FF80
FF80
C000
C000
C000
C000
C000
C000
C000
ENDCHAR
STARTCHAR uni2523
ENCODING 9507
SWIDTH 1000 0
SWIDTH1 1000 0
BBX 10 16 7 -2
BITMAP
C000
C000
C000
C000
C000
C000
FFC0
FFC0
C000
C000
C000
C000
C000
C000
C000
C000
ENDCHAR
STARTCHAR SF090000
ENCODING 9508
SWIDTH 1000 0
SWIDTH1 1000 0
BBX 8 16 1 -2
BITMAP
01
01
01
01
01
01
01
FF
01
01
01
01
01
01
01
01
ENDCHAR
STARTCHAR uni2525
ENCODING 9509
SWIDTH 1000 0
SWIDTH1 1000 0
BBX 8 16 1 -2
BITMAP
01
01
01
01
01
01
FF
FF
01
01
01
01
01
01
01
01
ENDCHAR
STARTCHAR uni2526
ENCODING 9510
SWIDTH 1000 0
SWIDTH1 1000 0
BBX 10 17 0 -2
BITMAP
00C0
00C0
00C0
00C0
00C0
00C0
00C0
00C0
FFC0
0080
0080
0080
0080
0080
0080
0080
0080
ENDCHAR
STARTCHAR uni2527
ENCODING 9511
SWIDTH 1000 0
SWIDTH1 1000 0
BBX 10 17 0 -2
BITMAP
0080
0080
0080
0080
0080
0080
0080
0080
FFC0
00C0
00C0
00C0
00C0
00C0
00C0
00C0
00C0
ENDCHAR
STARTCHAR uni2528
ENCODING 9512
SWIDTH 1000 0
SWIDTH1 1000 0
BBX 8 16 1 -2
BITMAP
03
03
03
03
03
03
03
FF
03
03
03
03
03
03
03
03
ENDCHAR
STARTCHAR uni2529
ENCODING 9513
SWIDTH 1000 0
SWIDTH1 1000 0
BBX 10 17 0 -2
BITMAP
00C0
00C0
00C0
00C0
00C0
00C0
00C0
00C0
FFC0
FFC0
0080
0080
0080
0080
0080
0080
0080
ENDCHAR
STARTCHAR uni252A
ENCODING 9514
SWIDTH 1000 0
SWIDTH1 1000 0
BBX 10 17 0 -2
BITMAP
0080
0080
0080
0080
0080
0080
0080
0080
FFC0
FFC0
00C0
00C0
00C0
00C0
00C0
00C0
00C0
ENDCHAR
STARTCHAR uni252B
ENCODING 9515
SWIDTH 1000 0
SWIDTH1 1000 0
BBX 8 16 1 -2
BITMAP
03
03
03
03
03
03
FF
FF
03
03
03
03
03
03
03
03
ENDCHAR
STARTCHAR SF060000
ENCODING 9516
SWIDTH 1000 0
SWIDTH1 1000 0
BBX 16 9 1 -2
BITMAP
FFFF
0100
0100
0100
0100
0100
0100
0100
0100
ENDCHAR
STARTCHAR uni252D
ENCODING 9517
SWIDTH 1000 0
SWIDTH1 1000 0
BBX 17 9 0 -2
BITMAP
FFFF80
FF8000
008000
008000
008000
008000
008000
008000
008000
ENDCHAR
STARTCHAR uni252E
ENCODING 9518
SWIDTH 1000 0
SWIDTH1 1000 0
BBX 17 9 0 -2
BITMAP
FFFF80
00FF80
008000
008000
008000
008000
008000
008000
008000
ENDCHAR
STARTCHAR uni252F
ENCODING 9519
SWIDTH 1000 0
SWIDTH1 1000 0
BBX 16 10 1 -2
BITMAP
FFFF
FFFF
0100
0100
0100
0100
0100
0100
0100
0100
ENDCHAR
STARTCHAR uni2530
ENCODING 9520
SWIDTH 1000 0
SWIDTH1 1000 0
BBX 16 9 1 -2
BITMAP
FFFF
0300
0300
0300
0300
0300
0300
0300
0300
ENDCHAR
STARTCHAR uni2531
ENCODING 9521
SWIDTH 1000 0
SWIDTH1 1000 0
BBX 17 9 0 -2
BITMAP
FFFF80
FFC000
00C000
00C000
00C000
00C000
00C000
00C000
00C000
ENDCHAR
STARTCHAR uni2532
ENCODING 9522
SWIDTH 1000 0
SWIDTH1 1000 0
BBX 17 9 0 -2
BITMAP
FFFF80
00FF80
00C000
00C000
00C000
00C000
00C000
00C000
00C000
ENDCHAR
STARTCHAR uni2533
ENCODING 9523
SWIDTH 1000 0
SWIDTH1 1000 0
BBX 16 10 1 -2
BITMAP
FFFF
FFFF
0300
0300
0300
0300
0300
0300
0300
0300
ENDCHAR
STARTCHAR SF070000
ENCODING 9524
SWIDTH 1000 0
SWIDTH1 1000 0
BBX 16 8 1 6
BITMAP
0100
0100
0100
0100
0100
0100
0100
FFFF
ENDCHAR
STARTCHAR uni2535
ENCODING 9525
SWIDTH 1000 0
SWIDTH1 1000 0
BBX 17 10 0 5
BITMAP
008000
008000
008000
008000
008000
008000
008000
008000
FFFF80
FF8000
ENDCHAR
STARTCHAR uni2536
ENCODING 9526
SWIDTH 1000 0
SWIDTH1 1000 0
BBX 17 10 0 5
BITMAP
008000
008000
008000
008000
008000
008000
008000
008000
FFFF80
00FF80
ENDCHAR
STARTCHAR uni2537
ENCODING 9527
SWIDTH 1000 0
SWIDTH1 1000 0
BBX 16 8 1 6
BITMAP
0100
0100
0100
0100
0100
0100
FFFF
FFFF
ENDCHAR
STARTCHAR uni2538
ENCODING 9528
SWIDTH 1000 0
SWIDTH1 1000 0
BBX 16 8 1 6
BITMAP
0300
0300
0300
0300
0300
0300
0300
FFFF
ENDCHAR
STARTCHAR uni2539
ENCODING 9529
SWIDTH 1000 0
SWIDTH1 1000 0
BBX 17 10 0 5
BITMAP
00C000
00C000
00C000
00C000
00C000
00C000
00C000
00C000
FFFF80
FFC000
ENDCHAR
STARTCHAR uni253A
ENCODING 9530
SWIDTH 1000 0
SWIDTH1 1000 0
BBX 17 10 0 5
BITMAP
00C000
00C000
00C000
00C000
00C000
00C000
00C000
00C000
FFFF80
00FF80
ENDCHAR
STARTCHAR uni253B
ENCODING 9531
SWIDTH 1000 0
SWIDTH1 1000 0
BBX 16 8 1 6
BITMAP
0300
0300
0300
0300
0300
0300
FFFF
FFFF
ENDCHAR
STARTCHAR SF050000
ENCODING 9532
SWIDTH 1000 0
SWIDTH1 1000 0
BBX 16 16 1 -2
BITMAP
0100
0100
0100
0100
0100
0100
0100
FFFF
0100
0100
0100
0100
0100
0100
0100
0100
ENDCHAR
STARTCHAR uni253D
ENCODING 9533
SWIDTH 1000 0
SWIDTH1 1000 0
BBX 17 17 0 -2
BITMAP
008000
008000
008000
008000
008000
008000
008000
008000
FFFF80
FF8000
008000
008000
008000
008000
008000
008000
008000
ENDCHAR
STARTCHAR uni253E
ENCODING 9534
SWIDTH 1000 0
SWIDTH1 1000 0
BBX 17 17 0 -2
BITMAP
008000
008000
008000
008000
008000
008000
008000
008000
FFFF80
00FF80
008000
008000
008000
008000
008000
008000
008000
ENDCHAR
STARTCHAR uni253F
ENCODING 9535
SWIDTH 1000 0
SWIDTH1 1000 0
BBX 16 16 1 -2
BITMAP
0100
0100
0100
0100
0100
0100
FFFF
FFFF
0100
0100
0100
0100
0100
0100
0100
0100
ENDCHAR
STARTCHAR uni2540
ENCODING 9536
SWIDTH 1000 0
SWIDTH1 1000 0
BBX 17 17 0 -2
BITMAP
00C000
00C000
00C000
00C000
00C000
00C000
00C000
00C000
FFFF80
008000
008000
008000
008000
008000
008000
008000
008000
ENDCHAR
STARTCHAR uni2541
ENCODING 9537
SWIDTH 1000 0
SWIDTH1 1000 0
BBX 17 17 0 -2
BITMAP
008000
008000
008000
008000
008000
008000
008000
008000
FFFF80
00C000
00C000
00C000
00C000
00C000
00C000
00C000
00C000
ENDCHAR
STARTCHAR uni2542
ENCODING 9538
SWIDTH 1000 0
SWIDTH1 1000 0
BBX 16 16 1 -2
BITMAP
0300
0300
0300
0300
0300
0300
0300
FFFF
0300
0300
0300
0300
0300
0300
0300
0300
ENDCHAR
STARTCHAR uni2543
ENCODING 9539
SWIDTH 1000 0
SWIDTH1 1000 0
BBX 17 17 0 -2
BITMAP
00C000
00C000
00C000
00C000
00C000
00C000
00C000
00C000
FFFF80
FFC000
008000
008000
008000
008000
008000
008000
008000
ENDCHAR
STARTCHAR uni2544
ENCODING 9540
SWIDTH 1000 0
SWIDTH1 1000 0
BBX 17 17 0 -2
BITMAP
00C000
00C000
00C000
00C000
00C000
00C000
00C000
00C000
FFFF80
00FF80
008000
008000
008000
008000
008000
008000
008000
ENDCHAR
STARTCHAR uni2545
ENCODING 9541
SWIDTH 1000 0
SWIDTH1 1000 0
BBX 17 17 0 -2
BITMAP
008000
008000
008000
008000
008000
008000
008000
008000
FFFF80
FFC000
00C000
00C000
00C000
00C000
00C000
00C000
00C000
ENDCHAR
STARTCHAR uni2546
ENCODING 9542
SWIDTH 1000 0
SWIDTH1 1000 0
BBX 17 17 0 -2
BITMAP
008000
008000
008000
008000
008000
008000
008000
008000
FFFF80
00FF80
00C000
00C000
00C000
00C000
00C000
00C000
00C000
ENDCHAR
STARTCHAR uni2547
ENCODING 9543
SWIDTH 1000 0
SWIDTH1 1000 0
BBX 17 17 0 -2
BITMAP
00C000
00C000
00C000
00C000
00C000
00C000
00C000
00C000
FFFF80
FFFF80
008000
008000
008000
008000
008000
008000
008000
ENDCHAR
STARTCHAR uni2548
ENCODING 9544
SWIDTH 1000 0
SWIDTH1 1000 0
BBX 17 17 0 -2
BITMAP
008000
008000
008000
008000
008000
008000
008000
008000
FFFF80
FFFF80
00C000
00C000
00C000
00C000
00C000
00C000
00C000
ENDCHAR
STARTCHAR uni2549
ENCODING 9545
SWIDTH 1000 0
SWIDTH1 1000 0
BBX 17 17 0 -2
BITMAP
00C000
00C000
00C000
00C000
00C000
00C000
00C000
00C000
FFFF80
FFC000
00C000
00C000
00C000
00C000
00C000
00C000
00C000
ENDCHAR
STARTCHAR uni254A
ENCODING 9546
SWIDTH 1000 0
SWIDTH1 1000 0
BBX 17 17 0 -2
BITMAP
00C000
00C000
00C000
00C000
00C000
00C000
00C000
00C000
FFFF80
00FF80
00C000
00C000
00C000
00C000
00C000
00C000
00C000
ENDCHAR
STARTCHAR uni254B
ENCODING 9547
SWIDTH 1000 0
SWIDTH1 1000 0
BBX 16 16 1 -2
BITMAP
0300
0300
0300
0300
0300
0300
FFFF
FFFF
0300
0300
0300
0300
0300
0300
0300
0300
ENDCHAR
STARTCHAR SF430000
ENCODING 9552
SWIDTH 1000 0
SWIDTH1 1000 0
BBX 17 3 0 5
BITMAP
FFFF80
000000
FFFF80
ENDCHAR
STARTCHAR SF240000
ENCODING 9553
SWIDTH 1000 0
SWIDTH1 1000 0
BBX 3 17 7 -2
BITMAP
A0
A0
A0
A0
A0
A0
A0
A0
A0
A0
A0
A0
A0
A0
A0
A0
A0
ENDCHAR
STARTCHAR SF510000
ENCODING 9554
SWIDTH 1000 0
SWIDTH1 1000 0
BBX 9 10 8 -2
BITMAP
FF80
8000
FF80
8000
8000
8000
8000
8000
8000
8000
ENDCHAR
STARTCHAR SF520000
ENCODING 9555
SWIDTH 1000 0
SWIDTH1 1000 0
BBX 10 9 7 -2
BITMAP
FFC0
A000
A000
A000
A000
A000
A000
A000
A000
ENDCHAR
STARTCHAR SF390000
ENCODING 9556
SWIDTH 1000 0
SWIDTH1 1000 0
BBX 10 10 7 -2
BITMAP
FFC0
8000
BFC0
A000
A000
A000
A000
A000
A000
A000
ENDCHAR
STARTCHAR SF220000
ENCODING 9557
SWIDTH 1000 0
SWIDTH1 1000 0
BBX 9 10 0 -2
BITMAP
FF80
0080
FF80
0080
0080
0080
0080
0080
0080
0080
ENDCHAR
STARTCHAR SF210000
ENCODING 9558
SWIDTH 1000 0
SWIDTH1 1000 0
BBX 10 9 0 -2
BITMAP
FFC0
0140
0140
0140
0140
0140
0140
0140
0140
ENDCHAR
STARTCHAR SF250000
ENCODING 9559
SWIDTH 1000 0
SWIDTH1 1000 0
BBX 10 10 0 -2
BITMAP
FFC0
0040
FF40
0140
0140
0140
0140
0140
0140
0140
ENDCHAR
STARTCHAR SF500000
ENCODING 9560
SWIDTH 1000 0
SWIDTH1 1000 0
BBX 9 10 8 5
BITMAP
8000
8000
8000
8000
8000
8000
8000
FF80
8000
FF80
ENDCHAR
STARTCHAR SF490000
ENCODING 9561
SWIDTH 1000 0
SWIDTH1 1000 0
BBX 10 9 7 6
BITMAP
A000
A000
A000
A000
A000
A000
A000
A000
FFC0
ENDCHAR
STARTCHAR SF380000
ENCODING 9562
SWIDTH 1000 0
SWIDTH1 1000 0
BBX 10 10 7 5
BITMAP
A000
A000
A000
A000
A000
A000
A000
BFC0
8000
FFC0
ENDCHAR
STARTCHAR SF280000
ENCODING 9563
SWIDTH 1000 0
SWIDTH1 1000 0
BBX 9 10 0 5
BITMAP
0080
0080
0080
0080
0080
0080
0080
FF80
0080
FF80
ENDCHAR
STARTCHAR SF270000
ENCODING 9564
SWIDTH 1000 0
SWIDTH1 1000 0
BBX 10 9 0 6
BITMAP
0140
0140
0140
0140
0140
0140
0140
0140
FFC0
ENDCHAR
STARTCHAR SF260000
ENCODING 9565
SWIDTH 1000 0
SWIDTH1 1000 0
BBX 10 10 0 5
BITMAP
0140
0140
0140
0140
0140
0140
0140
FF40
0040
FFC0
ENDCHAR
STARTCHAR SF360000
ENCODING 9566
SWIDTH 1000 0
SWIDTH1 1000 0
BBX 9 17 8 -2
BITMAP
8000
8000
8000
8000
8000
8000
8000
FF80
8000
FF80
8000
8000
8000
8000
8000
8000
8000
ENDCHAR
STARTCHAR SF370000
ENCODING 9567
SWIDTH 1000 0
SWIDTH1 1000 0
BBX 10 17 7 -2
BITMAP
A000
A000
A000
A000
A000
A000
A000
A000
BFC0
A000
A000
A000
A000
A000
A000
A000
A000
ENDCHAR
STARTCHAR SF420000
ENCODING 9568
SWIDTH 1000 0
SWIDTH1 1000 0
BBX 10 17 7 -2
BITMAP
A000
A000
A000
A000
A000
A000
A000
BFC0
8000
BFC0
A000
A000
A000
A000
A000
A000
A000
ENDCHAR
STARTCHAR SF190000
ENCODING 9569
SWIDTH 1000 0
SWIDTH1 1000 0
BBX 9 17 0 -2
BITMAP
0080
0080
0080
0080
0080
0080
0080
FF80
0080
FF80
0080
0080
0080
0080
0080
0080
0080
ENDCHAR
STARTCHAR SF200000
ENCODING 9570
SWIDTH 1000 0
SWIDTH1 1000 0
BBX 10 17 0 -2
BITMAP
0140
0140
0140
0140
0140
0140
0140
0140
FF40
0140
0140
0140
0140
0140
0140
0140
0140
ENDCHAR
STARTCHAR SF230000
ENCODING 9571
SWIDTH 1000 0
SWIDTH1 1000 0
BBX 10 17 0 -2
BITMAP
0140
0140
0140
0140
0140
0140
0140
FF40
0040
FF40
0140
0140
0140
0140
0140
0140
0140
ENDCHAR
STARTCHAR SF470000
ENCODING 9572
SWIDTH 1000 0
SWIDTH1 1000 0
BBX 17 10 0 -2
BITMAP
FFFF80
000000
FFFF80
008000
008000
008000
008000
008000
008000
008000
ENDCHAR
STARTCHAR SF480000
ENCODING 9573
SWIDTH 1000 0
SWIDTH1 1000 0
BBX 17 9 0 -2
BITMAP
FFFF80
014000
014000
014000
014000
014000
014000
014000
014000
ENDCHAR
STARTCHAR SF410000
ENCODING 9574
SWIDTH 1000 0
SWIDTH1 1000 0
BBX 17 10 0 -2
BITMAP
FFFF80
000000
FF7F80
014000
014000
014000
014000
014000
014000
014000
ENDCHAR
STARTCHAR SF450000
ENCODING 9575
SWIDTH 1000 0
SWIDTH1 1000 0
BBX 17 10 0 5
BITMAP
008000
008000
008000
008000
008000
008000
008000
FFFF80
000000
FFFF80
ENDCHAR
STARTCHAR SF460000
ENCODING 9576
SWIDTH 1000 0
SWIDTH1 1000 0
BBX 17 9 0 6
BITMAP
014000
014000
014000
014000
014000
014000
014000
014000
FFFF80
ENDCHAR
STARTCHAR SF400000
ENCODING 9577
SWIDTH 1000 0
SWIDTH1 1000 0
BBX 17 10 0 5
BITMAP
014000
014000
014000
014000
014000
014000
014000
FF7F80
000000
FFFF80
ENDCHAR
STARTCHAR SF540000
ENCODING 9578
SWIDTH 1000 0
SWIDTH1 1000 0
BBX 17 17 0 -2
BITMAP
008000
008000
008000
008000
008000
008000
008000
FFFF80
008000
FFFF80
008000
008000
008000
008000
008000
008000
008000
ENDCHAR
STARTCHAR SF530000
ENCODING 9579
SWIDTH 1000 0
SWIDTH1 1000 0
BBX 17 17 0 -2
BITMAP
014000
014000
014000
014000
014000
014000
014000
014000
FFFF80
014000
014000
014000
014000
014000
014000
014000
014000
ENDCHAR
STARTCHAR SF440000
ENCODING 9580
SWIDTH 1000 0
SWIDTH1 1000 0
BBX 17 17 0 -2
BITMAP
014000
014000
014000
014000
014000
014000
014000
FF7F80
000000
FF7F80
014000
014000
014000
014000
014000
014000
014000
ENDCHAR
STARTCHAR uni256D
ENCODING 9581
SWIDTH 1000 0
SWIDTH1 1000 0
BBX 9 9 8 -2
BITMAP
0780
1800
2000
4000
4000
8000
8000
8000
8000
ENDCHAR
STARTCHAR uni256E
ENCODING 9582
SWIDTH 1000 0
SWIDTH1 1000 0
BBX 9 9 0 -2
BITMAP
F000
0C00
0200
0100
0100
0080
0080
0080
0080
ENDCHAR
STARTCHAR uni256F
ENCODING 9583
SWIDTH 1000 0
SWIDTH1 1000 0
BBX 9 9 0 6
BITMAP
0080
0080
0080
0080
0100
0100
0200
0C00
F000
ENDCHAR
STARTCHAR uni2570
ENCODING 9584
SWIDTH 1000 0
SWIDTH1 1000 0
BBX 9 9 8 6
BITMAP
8000
8000
8000
8000
4000
4000
2000
1800
0780
ENDCHAR
STARTCHAR uni2571
ENCODING 9585
SWIDTH 1000 0
SWIDTH1 1000 0
BBX 16 16 0 -2
BITMAP
0001
0002
0004
0008
0010
0020
0040
0080
0100
0200
0400
0800
1000
2000
4000
8000
ENDCHAR
STARTCHAR uni2572
ENCODING 9586
SWIDTH 1000 0
SWIDTH1 1000 0
BBX 16 16 0 -2
BITMAP
8000
4000
2000
1000
0800
0400
0200
0100
0080
0040
0020
0010
0008
0004
0002
0001
ENDCHAR
STARTCHAR uni2573
ENCODING 9587
SWIDTH 1000 0
SWIDTH1 1000 0
BBX 16 16 0 -2
BITMAP
8001
4002
2004
1008
0810
0420
0240
0180
0180
0240
0420
0810
1008
2004
4002
8001
ENDCHAR
STARTCHAR uni2581
ENCODING 9601
SWIDTH 1000 0
SWIDTH1 1000 0
BBX 16 1 0 -2
BITMAP
FFFF
ENDCHAR
STARTCHAR uni2582
ENCODING 9602
SWIDTH 1000 0
SWIDTH1 1000 0
BBX 16 3 0 -2
BITMAP
FFFF
FFFF
FFFF
ENDCHAR
STARTCHAR uni2583
ENCODING 9603
SWIDTH 1000 0
SWIDTH1 1000 0
BBX 16 6 0 -2
BITMAP
FFFF
FFFF
FFFF
FFFF
FFFF
FFFF
ENDCHAR
STARTCHAR dnblock
ENCODING 9604
SWIDTH 1000 0
SWIDTH1 1000 0
BBX 16 8 0 -2
BITMAP
FFFF
FFFF
FFFF
FFFF
FFFF
FFFF
FFFF
FFFF
ENDCHAR
STARTCHAR uni2585
ENCODING 9605
SWIDTH 1000 0
SWIDTH1 1000 0
BBX 16 10 0 -2
BITMAP
FFFF
FFFF
FFFF
FFFF
FFFF
FFFF
FFFF
FFFF
FFFF
FFFF
ENDCHAR
STARTCHAR uni2586
ENCODING 9606
SWIDTH 1000 0
SWIDTH1 1000 0
BBX 16 13 0 -2
BITMAP
FFFF
FFFF
FFFF
FFFF
FFFF
FFFF
FFFF
FFFF
FFFF
FFFF
FFFF
FFFF
FFFF
ENDCHAR
STARTCHAR uni2587
ENCODING 9607
SWIDTH 1000 0
SWIDTH1 1000 0
BBX 16 15 0 -2
BITMAP
FFFF
FFFF
FFFF
FFFF
FFFF
FFFF
FFFF
FFFF
FFFF
FFFF
FFFF
FFFF
FFFF
FFFF
FFFF
ENDCHAR
STARTCHAR block
ENCODING 9608
SWIDTH 1000 0
SWIDTH1 1000 0
BBX 16 16 0 -2
BITMAP
FFFF
FFFF
FFFF
FFFF
FFFF
FFFF
FFFF
FFFF
FFFF
FFFF
FFFF
FFFF
FFFF
FFFF
FFFF
FFFF
ENDCHAR
STARTCHAR uni2589
ENCODING 9609
SWIDTH 1000 0
SWIDTH1 1000 0
BBX 15 16 0 -2
BITMAP
FFFE
FFFE
FFFE
FFFE
FFFE
FFFE
FFFE
FFFE
FFFE
FFFE
FFFE
FFFE
FFFE
FFFE
FFFE
FFFE
ENDCHAR
STARTCHAR uni258A
ENCODING 9610
SWIDTH 1000 0
SWIDTH1 1000 0
BBX 13 16 0 -2
BITMAP
FFF8
FFF8
FFF8
FFF8
FFF8
FFF8
FFF8
FFF8
FFF8
FFF8
FFF8
FFF8
FFF8
FFF8
FFF8
FFF8
ENDCHAR
STARTCHAR uni258B
ENCODING 9611
SWIDTH 1000 0
SWIDTH1 1000 0
BBX 10 16 0 -2
BITMAP
FFC0
FFC0
FFC0
FFC0
FFC0
FFC0
FFC0
FFC0
FFC0
FFC0
FFC0
FFC0
FFC0
FFC0
FFC0
FFC0
ENDCHAR
STARTCHAR lfblock
ENCODING 9612
SWIDTH 1000 0
SWIDTH1 1000 0
BBX 8 16 0 -2
BITMAP
FF
FF
FF
FF
FF
FF
FF
FF
FF
FF
FF
FF
FF
FF
FF
FF
ENDCHAR
STARTCHAR uni258D
ENCODING 9613
SWIDTH 1000 0
SWIDTH1 1000 0
BBX 6 16 0 -2
BITMAP
FC
FC
FC
FC
FC
FC
FC
FC
FC
FC
FC
FC
FC
FC
FC
FC
ENDCHAR
STARTCHAR uni258E
ENCODING 9614
SWIDTH 1000 0
SWIDTH1 1000 0
BBX 3 16 0 -2
BITMAP
E0
E0
E0
E0
E0
E0
E0
E0
E0
E0
E0
E0
E0
E0
E0
E0
ENDCHAR
STARTCHAR uni258F
ENCODING 9615
SWIDTH 1000 0
SWIDTH1 1000 0
BBX 1 16 0 -2
BITMAP
80
80
80
80
80
80
80
80
80
80
80
80
80
80
80
80
ENDCHAR
STARTCHAR dkshade
ENCODING 9619
SWIDTH 1000 0
SWIDTH1 1000 0
BBX 15 16 1 -2
BITMAP
FFFE
6666
FFFE
D998
FFFE
FFFE
6666
FFFE
9998
FFFE
6666
FFFE
FFFE
D998
FFFE
E666
ENDCHAR
STARTCHAR uni2594
ENCODING 9620
SWIDTH 1000 0
SWIDTH1 1000 0
BBX 16 1 0 13
BITMAP
FFFF
ENDCHAR
STARTCHAR uni2595
ENCODING 9621
SWIDTH 1000 0
SWIDTH1 1000 0
BBX 1 16 15 -2
BITMAP
80
80
80
80
80
80
80
80
80
80
80
80
80
80
80
80
ENDCHAR
STARTCHAR filledbox
ENCODING 9632
SWIDTH 1000 0
SWIDTH1 1000 0
BBX 13 13 2 -1
BITMAP
FFF8
FFF8
FFF8
FFF8
FFF8
FFF8
FFF8
FFF8
FFF8
FFF8
FFF8
FFF8
FFF8
ENDCHAR
STARTCHAR H22073
ENCODING 9633
SWIDTH 1000 0
SWIDTH1 1000 0
BBX 13 13 2 -1
BITMAP
FFF8
8008
8008
8008
8008
8008
8008
8008
8008
8008
8008
8008
FFF8
ENDCHAR
STARTCHAR triagup
ENCODING 9650
SWIDTH 1000 0
SWIDTH1 1000 0
BBX 13 14 1 -1
BITMAP
0200
0200
0700
0700
0F80
0F80
1FC0
1FC0
3FE0
3FE0
7FF0
7FF0
FFF8
FFF8
ENDCHAR
STARTCHAR uni25B3
ENCODING 9651
SWIDTH 1000 0
SWIDTH1 1000 0
BBX 15 14 0 -1
BITMAP
0100
0100
0280
0280
0440
0440
0820
0820
1010
1010
2008
2008
4004
FFFE
ENDCHAR
STARTCHAR triagdn
ENCODING 9660
SWIDTH 1000 0
SWIDTH1 1000 0
BBX 7 8 0 0
BITMAP
3C
42
80
80
80
80
42
3C
ENDCHAR
STARTCHAR uni25BD
ENCODING 9661
SWIDTH 1000 0
SWIDTH1 1000 0
BBX 14 12 1 1
BITMAP
FFFC
8004
4008
2010
2010
1020
0820
0840
0440
0480
0280
0100
ENDCHAR
STARTCHAR uni25C6
ENCODING 9670
SWIDTH 1000 0
SWIDTH1 1000 0
BBX 15 15 0 -2
BITMAP
0100
0380
07C0
0FE0
1FF0
3FF8
7FFC
FFFE
7FFC
3FF8
1FF0
0FE0
07C0
0380
0100
ENDCHAR
STARTCHAR uni25C7
ENCODING 9671
SWIDTH 1000 0
SWIDTH1 1000 0
BBX 15 15 0 -2
BITMAP
0100
0280
0440
0820
1010
2008
4004
8002
4004
2008
1010
0820
0440
0280
0100
ENDCHAR
STARTCHAR circle
ENCODING 9675
SWIDTH 1000 0
SWIDTH1 1000 0
BBX 14 14 1 -1
BITMAP
0780
1860
2010
4008
4008
8004
8004
8004
8004
4008
4008
2010
1860
0780
ENDCHAR
STARTCHAR uni25CE
ENCODING 9678
SWIDTH 1000 0
SWIDTH1 1000 0
BBX 14 14 1 -1
BITMAP
0FC0
1020
2010
4788
8844
9024
9024
9024
9024
8844
4788
2010
1020
0FC0
ENDCHAR
STARTCHAR H18533
ENCODING 9679
SWIDTH 1000 0
SWIDTH1 1000 0
BBX 14 14 1 -1
BITMAP
0780
1FE0
3FF0
7FF8
7FF8
FFFC
FFFC
FFFC
FFFC
7FF8
7FF8
3FF0
1FE0
0780
ENDCHAR
STARTCHAR uni25E2
ENCODING 9698
SWIDTH 1000 0
SWIDTH1 1000 0
BBX 16 16 1 -2
BITMAP
0001
0003
0007
000F
001F
003F
007F
00FF
01FF
03FF
07FF
0FFF
1FFF
3FFF
7FFF
FFFF
ENDCHAR
STARTCHAR uni25E3
ENCODING 9699
SWIDTH 1000 0
SWIDTH1 1000 0
BBX 16 16 0 -2
BITMAP
8000
C000
E000
F000
F800
FC00
FE00
FF00
FF80
FFC0
FFE0
FFF0
FFF8
FFFC
FFFE
FFFF
ENDCHAR
STARTCHAR uni25E4
ENCODING 9700
SWIDTH 1000 0
SWIDTH1 1000 0
BBX 17 17 0 -2
BITMAP
FFFF80
FFFF00
FFFE00
FFFC00
FFF800
FFF000
FFE000
FFC000
FF8000
FF0000
FE0000
FC0000
F80000
F00000
E00000
C00000
800000
ENDCHAR
STARTCHAR uni25E5
ENCODING 9701
SWIDTH 1000 0
SWIDTH1 1000 0
BBX 17 17 0 -2
BITMAP
FFFF80
7FFF80
3FFF80
1FFF80
0FFF80
07FF80
03FF80
01FF80
00FF80
007F80
003F80
001F80
000F80
000780
000380
000180
000080
ENDCHAR
STARTCHAR uni2605
ENCODING 9733
SWIDTH 1000 0
SWIDTH1 1000 0
BBX 16 16 0 -2
BITMAP
0080
0080
0180
0180
03C0
03C0
FFFF
3FFC
1FF8
0FF0
07E0
0FF0
0E70
0C30
1818
1008
ENDCHAR
STARTCHAR uni2606
ENCODING 9734
SWIDTH 1000 0
SWIDTH1 1000 0
BBX 16 16 0 -2
BITMAP
0080
0080
0180
0180
0140
0240
FE7F
2004
1008
0830
0420
0990
0A50
0C30
1818
1008
ENDCHAR
STARTCHAR uni2609
ENCODING 9737
SWIDTH 1000 0
SWIDTH1 1000 0
BBX 8 9 4 2
BITMAP
3C
42
81
81
99
99
81
42
3C
ENDCHAR
STARTCHAR female
ENCODING 9792
SWIDTH 1000 0
SWIDTH1 1000 0
BBX 11 14 2 -1
BITMAP
0E00
1100
2080
2080
2080
1100
0E00
0400
0400
FFE0
0400
0400
0400
0400
ENDCHAR
STARTCHAR male
ENCODING 9794
SWIDTH 1000 0
SWIDTH1 1000 0
BBX 9 14 3 -1
BITMAP
0800
1C00
2A00
4900
8880
0800
0800
1C00
2200
4100
4100
4100
2200
1C00
ENDCHAR
STARTCHAR uni2E81
ENCODING 11905
SWIDTH 1000 0
SWIDTH1 1000 0
BBX 13 16 1 -1
BITMAP
0010
00F8
1F00
1000
1000
1000
1000
1000
1000
1000
1000
1000
2000
2000
4000
8000
ENDCHAR
STARTCHAR uni2E84
ENCODING 11908
SWIDTH 1000 0
SWIDTH1 1000 0
BBX 14 15 2 -1
BITMAP
FFE0
0020
0020
0020
0020
0020
0020
0020
0020
0020
0024
0014
0014
000C
0004
ENDCHAR
STARTCHAR uni2E88
ENCODING 11912
SWIDTH 1000 0
SWIDTH1 1000 0
BBX 13 8 2 7
BITMAP
1000
1000
1000
1FF8
2008
2010
4020
8000
ENDCHAR
STARTCHAR uni2E8B
ENCODING 11915
SWIDTH 1000 0
SWIDTH1 1000 0
BBX 12 14 3 0
BITMAP
FF80
8080
8080
8080
8080
8080
8080
8500
8200
8000
8010
8010
8010
7FF0
ENDCHAR
STARTCHAR uni2E8C
ENCODING 11916
SWIDTH 1000 0
SWIDTH1 1000 0
BBX 11 6 3 9
BITMAP
0400
8420
4420
2440
2480
0400
ENDCHAR
STARTCHAR uni2E97
ENCODING 11927
SWIDTH 1000 0
SWIDTH1 1000 0
BBX 14 16 1 -1
BITMAP
0400
0400
0400
0400
0400
2490
2448
2448
4424
4424
4424
8424
0400
0400
1400
0800
ENDCHAR
STARTCHAR uni2EA7
ENCODING 11943
SWIDTH 1000 0
SWIDTH1 1000 0
BBX 15 8 1 7
BITMAP
0100
1100
1100
1FF8
2100
4100
0100
FFFE
ENDCHAR
STARTCHAR uni2EAA
ENCODING 11946
SWIDTH 1000 0
SWIDTH1 1000 0
BBX 8 13 1 0
BITMAP
7F
02
04
08
48
48
4F
48
48
48
4B
5C
E0
ENDCHAR
STARTCHAR uni2EAE
ENCODING 11950
SWIDTH 1000 0
SWIDTH1 1000 0
BBX 15 7 1 8
BITMAP
1040
1040
1F7E
2890
2488
4508
8000
ENDCHAR
STARTCHAR uni2EB3
ENCODING 11955
SWIDTH 1000 0
SWIDTH1 1000 0
BBX 15 6 1 7
BITMAP
7FFE
4002
8444
0820
1010
2008
ENDCHAR
STARTCHAR uni2EB6
ENCODING 11958
SWIDTH 1000 0
SWIDTH1 1000 0
BBX 15 12 1 3
BITMAP
0820
0440
7FFC
0100
3FF8
0200
FFFE
0400
0800
1000
2000
C000
ENDCHAR
STARTCHAR uni2EB7
ENCODING 11959
SWIDTH 1000 0
SWIDTH1 1000 0
BBX 15 12 1 3
BITMAP
0820
0420
0440
7FFC
0100
0100
0100
3FF8
0100
0100
0100
FFFE
ENDCHAR
STARTCHAR uni2EBB
ENCODING 11963
SWIDTH 1000 0
SWIDTH1 1000 0
BBX 15 8 1 7
BITMAP
0100
3FF8
0108
FFFE
0108
3FF8
0100
7FFC
ENDCHAR
STARTCHAR uni2ECA
ENCODING 11978
SWIDTH 1000 0
SWIDTH1 1000 0
BBX 7 13 1 1
BITMAP
7E
42
42
42
7E
08
08
4E
48
48
48
4E
F0
ENDCHAR
STARTCHAR uni2FF0
ENCODING 12272
SWIDTH 1000 0
SWIDTH1 1000 0
BBX 12 13 3 1
BITMAP
B6D0
0410
8400
8010
0410
8400
8010
0410
8400
8010
0410
8400
B6D0
ENDCHAR
STARTCHAR uni2FF1
ENCODING 12273
SWIDTH 1000 0
SWIDTH1 1000 0
BBX 12 13 3 1
BITMAP
B6D0
0010
8000
8010
0010
8000
B6D0
0010
8000
8010
0010
8000
B6D0
ENDCHAR
STARTCHAR uni2FF2
ENCODING 12274
SWIDTH 1000 0
SWIDTH1 1000 0
BBX 13 13 2 1
BITMAP
B368
8888
0880
0000
8888
8888
0000
0880
8888
8008
0880
8880
B328
ENDCHAR
STARTCHAR uni2FF3
ENCODING 12275
SWIDTH 1000 0
SWIDTH1 1000 0
BBX 12 13 3 1
BITMAP
B6D0
0010
8000
8010
36D0
8000
8010
0010
B6C0
8010
0010
8000
B6D0
ENDCHAR
STARTCHAR uni2FF4
ENCODING 12276
SWIDTH 1000 0
SWIDTH1 1000 0
BBX 13 13 2 1
BITMAP
B368
8008
0000
0C80
8088
8008
0880
0880
8008
8C88
0000
8000
B328
ENDCHAR
STARTCHAR uni2FF5
ENCODING 12277
SWIDTH 1000 0
SWIDTH1 1000 0
BBX 12 13 3 1
BITMAP
B6D0
0010
8000
8010
1B10
9100
9110
0010
9100
9110
0010
9100
B6D0
ENDCHAR
STARTCHAR uni2FF6
ENCODING 12278
SWIDTH 1000 0
SWIDTH1 1000 0
BBX 12 13 3 1
BITMAP
B6D0
1110
9100
8010
1110
9100
8010
1110
9700
8010
0010
8000
B6D0
ENDCHAR
STARTCHAR uni2FF7
ENCODING 12279
SWIDTH 1000 0
SWIDTH1 1000 0
BBX 12 13 3 1
BITMAP
B6D0
0010
8000
8010
1B50
9000
8010
1010
9B40
8010
0010
8000
B6D0
ENDCHAR
STARTCHAR uni2FF8
ENCODING 12280
SWIDTH 1000 0
SWIDTH1 1000 0
BBX 12 13 3 1
BITMAP
B6D0
0010
8000
8010
0CD0
8800
8010
0810
8800
8010
0810
8800
B6D0
ENDCHAR
STARTCHAR uni2FF9
ENCODING 12281
SWIDTH 1000 0
SWIDTH1 1000 0
BBX 12 13 3 1
BITMAP
B6D0
0010
8000
8010
6D10
8100
8010
0010
8100
8110
0010
8100
B6D0
ENDCHAR
STARTCHAR uni2FFA
ENCODING 12282
SWIDTH 1000 0
SWIDTH1 1000 0
BBX 12 13 3 1
BITMAP
B6D0
0810
8800
8010
0810
8800
8010
0810
8800
8DB0
0010
8000
B6D0
ENDCHAR
STARTCHAR uni2FFB
ENCODING 12283
SWIDTH 1000 0
SWIDTH1 1000 0
BBX 13 12 2 1
BITMAP
DB80
8080
0080
8B68
8888
0088
8800
0888
CD88
0000
0808
0BB8
ENDCHAR
STARTCHAR uni3000
ENCODING 12288
SWIDTH 1000 0
SWIDTH1 1000 0
BBX 1 1 15 -2
BITMAP
00
ENDCHAR
STARTCHAR uni3001
ENCODING 12289
SWIDTH 1000 0
SWIDTH1 1000 0
BBX 4 4 1 -1
BITMAP
80
60
30
10
ENDCHAR
STARTCHAR uni3002
ENCODING 12290
SWIDTH 1000 0
SWIDTH1 1000 0
BBX 4 4 1 -1
BITMAP
60
90
90
60
ENDCHAR
STARTCHAR uni3003
ENCODING 12291
SWIDTH 1000 0
SWIDTH1 1000 0
BBX 5 6 6 3
BITMAP
48
48
48
90
90
90
ENDCHAR
STARTCHAR uni3005
ENCODING 12293
SWIDTH 1000 0
SWIDTH1 1000 0
BBX 9 12 3 1
BITMAP
1000
1000
1000
2380
3C80
4080
8100
0100
0A00
0400
0200
0200
ENDCHAR
STARTCHAR uni3006
ENCODING 12294
SWIDTH 1000 0
SWIDTH1 1000 0
BBX 11 12 2 1
BITMAP
00C0
0020
0020
3C40
4280
4100
8280
8480
8800
9000
A000
C000
ENDCHAR
STARTCHAR uni3007
ENCODING 12295
SWIDTH 1000 0
SWIDTH1 1000 0
BBX 14 14 1 -1
BITMAP
0780
1860
2010
4008
4008
8004
8004
8004
8004
4008
4008
2010
1860
0780
ENDCHAR
STARTCHAR uni3008
ENCODING 12296
SWIDTH 1000 0
SWIDTH1 1000 0
BBX 4 14 11 -1
BITMAP
10
10
20
20
40
40
80
80
40
40
20
20
10
10
ENDCHAR
STARTCHAR uni3009
ENCODING 12297
SWIDTH 1000 0
SWIDTH1 1000 0
BBX 4 14 1 -1
BITMAP
80
80
40
40
20
20
10
10
20
20
40
40
80
80
ENDCHAR
STARTCHAR uni300A
ENCODING 12298
SWIDTH 1000 0
SWIDTH1 1000 0
BBX 6 14 9 -1
BITMAP
14
14
28
28
50
50
A0
A0
50
50
28
28
14
14
ENDCHAR
STARTCHAR uni300B
ENCODING 12299
SWIDTH 1000 0
SWIDTH1 1000 0
BBX 6 14 1 -1
BITMAP
A0
A0
50
50
28
28
14
14
28
28
50
50
A0
A0
ENDCHAR
STARTCHAR uni300C
ENCODING 12300
SWIDTH 1000 0
SWIDTH1 1000 0
BBX 5 16 10 -2
BITMAP
F8
80
80
80
80
80
80
80
80
80
80
80
80
80
80
80
ENDCHAR
STARTCHAR uni300D
ENCODING 12301
SWIDTH 1000 0
SWIDTH1 1000 0
BBX 5 16 1 -2
BITMAP
08
08
08
08
08
08
08
08
08
08
08
08
08
08
08
F8
ENDCHAR
STARTCHAR uni300E
ENCODING 12302
SWIDTH 1000 0
SWIDTH1 1000 0
BBX 6 16 9 -2
BITMAP
FC
84
BC
A0
A0
A0
A0
A0
A0
A0
A0
A0
A0
A0
A0
E0
ENDCHAR
STARTCHAR uni300F
ENCODING 12303
SWIDTH 1000 0
SWIDTH1 1000 0
BBX 6 16 1 -2
BITMAP
1C
14
14
14
14
14
14
14
14
14
14
14
14
F4
84
FC
ENDCHAR
STARTCHAR uni3010
ENCODING 12304
SWIDTH 1000 0
SWIDTH1 1000 0
BBX 7 16 8 -2
BITMAP
FE
FC
F8
F0
F0
E0
E0
E0
E0
E0
E0
F0
F0
F8
FC
FE
ENDCHAR
STARTCHAR uni3011
ENCODING 12305
SWIDTH 1000 0
SWIDTH1 1000 0
BBX 7 16 1 -2
BITMAP
FE
7E
3E
1E
1E
0E
0E
0E
0E
0E
0E
1E
1E
3E
7E
FE
ENDCHAR
STARTCHAR uni3012
ENCODING 12306
SWIDTH 1000 0
SWIDTH1 1000 0
BBX 14 13 1 -1
BITMAP
FFFC
0000
0000
0000
FFFC
0100
0100
0100
0100
0100
0100
0100
0100
ENDCHAR
STARTCHAR uni3013
ENCODING 12307
SWIDTH 1000 0
SWIDTH1 1000 0
BBX 16 14 0 -1
BITMAP
FFFF
FFFF
FFFF
FFFF
FFFF
0000
0000
0000
0000
FFFF
FFFF
FFFF
FFFF
FFFF
ENDCHAR
STARTCHAR uni3014
ENCODING 12308
SWIDTH 1000 0
SWIDTH1 1000 0
BBX 3 14 11 -1
BITMAP
20
40
80
80
80
80
80
80
80
80
80
80
40
20
ENDCHAR
STARTCHAR uni3015
ENCODING 12309
SWIDTH 1000 0
SWIDTH1 1000 0
BBX 3 14 2 -1
BITMAP
80
40
20
20
20
20
20
20
20
20
20
20
40
80
ENDCHAR
STARTCHAR uni3016
ENCODING 12310
SWIDTH 1000 0
SWIDTH1 1000 0
BBX 8 16 7 -2
BITMAP
FF
82
84
88
88
90
90
90
90
90
90
88
88
84
82
FF
ENDCHAR
STARTCHAR uni3017
ENCODING 12311
SWIDTH 1000 0
SWIDTH1 1000 0
BBX 8 16 1 -2
BITMAP
FF
41
21
11
11
09
09
09
09
09
09
11
11
21
41
FF
ENDCHAR
STARTCHAR uni301D
ENCODING 12317
SWIDTH 1000 0
SWIDTH1 1000 0
BBX 6 4 8 10
BITMAP
90
90
48
24
ENDCHAR
STARTCHAR uni301E
ENCODING 12318
SWIDTH 1000 0
SWIDTH1 1000 0
BBX 6 4 0 9
BITMAP
24
24
48
90
ENDCHAR
STARTCHAR uni3021
ENCODING 12321
SWIDTH 1000 0
SWIDTH1 1000 0
BBX 1 15 7 -1
BITMAP
80
80
80
80
80
80
80
80
80
80
80
80
80
80
80
ENDCHAR
STARTCHAR uni3022
ENCODING 12322
SWIDTH 1000 0
SWIDTH1 1000 0
BBX 6 16 5 -2
BITMAP
04
04
84
84
84
84
84
84
84
84
84
84
84
04
04
04
ENDCHAR
STARTCHAR uni3023
ENCODING 12323
SWIDTH 1000 0
SWIDTH1 1000 0
BBX 11 16 2 -2
BITMAP
0020
8020
8020
8420
8420
8420
8420
8420
8420
8420
8420
8420
8420
8420
8420
8020
ENDCHAR
STARTCHAR uni3024
ENCODING 12324
SWIDTH 1000 0
SWIDTH1 1000 0
BBX 10 12 2 2
BITMAP
0040
0040
0040
6080
1880
0680
0100
0280
0440
0840
3000
C000
ENDCHAR
STARTCHAR uni3025
ENCODING 12325
SWIDTH 1000 0
SWIDTH1 1000 0
BBX 9 15 3 -1
BITMAP
2000
2080
2080
4100
8200
FC00
1200
2100
4080
4080
4080
4080
4080
2100
1E00
ENDCHAR
STARTCHAR uni3026
ENCODING 12326
SWIDTH 1000 0
SWIDTH1 1000 0
BBX 16 6 0 6
BITMAP
0100
0100
0100
0100
0100
FFFF
ENDCHAR
STARTCHAR uni3027
ENCODING 12327
SWIDTH 1000 0
SWIDTH1 1000 0
BBX 14 9 1 3
BITMAP
0200
0200
0200
0200
FFFC
0000
0000
0000
FFFC
ENDCHAR
STARTCHAR uni3028
ENCODING 12328
SWIDTH 1000 0
SWIDTH1 1000 0
BBX 16 12 0 2
BITMAP
0100
0100
0100
FFFF
0000
0000
0000
3FFC
0000
0000
0000
FFFE
ENDCHAR
STARTCHAR uni3029
ENCODING 12329
SWIDTH 1000 0
SWIDTH1 1000 0
BBX 14 16 1 -2
BITMAP
1000
1000
2008
3FFC
6020
9820
0420
0240
0140
0080
0140
0220
0420
0820
3000
C000
ENDCHAR
STARTCHAR uni303E
ENCODING 12350
SWIDTH 1000 0
SWIDTH1 1000 0
BBX 12 13 3 1
BITMAP
B6D0
0010
8000
9C50
2390
8000
8110
3F90
8400
BF90
1010
8000
B6D0
ENDCHAR
STARTCHAR uni3041
ENCODING 12353
SWIDTH 1000 0
SWIDTH1 1000 0
BBX 10 11 4 0
BITMAP
1000
1300
7C00
1200
1F00
3280
5440
9440
9840
7080
0300
ENDCHAR
STARTCHAR uni3042
ENCODING 12354
SWIDTH 1000 0
SWIDTH1 1000 0
BBX 13 14 2 0
BITMAP
0800
08E0
7F00
0800
0900
0FC0
1930
6910
4A08
8A08
8C08
8C10
7830
09C0
ENDCHAR
STARTCHAR uni3043
ENCODING 12355
SWIDTH 1000 0
SWIDTH1 1000 0
BBX 10 8 4 0
BITMAP
8000
8100
8080
8080
8040
9040
5000
2000
ENDCHAR
STARTCHAR uni3044
ENCODING 12356
SWIDTH 1000 0
SWIDTH1 1000 0
BBX 13 12 2 0
BITMAP
8000
8000
8020
8010
8010
8008
8008
8008
8008
4800
4800
3000
ENDCHAR
STARTCHAR uni3045
ENCODING 12357
SWIDTH 1000 0
SWIDTH1 1000 0
BBX 8 11 5 0
BITMAP
70
0E
00
1C
E2
01
01
01
02
0C
30
ENDCHAR
STARTCHAR uni3046
ENCODING 12358
SWIDTH 1000 0
SWIDTH1 1000 0
BBX 10 14 4 0
BITMAP
3800
0700
0000
0000
0F00
F080
0040
0040
0040
0040
0080
0080
0300
1C00
ENDCHAR
STARTCHAR uni3047
ENCODING 12359
SWIDTH 1000 0
SWIDTH1 1000 0
BBX 9 10 4 0
BITMAP
2000
1C00
0000
7E00
0400
0800
1400
2400
4400
8380
ENDCHAR
STARTCHAR uni3048
ENCODING 12360
SWIDTH 1000 0
SWIDTH1 1000 0
BBX 13 14 2 0
BITMAP
1C00
0380
0000
0000
07C0
7880
0100
0200
0400
0E00
1100
2100
4100
80F8
ENDCHAR
STARTCHAR uni3049
ENCODING 12361
SWIDTH 1000 0
SWIDTH1 1000 0
BBX 11 10 4 0
BITMAP
1000
1700
F840
1020
1F00
3080
5040
9040
9080
6300
ENDCHAR
STARTCHAR uni304A
ENCODING 12362
SWIDTH 1000 0
SWIDTH1 1000 0
BBX 14 14 2 0
BITMAP
0800
0800
0990
FE08
0804
0800
0FE0
1810
2808
4808
8808
8808
8810
70E0
ENDCHAR
STARTCHAR uni304B
ENCODING 12363
SWIDTH 1000 0
SWIDTH1 1000 0
BBX 14 14 1 0
BITMAP
1000
1000
1000
1010
1F08
F088
2084
2084
2084
4084
4080
4100
8900
8600
ENDCHAR
STARTCHAR uni304C
ENCODING 12364
SWIDTH 1000 0
SWIDTH1 1000 0
BBX 14 14 1 0
BITMAP
1014
1014
1000
1010
1F08
F088
2084
2084
2084
4084
4080
4100
8900
8600
ENDCHAR
STARTCHAR uni304D
ENCODING 12365
SWIDTH 1000 0
SWIDTH1 1000 0
BBX 13 14 3 0
BITMAP
0200
0270
7F80
0100
0138
FFC0
0080
0040
1FE0
2020
4000
4000
2000
1FC0
ENDCHAR
STARTCHAR uni304E
ENCODING 12366
SWIDTH 1000 0
SWIDTH1 1000 0
BBX 13 14 3 0
BITMAP
0228
0228
7FC0
0100
0138
FFC0
0080
0040
1FE0
2020
4000
4000
2000
1FC0
ENDCHAR
STARTCHAR uni304F
ENCODING 12367
SWIDTH 1000 0
SWIDTH1 1000 0
BBX 8 13 4 0
BITMAP
02
04
08
10
60
80
80
60
10
08
04
02
01
ENDCHAR
STARTCHAR uni3050
ENCODING 12368
SWIDTH 1000 0
SWIDTH1 1000 0
BBX 11 13 4 0
BITMAP
0200
0400
08A0
10A0
6000
8000
8000
6000
1000
0800
0400
0200
0100
ENDCHAR
STARTCHAR uni3051
ENCODING 12369
SWIDTH 1000 0
SWIDTH1 1000 0
BBX 14 13 2 0
BITMAP
4020
4020
8020
87FC
8020
8020
8020
8020
8020
8040
4040
4080
0300
ENDCHAR
STARTCHAR uni3052
ENCODING 12370
SWIDTH 1000 0
SWIDTH1 1000 0
BBX 14 14 2 0
BITMAP
0014
4014
4020
8020
87FC
8020
8020
8020
8020
8020
8040
4040
4080
0300
ENDCHAR
STARTCHAR uni3053
ENCODING 12371
SWIDTH 1000 0
SWIDTH1 1000 0
BBX 11 12 3 0
BITMAP
3FC0
0000
0000
0000
0000
0000
4000
8000
8000
8000
4000
3FE0
ENDCHAR
STARTCHAR uni3054
ENCODING 12372
SWIDTH 1000 0
SWIDTH1 1000 0
BBX 12 14 3 0
BITMAP
0050
0050
3F80
0000
0000
0000
0000
0000
4000
8000
8000
8000
4000
3FE0
ENDCHAR
STARTCHAR uni3055
ENCODING 12373
SWIDTH 1000 0
SWIDTH1 1000 0
BBX 11 14 3 0
BITMAP
0200
0200
02E0
FF00
0100
0100
0080
3E80
41C0
8040
8000
8000
6000
1F00
ENDCHAR
STARTCHAR uni3056
ENCODING 12374
SWIDTH 1000 0
SWIDTH1 1000 0
BBX 12 14 3 0
BITMAP
0250
0250
0200
FFE0
0100
0100
0080
3E80
41C0
8040
8000
8000
6000
1F00
ENDCHAR
STARTCHAR uni3057
ENCODING 12375
SWIDTH 1000 0
SWIDTH1 1000 0
BBX 11 13 4 0
BITMAP
8000
8000
8000
8000
8000
8000
8000
8020
8020
8040
8080
4300
3C00
ENDCHAR
STARTCHAR uni3058
ENCODING 12376
SWIDTH 1000 0
SWIDTH1 1000 0
BBX 11 13 4 0
BITMAP
8140
8140
8000
8000
8000
8000
8000
8020
8020
8040
8080
4300
3C00
ENDCHAR
STARTCHAR uni3059
ENCODING 12377
SWIDTH 1000 0
SWIDTH1 1000 0
BBX 14 14 1 0
BITMAP
0080
0080
FFFC
0080
0680
0980
0880
0880
0980
0680
0080
0100
0200
0C00
ENDCHAR
STARTCHAR uni305A
ENCODING 12378
SWIDTH 1000 0
SWIDTH1 1000 0
BBX 15 14 1 0
BITMAP
0094
0094
FFFE
0080
0680
0980
0880
0880
0980
0680
0080
0100
0200
0C00
ENDCHAR
STARTCHAR uni305B
ENCODING 12379
SWIDTH 1000 0
SWIDTH1 1000 0
BBX 14 14 1 0
BITMAP
0020
1020
1020
1020
10FC
FF20
1020
1020
1020
11C0
1000
1000
0800
07F0
ENDCHAR
STARTCHAR uni305C
ENCODING 12380
SWIDTH 1000 0
SWIDTH1 1000 0
BBX 14 14 1 0
BITMAP
0014
1014
1020
1020
11FC
FE20
1020
1020
1020
11C0
1000
1000
0800
07F0
ENDCHAR
STARTCHAR uni305D
ENCODING 12381
SWIDTH 1000 0
SWIDTH1 1000 0
BBX 13 13 2 0
BITMAP
1FC0
0080
0100
0600
18F8
FF00
0200
0400
0400
0400
0400
0200
01E0
ENDCHAR
STARTCHAR uni305E
ENCODING 12382
SWIDTH 1000 0
SWIDTH1 1000 0
BBX 13 14 2 0
BITMAP
0028
1FA8
0100
0200
0400
18F8
FF00
0200
0400
0400
0400
0400
0200
01E0
ENDCHAR
STARTCHAR uni305F
ENCODING 12383
SWIDTH 1000 0
SWIDTH1 1000 0
BBX 13 14 2 0
BITMAP
1000
1000
1E00
F000
2000
21F0
2000
4000
4000
4000
4200
8200
8200
81F8
ENDCHAR
STARTCHAR uni3060
ENCODING 12384
SWIDTH 1000 0
SWIDTH1 1000 0
BBX 13 14 2 0
BITMAP
1028
1028
1E00
F000
2000
21F0
2000
4000
4000
4000
4200
8200
8200
81F8
ENDCHAR
STARTCHAR uni3061
ENCODING 12385
SWIDTH 1000 0
SWIDTH1 1000 0
BBX 12 14 3 0
BITMAP
0800
0870
FF80
0800
0800
1000
17C0
1820
3010
2010
0010
0020
0060
0F80
ENDCHAR
STARTCHAR uni3062
ENCODING 12386
SWIDTH 1000 0
SWIDTH1 1000 0
BBX 13 14 3 0
BITMAP
0828
0828
FFC0
0800
0800
1000
17C0
1820
3010
2010
0010
0020
0060
0F80
ENDCHAR
STARTCHAR uni3063
ENCODING 12387
SWIDTH 1000 0
SWIDTH1 1000 0
BBX 10 7 4 1
BITMAP
0F00
F080
0040
0040
0040
0080
0700
ENDCHAR
STARTCHAR uni3064
ENCODING 12388
SWIDTH 1000 0
SWIDTH1 1000 0
BBX 14 11 2 1
BITMAP
03E0
FC18
0008
0004
0004
0004
0004
0008
0010
0060
0F80
ENDCHAR
STARTCHAR uni3065
ENCODING 12389
SWIDTH 1000 0
SWIDTH1 1000 0
BBX 14 13 2 1
BITMAP
0014
0014
03E0
FC18
0008
0004
0004
0004
0004
0008
0010
0060
0F80
ENDCHAR
STARTCHAR uni3066
ENCODING 12390
SWIDTH 1000 0
SWIDTH1 1000 0
BBX 13 13 2 0
BITMAP
07F8
F8C0
0100
0200
0400
0400
0800
0800
0800
0800
0400
0600
01E0
ENDCHAR
STARTCHAR uni3067
ENCODING 12391
SWIDTH 1000 0
SWIDTH1 1000 0
BBX 13 13 2 0
BITMAP
07F8
F8C0
0108
0228
0420
0400
0800
0800
0800
0800
0400
0600
01E0
ENDCHAR
STARTCHAR uni3068
ENCODING 12392
SWIDTH 1000 0
SWIDTH1 1000 0
BBX 10 14 3 0
BITMAP
2000
2000
2000
1000
11C0
1600
1800
2000
4000
8000
8000
8000
4000
3FC0
ENDCHAR
STARTCHAR uni3069
ENCODING 12393
SWIDTH 1000 0
SWIDTH1 1000 0
BBX 12 14 3 0
BITMAP
2050
2050
2000
1000
11C0
1600
1800
2000
4000
8000
8000
8000
4000
3FC0
ENDCHAR
STARTCHAR uni306A
ENCODING 12394
SWIDTH 1000 0
SWIDTH1 1000 0
BBX 13 14 2 0
BITMAP
1000
1000
1E60
F018
2000
2000
4020
4020
4020
8020
83E0
0430
0428
03C0
ENDCHAR
STARTCHAR uni306B
ENCODING 12395
SWIDTH 1000 0
SWIDTH1 1000 0
BBX 12 13 3 0
BITMAP
4000
47E0
8000
8000
8000
8000
8000
8000
8400
8800
8800
47F0
4000
ENDCHAR
STARTCHAR uni306C
ENCODING 12396
SWIDTH 1000 0
SWIDTH1 1000 0
BBX 13 14 2 0
BITMAP
0200
0200
0200
87C0
9A30
A210
4208
4408
A408
9408
8808
94E8
6110
00E8
ENDCHAR
STARTCHAR uni306D
ENCODING 12397
SWIDTH 1000 0
SWIDTH1 1000 0
BBX 15 14 1 0
BITMAP
1000
1000
1C00
F0F0
1308
1404
1804
1004
3004
5004
907C
1084
108A
1072
ENDCHAR
STARTCHAR uni306E
ENCODING 12398
SWIDTH 1000 0
SWIDTH1 1000 0
BBX 14 12 1 0
BITMAP
07C0
1A30
2208
4208
4204
8404
8404
8404
8808
4808
3030
00C0
ENDCHAR
STARTCHAR uni306F
ENCODING 12399
SWIDTH 1000 0
SWIDTH1 1000 0
BBX 13 13 2 0
BITMAP
4020
4020
87F8
8020
8020
8020
8020
8020
8020
83E0
8430
4428
43C0
ENDCHAR
STARTCHAR uni3070
ENCODING 12400
SWIDTH 1000 0
SWIDTH1 1000 0
BBX 13 14 2 0
BITMAP
0028
4028
4040
8040
87F8
8040
8040
8040
8040
8040
83E0
8450
4448
4380
ENDCHAR
STARTCHAR uni3071
ENCODING 12401
SWIDTH 1000 0
SWIDTH1 1000 0
BBX 13 14 2 0
BITMAP
0010
4068
4050
8040
87F8
8040
8040
8040
8040
8040
83E0
8450
4448
4380
ENDCHAR
STARTCHAR uni3072
ENCODING 12402
SWIDTH 1000 0
SWIDTH1 1000 0
BBX 14 13 2 0
BITMAP
1C20
E820
1030
2030
2028
4024
4020
4020
4020
4020
4040
20C0
1F00
ENDCHAR
STARTCHAR uni3073
ENCODING 12403
SWIDTH 1000 0
SWIDTH1 1000 0
BBX 14 14 2 0
BITMAP
0028
1C28
E800
1040
2060
2030
4028
4024
4020
4020
4020
4040
20C0
1F00
ENDCHAR
STARTCHAR uni3074
ENCODING 12404
SWIDTH 1000 0
SWIDTH1 1000 0
BBX 14 14 2 0
BITMAP
0010
1C28
E810
1040
2060
2030
4028
4024
4020
4020
4020
4040
20C0
1F00
ENDCHAR
STARTCHAR uni3075
ENCODING 12405
SWIDTH 1000 0
SWIDTH1 1000 0
BBX 15 13 1 0
BITMAP
0700
00C0
0000
0200
0200
0200
2108
2104
4082
4042
8042
1840
0780
ENDCHAR
STARTCHAR uni3076
ENCODING 12406
SWIDTH 1000 0
SWIDTH1 1000 0
BBX 15 13 1 0
BITMAP
0700
00C0
0014
0214
0200
0200
2108
2104
4082
4042
8042
1840
0780
ENDCHAR
STARTCHAR uni3077
ENCODING 12407
SWIDTH 1000 0
SWIDTH1 1000 0
BBX 15 13 1 0
BITMAP
0700
00C8
0014
0208
0200
0200
2108
2104
4082
4042
8042
1840
0780
ENDCHAR
STARTCHAR uni3078
ENCODING 12408
SWIDTH 1000 0
SWIDTH1 1000 0
BBX 15 9 1 2
BITMAP
0600
0900
1080
2040
4020
8010
0008
0004
0002
ENDCHAR
STARTCHAR uni3079
ENCODING 12409
SWIDTH 1000 0
SWIDTH1 1000 0
BBX 15 10 1 2
BITMAP
0014
0614
0900
1080
2040
4020
8010
0008
0004
0002
ENDCHAR
STARTCHAR uni307A
ENCODING 12410
SWIDTH 1000 0
SWIDTH1 1000 0
BBX 15 10 1 2
BITMAP
0008
0614
0908
1080
2040
4020
8010
0008
0004
0002
ENDCHAR
STARTCHAR uni307B
ENCODING 12411
SWIDTH 1000 0
SWIDTH1 1000 0
BBX 13 13 2 0
BITMAP
4000
47F8
8020
8020
87F8
8020
8020
8020
8020
83E0
8430
4428
43C0
ENDCHAR
STARTCHAR uni307C
ENCODING 12412
SWIDTH 1000 0
SWIDTH1 1000 0
BBX 13 14 2 0
BITMAP
0028
4028
4000
87F8
8020
8020
87F8
8020
8020
8020
83E0
8430
4428
43C0
ENDCHAR
STARTCHAR uni307D
ENCODING 12413
SWIDTH 1000 0
SWIDTH1 1000 0
BBX 13 14 2 0
BITMAP
0010
4028
4010
87F8
8020
8020
87F8
8020
8020
8020
83E0
8430
4428
43C0
ENDCHAR
STARTCHAR uni307E
ENCODING 12414
SWIDTH 1000 0
SWIDTH1 1000 0
BBX 12 14 2 0
BITMAP
0200
0200
FFF0
0200
0200
0200
7FE0
0200
0200
0200
3E00
4380
4260
3C10
ENDCHAR
STARTCHAR uni307F
ENCODING 12415
SWIDTH 1000 0
SWIDTH1 1000 0
BBX 14 14 2 -1
BITMAP
3E00
0200
0200
0210
0410
0F90
3470
4418
8814
8820
9020
6040
0080
0100
ENDCHAR
STARTCHAR uni3080
ENCODING 12416
SWIDTH 1000 0
SWIDTH1 1000 0
BBX 13 14 2 0
BITMAP
1000
1000
FE20
1010
1008
7000
9000
9000
9000
6000
2010
2010
2010
1FE0
ENDCHAR
STARTCHAR uni3081
ENCODING 12417
SWIDTH 1000 0
SWIDTH1 1000 0
BBX 14 14 2 0
BITMAP
0100
0100
4100
47E0
5918
6208
4204
A204
A404
9404
8808
9408
6030
00C0
ENDCHAR
STARTCHAR uni3082
ENCODING 12418
SWIDTH 1000 0
SWIDTH1 1000 0
BBX 13 14 2 0
BITMAP
0800
0800
4800
3F80
0800
0800
8820
7F90
1008
1008
1008
1008
0810
07E0
ENDCHAR
STARTCHAR uni3083
ENCODING 12419
SWIDTH 1000 0
SWIDTH1 1000 0
BBX 11 10 3 0
BITMAP
2200
2380
1C40
F020
1020
1040
0980
0800
0800
0800
ENDCHAR
STARTCHAR uni3084
ENCODING 12420
SWIDTH 1000 0
SWIDTH1 1000 0
BBX 14 14 1 -1
BITMAP
0040
2040
2040
11F0
1E08
F004
0804
0808
0470
0400
0400
0200
0200
0200
ENDCHAR
STARTCHAR uni3085
ENCODING 12421
SWIDTH 1000 0
SWIDTH1 1000 0
BBX 10 10 4 0
BITMAP
0400
0400
9F00
A480
C440
8440
9480
8F00
0400
1800
ENDCHAR
STARTCHAR uni3086
ENCODING 12422
SWIDTH 1000 0
SWIDTH1 1000 0
BBX 13 14 2 0
BITMAP
0100
4100
43C0
8CB0
9090
A088
C088
C088
8088
8890
84B0
43C0
4100
0600
ENDCHAR
STARTCHAR uni3087
ENCODING 12423
SWIDTH 1000 0
SWIDTH1 1000 0
BBX 9 10 4 0
BITMAP
0800
0800
0800
0F80
0800
0800
7800
8C00
8B00
7080
ENDCHAR
STARTCHAR uni3088
ENCODING 12424
SWIDTH 1000 0
SWIDTH1 1000 0
BBX 11 13 3 0
BITMAP
0400
0400
0400
07E0
0400
0400
0400
0400
0400
7C00
8700
84C0
7820
ENDCHAR
STARTCHAR uni3089
ENCODING 12425
SWIDTH 1000 0
SWIDTH1 1000 0
BBX 11 14 3 0
BITMAP
3800
0700
0000
4000
4000
4000
8F80
B040
C020
8020
0020
0040
00C0
1F00
ENDCHAR
STARTCHAR uni308A
ENCODING 12426
SWIDTH 1000 0
SWIDTH1 1000 0
BBX 9 14 4 0
BITMAP
0080
8080
8080
8080
8080
8080
9080
9080
A080
4100
0100
0200
0400
1800
ENDCHAR
STARTCHAR uni308B
ENCODING 12427
SWIDTH 1000 0
SWIDTH1 1000 0
BBX 12 13 2 0
BITMAP
3F80
0100
0200
0400
0800
1FC0
3020
4010
8010
0C10
1220
1160
0F80
ENDCHAR
STARTCHAR uni308C
ENCODING 12428
SWIDTH 1000 0
SWIDTH1 1000 0
BBX 15 14 1 0
BITMAP
1000
1000
1800
F0F0
1308
1408
1808
3008
3010
5010
9010
1012
1012
100C
ENDCHAR
STARTCHAR uni308D
ENCODING 12429
SWIDTH 1000 0
SWIDTH1 1000 0
BBX 12 13 3 0
BITMAP
3F80
0100
0200
0400
0800
1FC0
3020
4010
8010
0010
0020
0060
0F80
ENDCHAR
STARTCHAR uni308E
ENCODING 12430
SWIDTH 1000 0
SWIDTH1 1000 0
BBX 10 10 3 0
BITMAP
2000
2000
F000
2700
3880
2040
6040
A040
2080
2300
ENDCHAR
STARTCHAR uni308F
ENCODING 12431
SWIDTH 1000 0
SWIDTH1 1000 0
BBX 14 14 1 0
BITMAP
1000
1000
1C00
F800
11F0
1608
1804
3004
3004
5004
9004
1008
1018
10E0
ENDCHAR
STARTCHAR uni3090
ENCODING 12432
SWIDTH 1000 0
SWIDTH1 1000 0
BBX 13 13 2 0
BITMAP
3E00
0200
0200
0780
1A60
2410
4410
4408
8808
8808
91D0
6230
01C0
ENDCHAR
STARTCHAR uni3091
ENCODING 12433
SWIDTH 1000 0
SWIDTH1 1000 0
BBX 13 13 2 0
BITMAP
0F80
0100
0200
0F80
1040
2020
0620
0940
0780
1860
2090
5908
8638
ENDCHAR
STARTCHAR uni3092
ENCODING 12434
SWIDTH 1000 0
SWIDTH1 1000 0
BBX 12 14 3 0
BITMAP
0400
04E0
FF00
0800
1000
3C00
4270
8380
0D00
1100
2100
2000
2000
1FE0
ENDCHAR
STARTCHAR uni3093
ENCODING 12435
SWIDTH 1000 0
SWIDTH1 1000 0
BBX 13 14 2 0
BITMAP
0400
0400
0800
0800
1000
1000
2000
3C00
6200
4208
4108
8108
8110
80E0
ENDCHAR
STARTCHAR uni309B
ENCODING 12443
SWIDTH 1000 0
SWIDTH1 1000 0
BBX 4 3 1 11
BITMAP
20
90
40
ENDCHAR
STARTCHAR uni309C
ENCODING 12444
SWIDTH 1000 0
SWIDTH1 1000 0
BBX 3 3 1 11
BITMAP
40
A0
40
ENDCHAR
STARTCHAR uni309D
ENCODING 12445
SWIDTH 1000 0
SWIDTH1 1000 0
BBX 6 8 5 3
BITMAP
80
80
40
20
10
0C
30
40
ENDCHAR
STARTCHAR uni309E
ENCODING 12446
SWIDTH 1000 0
SWIDTH1 1000 0
BBX 8 10 5 3
BITMAP
02
09
84
80
40
20
10
0C
30
40
ENDCHAR
STARTCHAR uni30A1
ENCODING 12449
SWIDTH 1000 0
SWIDTH1 1000 0
BBX 10 9 4 0
BITMAP
FFC0
0040
0080
0500
0400
0400
0400
0800
1000
ENDCHAR
STARTCHAR uni30A2
ENCODING 12450
SWIDTH 1000 0
SWIDTH1 1000 0
BBX 13 12 2 0
BITMAP
FFF8
0008
0010
0220
0240
0280
0200
0200
0400
0400
0800
1000
ENDCHAR
STARTCHAR uni30A3
ENCODING 12451
SWIDTH 1000 0
SWIDTH1 1000 0
BBX 9 10 4 0
BITMAP
0080
0100
0200
0400
0C00
3400
C400
0400
0400
0400
ENDCHAR
STARTCHAR uni30A4
ENCODING 12452
SWIDTH 1000 0
SWIDTH1 1000 0
BBX 12 13 2 0
BITMAP
0010
0020
0040
0080
0100
0700
0900
3100
C100
0100
0100
0100
0100
ENDCHAR
STARTCHAR uni30A5
ENCODING 12453
SWIDTH 1000 0
SWIDTH1 1000 0
BBX 9 10 4 0
BITMAP
0800
0800
FF80
8080
8080
8080
0100
0100
0600
1800
ENDCHAR
STARTCHAR uni30A6
ENCODING 12454
SWIDTH 1000 0
SWIDTH1 1000 0
BBX 12 14 2 0
BITMAP
0400
0400
0400
FFF0
8010
8010
8010
8010
0020
0020
0040
0080
0300
0C00
ENDCHAR
STARTCHAR uni30A7
ENCODING 12455
SWIDTH 1000 0
SWIDTH1 1000 0
BBX 9 7 4 1
BITMAP
7F00
0800
0800
0800
0800
0800
FF80
ENDCHAR
STARTCHAR uni30A8
ENCODING 12456
SWIDTH 1000 0
SWIDTH1 1000 0
BBX 13 10 2 1
BITMAP
7FF0
0200
0200
0200
0200
0200
0200
0200
0200
FFF8
ENDCHAR
STARTCHAR uni30A9
ENCODING 12457
SWIDTH 1000 0
SWIDTH1 1000 0
BBX 9 10 4 0
BITMAP
0200
0200
FF80
0600
0A00
1200
2200
C200
0200
0C00
ENDCHAR
STARTCHAR uni30AA
ENCODING 12458
SWIDTH 1000 0
SWIDTH1 1000 0
BBX 13 13 2 0
BITMAP
0080
0080
0080
FFF8
0180
0280
0480
0880
1080
2080
C080
0080
0700
ENDCHAR
STARTCHAR uni30AB
ENCODING 12459
SWIDTH 1000 0
SWIDTH1 1000 0
BBX 12 14 2 0
BITMAP
0800
0800
0800
FFF0
0810
0810
0810
1010
1010
1010
2010
2010
4020
81C0
ENDCHAR
STARTCHAR uni30AC
ENCODING 12460
SWIDTH 1000 0
SWIDTH1 1000 0
BBX 13 14 2 0
BITMAP
0828
0828
0800
FFF0
0810
0810
0810
1010
1010
1010
2010
2010
4020
81C0
ENDCHAR
STARTCHAR uni30AD
ENCODING 12461
SWIDTH 1000 0
SWIDTH1 1000 0
BBX 13 14 2 0
BITMAP
0200
0200
0200
03F0
FE00
0200
0200
03F8
FF00
0100
0100
0100
0100
0100
ENDCHAR
STARTCHAR uni30AE
ENCODING 12462
SWIDTH 1000 0
SWIDTH1 1000 0
BBX 13 14 2 0
BITMAP
0228
0228
0200
03F0
FE00
0200
0200
03F8
FF00
0100
0100
0100
0100
0100
ENDCHAR
STARTCHAR uni30AF
ENCODING 12463
SWIDTH 1000 0
SWIDTH1 1000 0
BBX 11 15 3 -1
BITMAP
0800
0800
0800
1FE0
1020
2020
4040
8040
0080
0080
0100
0200
0400
1800
6000
ENDCHAR
STARTCHAR uni30B0
ENCODING 12464
SWIDTH 1000 0
SWIDTH1 1000 0
BBX 12 15 3 -1
BITMAP
0850
0850
0800
1FE0
1020
2020
4040
8040
0080
0080
0100
0200
0400
1800
6000
ENDCHAR
STARTCHAR uni30B1
ENCODING 12465
SWIDTH 1000 0
SWIDTH1 1000 0
BBX 13 14 2 -1
BITMAP
1000
1000
1000
3FF8
2080
4080
8080
0080
0080
0100
0100
0200
0400
1800
ENDCHAR
STARTCHAR uni30B2
ENCODING 12466
SWIDTH 1000 0
SWIDTH1 1000 0
BBX 13 14 2 -1
BITMAP
1028
1028
1000
3FF8
2080
4080
8080
0080
0080
0100
0100
0200
0400
1800
ENDCHAR
STARTCHAR uni30B3
ENCODING 12467
SWIDTH 1000 0
SWIDTH1 1000 0
BBX 11 10 3 0
BITMAP
FFE0
0020
0020
0020
0020
0020
0020
0020
FFE0
0020
ENDCHAR
STARTCHAR uni30B4
ENCODING 12468
SWIDTH 1000 0
SWIDTH1 1000 0
BBX 12 13 3 0
BITMAP
0050
0050
0000
FFE0
0020
0020
0020
0020
0020
0020
0020
FFE0
0020
ENDCHAR
STARTCHAR uni30B5
ENCODING 12469
SWIDTH 1000 0
SWIDTH1 1000 0
BBX 14 13 1 0
BITMAP
1020
1020
1020
FFFC
1020
1020
1020
1020
0040
0040
0080
0100
0600
ENDCHAR
STARTCHAR uni30B6
ENCODING 12470
SWIDTH 1000 0
SWIDTH1 1000 0
BBX 14 14 1 0
BITMAP
0014
1054
1040
1040
FFFC
1040
1040
1040
1040
0040
0080
0080
0100
0600
ENDCHAR
STARTCHAR uni30B7
ENCODING 12471
SWIDTH 1000 0
SWIDTH1 1000 0
BBX 12 12 2 0
BITMAP
3000
0800
0010
C010
2020
0020
0040
0080
0100
0200
0C00
7000
ENDCHAR
STARTCHAR uni30B8
ENCODING 12472
SWIDTH 1000 0
SWIDTH1 1000 0
BBX 12 14 2 0
BITMAP
0050
0050
3000
0800
0010
C010
2020
0020
0040
0080
0100
0200
0C00
7000
ENDCHAR
STARTCHAR uni30B9
ENCODING 12473
SWIDTH 1000 0
SWIDTH1 1000 0
BBX 13 12 2 0
BITMAP
7FC0
0040
0040
0080
0080
0100
0100
0280
0440
0820
3010
C008
ENDCHAR
STARTCHAR uni30BA
ENCODING 12474
SWIDTH 1000 0
SWIDTH1 1000 0
BBX 13 14 2 0
BITMAP
0028
0028
7FC0
0040
0040
0080
0080
0100
0100
0280
0440
0820
3010
C008
ENDCHAR
STARTCHAR uni30BB
ENCODING 12475
SWIDTH 1000 0
SWIDTH1 1000 0
BBX 14 13 1 0
BITMAP
0800
0800
087C
0F84
F808
0810
0860
0800
0800
0800
0800
0800
07FC
ENDCHAR
STARTCHAR uni30BC
ENCODING 12476
SWIDTH 1000 0
SWIDTH1 1000 0
BBX 14 14 1 0
BITMAP
0014
0814
0800
087C
0F84
F808
0810
0860
0800
0800
0800
0800
0800
07FC
ENDCHAR
STARTCHAR uni30BD
ENCODING 12477
SWIDTH 1000 0
SWIDTH1 1000 0
BBX 11 12 3 0
BITMAP
8020
4020
2020
2020
0040
0040
0080
0080
0100
0200
0C00
3000
ENDCHAR
STARTCHAR uni30BE
ENCODING 12478
SWIDTH 1000 0
SWIDTH1 1000 0
BBX 13 14 3 0
BITMAP
0028
0028
8000
4020
2020
2020
0020
0040
0040
0080
0080
0100
0600
1800
ENDCHAR
STARTCHAR uni30BF
ENCODING 12479
SWIDTH 1000 0
SWIDTH1 1000 0
BBX 11 14 2 0
BITMAP
0800
0800
1000
1FE0
2020
4020
9040
0C40
0280
0100
0280
0440
1800
6000
ENDCHAR
STARTCHAR uni30C0
ENCODING 12480
SWIDTH 1000 0
SWIDTH1 1000 0
BBX 12 14 3 0
BITMAP
0850
0850
1000
1FE0
2020
4020
9040
0C40
0280
0100
0280
0440
1800
6000
ENDCHAR
STARTCHAR uni30C1
ENCODING 12481
SWIDTH 1000 0
SWIDTH1 1000 0
BBX 13 14 2 -1
BITMAP
0020
01C0
7E00
0200
0200
0200
FFF8
0200
0200
0200
0400
0400
0800
3000
ENDCHAR
STARTCHAR uni30C2
ENCODING 12482
SWIDTH 1000 0
SWIDTH1 1000 0
BBX 13 14 2 -1
BITMAP
0020
01C0
7E28
0228
0200
0200
FFF8
0200
0200
0200
0400
0400
0800
3000
ENDCHAR
STARTCHAR uni30C3
ENCODING 12483
SWIDTH 1000 0
SWIDTH1 1000 0
BBX 9 9 4 0
BITMAP
1000
8880
4880
4100
0100
0200
0400
1800
6000
ENDCHAR
STARTCHAR uni30C4
ENCODING 12484
SWIDTH 1000 0
SWIDTH1 1000 0
BBX 12 12 2 0
BITMAP
0810
8810
8410
4410
4010
0020
0020
0040
0080
0100
0600
1800
ENDCHAR
STARTCHAR uni30C5
ENCODING 12485
SWIDTH 1000 0
SWIDTH1 1000 0
BBX 13 14 2 0
BITMAP
0028
0028
0800
8820
8420
4420
4020
0020
0040
0040
0080
0100
0600
1800
ENDCHAR
STARTCHAR uni30C6
ENCODING 12486
SWIDTH 1000 0
SWIDTH1 1000 0
BBX 13 12 2 0
BITMAP
7FF0
0000
0000
0000
FFF8
0200
0200
0200
0400
0400
0800
3000
ENDCHAR
STARTCHAR uni30C7
ENCODING 12487
SWIDTH 1000 0
SWIDTH1 1000 0
BBX 13 14 2 0
BITMAP
0028
0028
7FC0
0000
0000
0000
FFF8
0200
0200
0200
0400
0400
0800
3000
ENDCHAR
STARTCHAR uni30C8
ENCODING 12488
SWIDTH 1000 0
SWIDTH1 1000 0
BBX 7 13 6 0
BITMAP
80
80
80
80
80
E0
98
86
80
80
80
80
80
ENDCHAR
STARTCHAR uni30C9
ENCODING 12489
SWIDTH 1000 0
SWIDTH1 1000 0
BBX 9 13 6 0
BITMAP
8280
8280
8000
8000
8000
E000
9800
8600
8000
8000
8000
8000
8000
ENDCHAR
STARTCHAR uni30CA
ENCODING 12490
SWIDTH 1000 0
SWIDTH1 1000 0
BBX 14 14 1 -1
BITMAP
0100
0100
0100
0100
FFFC
0100
0100
0100
0100
0200
0200
0400
0800
3000
ENDCHAR
STARTCHAR uni30CB
ENCODING 12491
SWIDTH 1000 0
SWIDTH1 1000 0
BBX 13 9 2 2
BITMAP
7FF0
0000
0000
0000
0000
0000
0000
0000
FFF8
ENDCHAR
STARTCHAR uni30CC
ENCODING 12492
SWIDTH 1000 0
SWIDTH1 1000 0
BBX 11 12 2 0
BITMAP
3FE0
0020
0020
0040
1840
0680
0100
0280
0440
0820
3000
C000
ENDCHAR
STARTCHAR uni30CD
ENCODING 12493
SWIDTH 1000 0
SWIDTH1 1000 0
BBX 13 14 2 0
BITMAP
0200
0200
0200
7FE0
0040
0080
0100
0600
0AC0
3230
C208
0200
0200
0200
ENDCHAR
STARTCHAR uni30CE
ENCODING 12494
SWIDTH 1000 0
SWIDTH1 1000 0
BBX 10 12 2 0
BITMAP
0040
0040
0040
0080
0080
0100
0100
0200
0400
0800
3000
C000
ENDCHAR
STARTCHAR uni30CF
ENCODING 12495
SWIDTH 1000 0
SWIDTH1 1000 0
BBX 14 10 1 1
BITMAP
1020
1020
1010
1010
2008
2008
2008
4004
4004
8004
ENDCHAR
STARTCHAR uni30D0
ENCODING 12496
SWIDTH 1000 0
SWIDTH1 1000 0
BBX 14 13 1 1
BITMAP
0014
0014
0000
1020
1020
1010
1010
2008
2008
2008
4004
4004
8004
ENDCHAR
STARTCHAR uni30D1
ENCODING 12497
SWIDTH 1000 0
SWIDTH1 1000 0
BBX 14 13 1 1
BITMAP
0008
0014
0008
1020
1020
1010
1010
2008
2008
2008
4004
4004
8004
ENDCHAR
STARTCHAR uni30D2
ENCODING 12498
SWIDTH 1000 0
SWIDTH1 1000 0
BBX 11 13 3 0
BITMAP
8000
8000
8000
80C0
8700
F800
8000
8000
8000
8000
8000
8000
7FE0
ENDCHAR
STARTCHAR uni30D3
ENCODING 12499
SWIDTH 1000 0
SWIDTH1 1000 0
BBX 12 14 3 0
BITMAP
0050
8050
8000
8000
80C0
8700
F800
8000
8000
8000
8000
8000
8000
7FE0
ENDCHAR
STARTCHAR uni30D4
ENCODING 12500
SWIDTH 1000 0
SWIDTH1 1000 0
BBX 12 14 3 0
BITMAP
0020
8050
8020
8000
80C0
8700
F800
8000
8000
8000
8000
8000
8000
7FE0
ENDCHAR
STARTCHAR uni30D5
ENCODING 12501
SWIDTH 1000 0
SWIDTH1 1000 0
BBX 12 11 3 0
BITMAP
FFF0
0010
0010
0020
0020
0040
0040
0080
0100
0600
1800
ENDCHAR
STARTCHAR uni30D6
ENCODING 12502
SWIDTH 1000 0
SWIDTH1 1000 0
BBX 13 14 3 0
BITMAP
0028
0028
0000
FFF0
0010
0010
0020
0020
0040
0040
0080
0100
0600
1800
ENDCHAR
STARTCHAR uni30D7
ENCODING 12503
SWIDTH 1000 0
SWIDTH1 1000 0
BBX 13 14 3 0
BITMAP
0010
0028
0010
FFF0
0010
0010
0020
0020
0040
0040
0080
0100
0600
1800
ENDCHAR
STARTCHAR uni30D8
ENCODING 12504
SWIDTH 1000 0
SWIDTH1 1000 0
BBX 14 9 2 2
BITMAP
0C00
1200
2100
4080
8040
0020
0010
0008
0004
ENDCHAR
STARTCHAR uni30D9
ENCODING 12505
SWIDTH 1000 0
SWIDTH1 1000 0
BBX 14 10 2 2
BITMAP
0028
0C28
1200
2100
4080
8040
0020
0010
0008
0004
ENDCHAR
STARTCHAR uni30DA
ENCODING 12506
SWIDTH 1000 0
SWIDTH1 1000 0
BBX 14 10 2 2
BITMAP
0010
0C28
1210
2100
4080
8040
0020
0010
0008
0004
ENDCHAR
STARTCHAR uni30DB
ENCODING 12507
SWIDTH 1000 0
SWIDTH1 1000 0
BBX 13 14 2 0
BITMAP
0200
0200
0200
0200
FFF8
0200
0200
2220
2210
4210
4208
8208
0200
0200
ENDCHAR
STARTCHAR uni30DC
ENCODING 12508
SWIDTH 1000 0
SWIDTH1 1000 0
BBX 13 14 2 0
BITMAP
0228
0228
0200
0200
FFF8
0200
0200
2220
2210
4210
4208
8208
0200
0200
ENDCHAR
STARTCHAR uni30DD
ENCODING 12509
SWIDTH 1000 0
SWIDTH1 1000 0
BBX 13 14 2 0
BITMAP
0210
0228
0210
0200
FFF8
0200
0200
2220
2210
4210
4208
8208
0200
0200
ENDCHAR
STARTCHAR uni30DE
ENCODING 12510
SWIDTH 1000 0
SWIDTH1 1000 0
BBX 13 11 2 0
BITMAP
FFF8
0008
0010
0020
0040
3080
0D00
0200
0100
0080
0040
ENDCHAR
STARTCHAR uni30DF
ENCODING 12511
SWIDTH 1000 0
SWIDTH1 1000 0
BBX 9 13 4 0
BITMAP
7000
0E00
0180
0000
7000
0E00
0100
0000
0000
E000
1C00
0300
0080
ENDCHAR
STARTCHAR uni30E0
ENCODING 12512
SWIDTH 1000 0
SWIDTH1 1000 0
BBX 13 13 2 0
BITMAP
0400
0400
0400
0400
0800
0800
0840
1020
1020
2010
21F0
FE08
0008
ENDCHAR
STARTCHAR uni30E1
ENCODING 12513
SWIDTH 1000 0
SWIDTH1 1000 0
BBX 11 13 2 0
BITMAP
0020
0020
0020
0040
1840
0680
0100
0180
0240
0420
0800
3000
C000
ENDCHAR
STARTCHAR uni30E2
ENCODING 12514
SWIDTH 1000 0
SWIDTH1 1000 0
BBX 13 12 2 0
BITMAP
7FE0
0400
0400
0400
0400
FFF8
0400
0400
0400
0400
0400
03F0
ENDCHAR
STARTCHAR uni30E3
ENCODING 12515
SWIDTH 1000 0
SWIDTH1 1000 0
BBX 10 10 4 0
BITMAP
1000
1000
17C0
F840
0880
0900
0800
0400
0400
0400
ENDCHAR
STARTCHAR uni30E4
ENCODING 12516
SWIDTH 1000 0
SWIDTH1 1000 0
BBX 14 14 1 -1
BITMAP
0800
0800
0800
087C
0784
FC08
0410
0420
0440
0200
0200
0200
0200
0200
ENDCHAR
STARTCHAR uni30E5
ENCODING 12517
SWIDTH 1000 0
SWIDTH1 1000 0
BBX 11 7 3 1
BITMAP
3F00
0100
0100
0100
0100
0100
FFE0
ENDCHAR
STARTCHAR uni30E6
ENCODING 12518
SWIDTH 1000 0
SWIDTH1 1000 0
BBX 13 10 2 1
BITMAP
7FC0
0040
0040
0040
0080
0080
0080
0080
0080
FFF8
ENDCHAR
STARTCHAR uni30E7
ENCODING 12519
SWIDTH 1000 0
SWIDTH1 1000 0
BBX 7 9 5 0
BITMAP
FE
02
02
FE
02
02
02
FE
02
ENDCHAR
STARTCHAR uni30E8
ENCODING 12520
SWIDTH 1000 0
SWIDTH1 1000 0
BBX 10 12 4 0
BITMAP
FFC0
0040
0040
0040
0040
FFC0
0040
0040
0040
0040
FFC0
0040
ENDCHAR
STARTCHAR uni30E9
ENCODING 12521
SWIDTH 1000 0
SWIDTH1 1000 0
BBX 11 12 3 0
BITMAP
7FC0
0000
0000
FFE0
0020
0020
0040
0040
0080
0100
0600
3800
ENDCHAR
STARTCHAR uni30EA
ENCODING 12522
SWIDTH 1000 0
SWIDTH1 1000 0
BBX 9 14 4 -1
BITMAP
8080
8080
8080
8080
8080
8080
8080
8080
0080
0100
0100
0200
0400
1800
ENDCHAR
STARTCHAR uni30EB
ENCODING 12523
SWIDTH 1000 0
SWIDTH1 1000 0
BBX 14 13 1 -1
BITMAP
0100
1100
1100
1100
1100
1100
1100
1104
1104
2108
2110
4160
8180
ENDCHAR
STARTCHAR uni30EC
ENCODING 12524
SWIDTH 1000 0
SWIDTH1 1000 0
BBX 10 13 4 -1
BITMAP
8000
8000
8000
8000
8000
8000
8040
8040
8080
8100
8200
8C00
F000
ENDCHAR
STARTCHAR uni30ED
ENCODING 12525
SWIDTH 1000 0
SWIDTH1 1000 0
BBX 10 11 3 0
BITMAP
FFC0
8040
8040
8040
8040
8040
8040
8040
8040
FFC0
8040
ENDCHAR
STARTCHAR uni30EE
ENCODING 12526
SWIDTH 1000 0
SWIDTH1 1000 0
BBX 9 9 4 0
BITMAP
FF80
8080
8080
8080
8100
0100
0200
0400
1800
ENDCHAR
STARTCHAR uni30EF
ENCODING 12527
SWIDTH 1000 0
SWIDTH1 1000 0
BBX 11 12 3 0
BITMAP
FFE0
8020
8020
8020
8020
8020
0040
0040
0080
0100
0600
1800
ENDCHAR
STARTCHAR uni30F0
ENCODING 12528
SWIDTH 1000 0
SWIDTH1 1000 0
BBX 13 14 2 -1
BITMAP
0080
0080
0080
7FF0
1080
1080
1080
1080
FFF8
0080
0080
0080
0080
0080
ENDCHAR
STARTCHAR uni30F1
ENCODING 12529
SWIDTH 1000 0
SWIDTH1 1000 0
BBX 15 10 1 1
BITMAP
3FF8
0010
0020
0040
0180
0100
0100
0100
0100
FFFE
ENDCHAR
STARTCHAR uni30F2
ENCODING 12530
SWIDTH 1000 0
SWIDTH1 1000 0
BBX 11 12 3 0
BITMAP
FFE0
0020
0020
0020
FFE0
0040
0040
0080
0100
0200
0C00
3000
ENDCHAR
STARTCHAR uni30F3
ENCODING 12531
SWIDTH 1000 0
SWIDTH1 1000 0
BBX 12 12 3 0
BITMAP
C000
2000
0010
0010
0020
0020
0040
0080
0100
0200
0C00
7000
ENDCHAR
STARTCHAR uni30F4
ENCODING 12532
SWIDTH 1000 0
SWIDTH1 1000 0
BBX 13 14 2 0
BITMAP
0428
0428
0400
FFF0
8010
8010
8010
8010
0020
0020
0040
0080
0300
0C00
ENDCHAR
STARTCHAR uni30F5
ENCODING 12533
SWIDTH 1000 0
SWIDTH1 1000 0
BBX 9 10 4 0
BITMAP
1000
1000
1000
FF80
1080
1080
2080
2080
4080
8300
ENDCHAR
STARTCHAR uni30F6
ENCODING 12534
SWIDTH 1000 0
SWIDTH1 1000 0
BBX 10 10 3 0
BITMAP
2000
2000
2000
7FC0
4200
8200
0200
0200
0400
1800
ENDCHAR
STARTCHAR uni30FC
ENCODING 12540
SWIDTH 1000 0
SWIDTH1 1000 0
BBX 13 2 2 6
BITMAP
8000
7FF8
ENDCHAR
STARTCHAR uni30FD
ENCODING 12541
SWIDTH 1000 0
SWIDTH1 1000 0
BBX 5 6 6 4
BITMAP
80
40
20
10
08
08
ENDCHAR
STARTCHAR uni30FE
ENCODING 12542
SWIDTH 1000 0
SWIDTH1 1000 0
BBX 7 9 6 4
BITMAP
04
12
08
80
40
20
10
08
08
ENDCHAR
STARTCHAR uni3105
ENCODING 12549
SWIDTH 1000 0
SWIDTH1 1000 0
BBX 11 14 2 -1
BITMAP
1000
1000
1000
21E0
7E20
C020
0020
0020
0040
0040
0040
0080
0480
0300
ENDCHAR
STARTCHAR uni3106
ENCODING 12550
SWIDTH 1000 0
SWIDTH1 1000 0
BBX 10 15 3 -1
BITMAP
1000
1000
1000
2000
47C0
F840
0040
0080
1880
0500
0200
0500
0880
3000
C000
ENDCHAR
STARTCHAR uni3107
ENCODING 12551
SWIDTH 1000 0
SWIDTH1 1000 0
BBX 11 9 2 1
BITMAP
03E0
FC20
4020
4020
4020
4040
4040
4040
4040
ENDCHAR
STARTCHAR uni3108
ENCODING 12552
SWIDTH 1000 0
SWIDTH1 1000 0
BBX 13 12 2 0
BITMAP
03E0
FC00
4000
4000
4000
4000
4000
4000
4000
4000
4000
3FF8
ENDCHAR
STARTCHAR uni3109
ENCODING 12553
SWIDTH 1000 0
SWIDTH1 1000 0
BBX 13 15 1 -1
BITMAP
0800
0800
0800
0800
11F8
3F08
0108
0208
0210
0410
0810
1010
2020
C0A0
0040
ENDCHAR
STARTCHAR uni310A
ENCODING 12554
SWIDTH 1000 0
SWIDTH1 1000 0
BBX 14 14 1 -1
BITMAP
0200
0200
0200
0200
03FC
FE00
0200
0400
0400
0880
0840
13E0
3C30
0010
ENDCHAR
STARTCHAR uni310B
ENCODING 12555
SWIDTH 1000 0
SWIDTH1 1000 0
BBX 11 14 2 -1
BITMAP
0780
F880
0100
0200
0400
0FE0
0020
0020
0020
0040
0040
0480
0280
0100
ENDCHAR
STARTCHAR uni310C
ENCODING 12556
SWIDTH 1000 0
SWIDTH1 1000 0
BBX 12 15 2 -1
BITMAP
0100
0100
2100
2100
2200
4270
FF90
0410
0410
0810
0820
1020
2020
4140
8080
ENDCHAR
STARTCHAR uni310D
ENCODING 12557
SWIDTH 1000 0
SWIDTH1 1000 0
BBX 9 14 3 -1
BITMAP
1080
1080
2080
2100
4100
4200
8400
8400
4200
4100
2100
2080
1080
1080
ENDCHAR
STARTCHAR uni310E
ENCODING 12558
SWIDTH 1000 0
SWIDTH1 1000 0
BBX 14 13 1 -1
BITMAP
01FC
FE00
0200
0200
04E0
0F20
0020
0020
0020
0020
0040
0240
0180
ENDCHAR
STARTCHAR uni310F
ENCODING 12559
SWIDTH 1000 0
SWIDTH1 1000 0
BBX 14 14 1 -1
BITMAP
001C
7FE0
1000
1000
1000
1000
1000
1000
1000
2000
2000
2000
4000
8000
ENDCHAR
STARTCHAR uni3110
ENCODING 12560
SWIDTH 1000 0
SWIDTH1 1000 0
BBX 7 14 4 -1
BITMAP
02
02
42
42
42
42
42
86
9A
E2
02
02
02
02
ENDCHAR
STARTCHAR uni3111
ENCODING 12561
SWIDTH 1000 0
SWIDTH1 1000 0
BBX 6 13 4 -1
BITMAP
10
10
10
20
20
40
80
40
20
10
08
04
04
ENDCHAR
STARTCHAR uni3112
ENCODING 12562
SWIDTH 1000 0
SWIDTH1 1000 0
BBX 13 13 2 -1
BITMAP
03F8
FE00
0200
0200
0200
0200
0200
0200
0200
0200
0200
0200
0200
ENDCHAR
STARTCHAR uni3113
ENCODING 12563
SWIDTH 1000 0
SWIDTH1 1000 0
BBX 14 14 1 -1
BITMAP
0100
0100
0110
2110
2110
2110
2110
21F0
3F10
0100
0100
0100
01FC
FE00
ENDCHAR
STARTCHAR uni3114
ENCODING 12564
SWIDTH 1000 0
SWIDTH1 1000 0
BBX 8 15 3 -1
BITMAP
02
02
04
08
11
22
C4
0C
14
24
C4
04
04
04
04
ENDCHAR
STARTCHAR uni3115
ENCODING 12565
SWIDTH 1000 0
SWIDTH1 1000 0
BBX 11 14 1 -1
BITMAP
00E0
1F20
0020
0020
11E0
1E00
1000
1000
1000
1000
2000
2000
4000
8000
ENDCHAR
STARTCHAR uni3116
ENCODING 12566
SWIDTH 1000 0
SWIDTH1 1000 0
BBX 8 13 4 -1
BITMAP
1F
E1
81
81
91
89
89
81
81
81
8D
F3
01
ENDCHAR
STARTCHAR uni3117
ENCODING 12567
SWIDTH 1000 0
SWIDTH1 1000 0
BBX 10 15 3 -2
BITMAP
01C0
FE40
1040
1040
1040
1080
1080
1480
1300
1000
1000
1000
1000
1000
1000
ENDCHAR
STARTCHAR uni3118
ENCODING 12568
SWIDTH 1000 0
SWIDTH1 1000 0
BBX 14 15 1 -2
BITMAP
0200
0200
0200
03FC
FC00
0400
08E0
1F20
0020
0020
0040
0040
0080
0100
0200
ENDCHAR
STARTCHAR uni3119
ENCODING 12569
SWIDTH 1000 0
SWIDTH1 1000 0
BBX 13 14 2 -1
BITMAP
0200
0200
0200
0400
0400
0800
0800
1000
1000
2040
4020
83F0
FC08
0008
ENDCHAR
STARTCHAR uni311A
ENCODING 12570
SWIDTH 1000 0
SWIDTH1 1000 0
BBX 9 14 3 -1
BITMAP
0080
8080
4100
2200
1400
0800
0800
0800
0800
0800
0800
0800
0800
0800
ENDCHAR
STARTCHAR uni311B
ENCODING 12571
SWIDTH 1000 0
SWIDTH1 1000 0
BBX 13 13 1 -1
BITMAP
01F8
FF00
0100
0100
0100
1F00
2000
4000
4000
4000
2000
1030
0FC0
ENDCHAR
STARTCHAR uni311C
ENCODING 12572
SWIDTH 1000 0
SWIDTH1 1000 0
BBX 14 15 1 -1
BITMAP
0200
0100
0100
0100
01FC
FF00
0100
0100
1F00
2000
2000
2000
2000
1018
0FE0
ENDCHAR
STARTCHAR uni311D
ENCODING 12573
SWIDTH 1000 0
SWIDTH1 1000 0
BBX 15 14 0 -1
BITMAP
0820
0820
0820
0820
083E
0FE0
F820
0820
0840
0840
0880
0400
020C
01F0
ENDCHAR
STARTCHAR uni311E
ENCODING 12574
SWIDTH 1000 0
SWIDTH1 1000 0
BBX 14 14 1 -1
BITMAP
01FC
FF00
2100
2100
2100
41F8
7F08
0208
0210
0210
0410
0820
1020
6040
ENDCHAR
STARTCHAR uni311F
ENCODING 12575
SWIDTH 1000 0
SWIDTH1 1000 0
BBX 13 13 2 -1
BITMAP
1C00
E400
0400
0400
0400
0400
0400
0200
0200
0100
0080
0040
0038
ENDCHAR
STARTCHAR uni3120
ENCODING 12576
SWIDTH 1000 0
SWIDTH1 1000 0
BBX 11 15 3 -1
BITMAP
0800
0800
0800
1000
1000
2080
4080
8100
FE00
0400
0800
1080
2040
FFE0
0020
ENDCHAR
STARTCHAR uni3121
ENCODING 12577
SWIDTH 1000 0
SWIDTH1 1000 0
BBX 10 13 2 -1
BITMAP
07C0
F840
0040
0080
3080
0900
0500
0200
0500
0880
1040
2000
C000
ENDCHAR
STARTCHAR uni3122
ENCODING 12578
SWIDTH 1000 0
SWIDTH1 1000 0
BBX 12 14 2 -1
BITMAP
07C0
F840
0040
2080
2080
2100
40F0
7F10
0010
0020
0020
0040
0080
0100
ENDCHAR
STARTCHAR uni3123
ENCODING 12579
SWIDTH 1000 0
SWIDTH1 1000 0
BBX 12 14 2 -1
BITMAP
4000
4000
4000
4000
4000
8000
8000
8FF0
F010
0010
0010
0020
0020
0040
ENDCHAR
STARTCHAR uni3124
ENCODING 12580
SWIDTH 1000 0
SWIDTH1 1000 0
BBX 14 14 1 -1
BITMAP
0200
0200
0200
0278
FF80
0280
0280
0480
0480
0880
0880
1080
2080
C07C
ENDCHAR
STARTCHAR uni3125
ENCODING 12581
SWIDTH 1000 0
SWIDTH1 1000 0
BBX 13 13 1 0
BITMAP
0200
0200
0200
0400
0400
0800
0800
1000
1000
2000
2000
4000
FFF8
ENDCHAR
STARTCHAR uni3126
ENCODING 12582
SWIDTH 1000 0
SWIDTH1 1000 0
BBX 14 14 1 -1
BITMAP
0080
0880
0880
0880
0880
0880
0880
0880
0880
1080
1080
2084
4044
803C
ENDCHAR
STARTCHAR uni3127
ENCODING 12583
SWIDTH 1000 0
SWIDTH1 1000 0
BBX 14 1 2 6
BITMAP
FFFC
ENDCHAR
STARTCHAR uni3128
ENCODING 12584
SWIDTH 1000 0
SWIDTH1 1000 0
BBX 11 13 2 0
BITMAP
0020
0020
0020
3040
0840
0480
0280
0100
0280
0440
0820
3020
C000
ENDCHAR
STARTCHAR uni3129
ENCODING 12585
SWIDTH 1000 0
SWIDTH1 1000 0
BBX 11 10 2 1
BITMAP
0020
4020
4020
4020
4020
4020
8020
8020
83E0
FC20
ENDCHAR
STARTCHAR uni3220
ENCODING 12832
SWIDTH 1000 0
SWIDTH1 1000 0
BBX 16 14 0 -1
BITMAP
1008
2004
4002
4002
8001
8011
9FF9
8001
8001
8001
4002
4002
2004
1008
ENDCHAR
STARTCHAR uni3221
ENCODING 12833
SWIDTH 1000 0
SWIDTH1 1000 0
BBX 16 14 0 -1
BITMAP
1008
2004
4022
4FF2
8001
8001
8001
8001
8001
8011
5FFA
4002
2004
1008
ENDCHAR
STARTCHAR uni3222
ENCODING 12834
SWIDTH 1000 0
SWIDTH1 1000 0
BBX 16 14 0 -1
BITMAP
1008
2004
4022
4FF2
8001
8001
8041
87E1
8001
8001
4012
5FFA
2004
1008
ENDCHAR
STARTCHAR uni3223
ENCODING 12835
SWIDTH 1000 0
SWIDTH1 1000 0
BBX 16 14 0 -1
BITMAP
1008
2004
4FFA
4A4A
8A49
8A49
8A49
8A49
8C39
8809
4FFA
480A
2004
1008
ENDCHAR
STARTCHAR uni3224
ENCODING 12836
SWIDTH 1000 0
SWIDTH1 1000 0
BBX 16 14 0 -1
BITMAP
1008
2004
4FF2
4102
8101
8101
87E1
8121
8121
8221
4222
5FFA
2004
1008
ENDCHAR
STARTCHAR uni3225
ENCODING 12837
SWIDTH 1000 0
SWIDTH1 1000 0
BBX 16 14 0 -1
BITMAP
1008
2104
4082
4082
9FF9
8001
8001
8241
8221
8411
480A
500A
2004
1008
ENDCHAR
STARTCHAR uni3226
ENCODING 12838
SWIDTH 1000 0
SWIDTH1 1000 0
BBX 16 14 0 -1
BITMAP
1008
2104
4102
4102
8119
81E1
9F01
8101
8101
8109
410A
40FA
2004
1008
ENDCHAR
STARTCHAR uni3227
ENCODING 12839
SWIDTH 1000 0
SWIDTH1 1000 0
BBX 16 14 0 -1
BITMAP
1008
2004
41C2
4242
8241
8241
8241
8241
8421
8421
4812
500A
2004
1008
ENDCHAR
STARTCHAR uni3228
ENCODING 12840
SWIDTH 1000 0
SWIDTH1 1000 0
BBX 16 14 0 -1
BITMAP
1008
2104
4102
4122
8FF1
8121
8121
8121
8221
8229
442A
483A
2004
1008
ENDCHAR
STARTCHAR uni3229
ENCODING 12841
SWIDTH 1000 0
SWIDTH1 1000 0
BBX 16 14 0 -1
BITMAP
1008
2084
4082
4082
8081
8089
9FFD
8081
8081
8081
4082
4082
2004
1008
ENDCHAR
STARTCHAR uni3231
ENCODING 12849
SWIDTH 1000 0
SWIDTH1 1000 0
BBX 16 14 0 -1
BITMAP
2824
4922
8921
BDF9
8A21
9821
9DFD
AA21
C871
88A9
8927
8A21
4822
2004
ENDCHAR
STARTCHAR uni32A3
ENCODING 12963
SWIDTH 1000 0
SWIDTH1 1000 0
BBX 14 14 1 -1
BITMAP
1FE0
2010
5FE8
8104
8104
8104
89E4
8904
8904
8904
BFF4
4008
2010
1FE0
ENDCHAR
STARTCHAR uni338E
ENCODING 13198
SWIDTH 1000 0
SWIDTH1 1000 0
BBX 15 12 1 -1
BITMAP
003A
B644
4944
4944
4944
4938
4920
493C
4942
0042
0042
003C
ENDCHAR
STARTCHAR uni338F
ENCODING 13199
SWIDTH 1000 0
SWIDTH1 1000 0
BBX 13 15 3 -1
BITMAP
8000
8000
8000
84E8
8910
9110
A110
C110
A0E0
9080
88F0
8508
0108
0108
00F0
ENDCHAR
STARTCHAR uni339C
ENCODING 13212
SWIDTH 1000 0
SWIDTH1 1000 0
BBX 15 8 1 0
BITMAP
6C6C
9292
9292
9292
9292
9292
9292
9292
ENDCHAR
STARTCHAR uni339D
ENCODING 13213
SWIDTH 1000 0
SWIDTH1 1000 0
BBX 15 8 1 0
BITMAP
356C
4C92
8492
8092
8092
8292
4492
3892
ENDCHAR
STARTCHAR uni339E
ENCODING 13214
SWIDTH 1000 0
SWIDTH1 1000 0
BBX 14 12 2 0
BITMAP
8000
8000
8000
8000
8AD8
9124
A124
C124
A124
9124
8924
8524
ENDCHAR
STARTCHAR uni33A1
ENCODING 13217
SWIDTH 1000 0
SWIDTH1 1000 0
BBX 13 11 2 0
BITMAP
0030
0048
0008
B610
4920
4978
4900
4900
4900
4900
4900
ENDCHAR
STARTCHAR uni33C4
ENCODING 13252
SWIDTH 1000 0
SWIDTH1 1000 0
BBX 14 8 2 0
BITMAP
3468
4C98
8508
8100
8100
8504
4488
3870
ENDCHAR
STARTCHAR uni33CE
ENCODING 13262
SWIDTH 1000 0
SWIDTH1 1000 0
BBX 13 12 1 0
BITMAP
8A08
9318
9318
A318
A2A8
C2A8
A2A8
A248
A248
9248
9208
8A08
ENDCHAR
STARTCHAR uni33D1
ENCODING 13265
SWIDTH 1000 0
SWIDTH1 1000 0
BBX 9 12 4 0
BITMAP
8000
8000
8000
8000
9700
8880
8880
8880
8880
8880
8880
8880
ENDCHAR
STARTCHAR uni33D2
ENCODING 13266
SWIDTH 1000 0
SWIDTH1 1000 0
BBX 14 15 2 -2
BITMAP
8000
8000
8000
8074
9C88
A288
A288
A288
A270
A240
A278
9C84
0084
0084
0078
ENDCHAR
STARTCHAR uni33D5
ENCODING 13269
SWIDTH 1000 0
SWIDTH1 1000 0
BBX 14 12 1 0
BITMAP
0004
0024
0004
0004
B624
4924
4924
4924
4924
4924
4924
4924
ENDCHAR
STARTCHAR uni4E00
ENCODING 19968
SWIDTH 1000 0
SWIDTH1 1000 0
BBX 15 2 1 7
BITMAP
0004
FFFE
ENDCHAR
STARTCHAR uni4E01
ENCODING 19969
SWIDTH 1000 0
SWIDTH1 1000 0
BBX 13 15 2 -1
BITMAP
FFF8
0200
0200
0200
0200
0200
0200
0200
0200
0200
0200
0200
0200
0A00
0400
ENDCHAR
STARTCHAR uni4E02
ENCODING 19970
SWIDTH 1000 0
SWIDTH1 1000 0
BBX 15 15 1 -1
BITMAP
FFFE
0400
0400
0800
0800
1000
1FF0
0010
0010
0010
0010
0010
0010
00A0
0040
ENDCHAR
STARTCHAR uni4E03
ENCODING 19971
SWIDTH 1000 0
SWIDTH1 1000 0
BBX 14 15 1 0
BITMAP
0200
0200
0200
0200
0200
023C
07C0
FA00
0200
0200
0200
0204
0204
0204
01FC
ENDCHAR
STARTCHAR uni4E04
ENCODING 19972
SWIDTH 1000 0
SWIDTH1 1000 0
BBX 15 15 1 0
BITMAP
0100
0100
0100
0100
0100
0100
0100
0100
0100
0100
0100
0100
0100
0100
FFFE
ENDCHAR
STARTCHAR uni4E05
ENCODING 19973
SWIDTH 1000 0
SWIDTH1 1000 0
BBX 15 15 1 -1
BITMAP
FFFE
0100
0100
0100
0100
0100
0100
0100
0100
0100
0100
0100
0100
0100
0100
ENDCHAR
STARTCHAR uni4E06
ENCODING 19974
SWIDTH 1000 0
SWIDTH1 1000 0
BBX 15 11 1 3
BITMAP
FFFE
0200
0200
0400
0400
0800
0800
1000
2000
4000
8000
ENDCHAR
STARTCHAR uni4E07
ENCODING 19975
SWIDTH 1000 0
SWIDTH1 1000 0
BBX 15 14 1 -1
BITMAP
FFFE
0400
0400
0400
07F0
0410
0410
0810
0810
1010
1010
2010
40A0
8040
ENDCHAR
STARTCHAR uni4E08
ENCODING 19976
SWIDTH 1000 0
SWIDTH1 1000 0
BBX 15 16 1 -1
BITMAP
0080
0080
0080
0080
7FFC
0080
1080
1080
0880
0480
0280
0100
0280
0440
1830
E00E
ENDCHAR
STARTCHAR uni4E09
ENCODING 19977
SWIDTH 1000 0
SWIDTH1 1000 0
BBX 15 12 1 1
BITMAP
7FFC
0000
0000
0000
0000
3FF8
0000
0000
0000
0000
0000
FFFE
ENDCHAR
STARTCHAR uni4E0A
ENCODING 19978
SWIDTH 1000 0
SWIDTH1 1000 0
BBX 15 15 1 0
BITMAP
0200
0200
0200
0200
0200
0200
03F8
0200
0200
0200
0200
0200
0200
0200
FFFE
ENDCHAR
STARTCHAR uni4E0B
ENCODING 19979
SWIDTH 1000 0
SWIDTH1 1000 0
BBX 15 15 1 -1
BITMAP
FFFE
0200
0200
0200
0200
0240
0220
0210
0208
0208
0200
0200
0200
0200
0200
ENDCHAR
STARTCHAR uni4E0C
ENCODING 19980
SWIDTH 1000 0
SWIDTH1 1000 0
BBX 15 15 1 -1
BITMAP
FFFE
0820
0820
0820
0820
0820
0820
0820
0820
0820
1020
1020
2020
4020
8020
ENDCHAR
STARTCHAR uni4E0D
ENCODING 19981
SWIDTH 1000 0
SWIDTH1 1000 0
BBX 14 15 1 -1
BITMAP
7FFC
0080
0080
0100
0100
0340
0520
0910
1108
2104
4104
8100
0100
0100
0100
ENDCHAR
STARTCHAR uni4E0E
ENCODING 19982
SWIDTH 1000 0
SWIDTH1 1000 0
BBX 14 16 1 -1
BITMAP
1000
1000
1000
1FFC
1000
2000
2000
3FF8
0008
0008
0008
FFC8
0008
0008
0050
0020
ENDCHAR
STARTCHAR uni4E0F
ENCODING 19983
SWIDTH 1000 0
SWIDTH1 1000 0
BBX 15 15 1 -1
BITMAP
FFFE
0100
0100
2100
21FC
2104
2104
2104
3FFC
0004
0004
0004
0004
0028
0010
ENDCHAR
STARTCHAR uni4E10
ENCODING 19984
SWIDTH 1000 0
SWIDTH1 1000 0
BBX 15 15 1 -1
BITMAP
FFFE
0100
0100
2100
21FC
2100
2100
2100
3FFC
0004
0004
0004
0004
0028
0010
ENDCHAR
STARTCHAR uni4E11
ENCODING 19985
SWIDTH 1000 0
SWIDTH1 1000 0
BBX 15 14 1 0
BITMAP
3FF0
0210
0210
0210
0210
0210
3FF0
0410
0410
0410
0410
0410
0410
FFFE
ENDCHAR
STARTCHAR uni4E12
ENCODING 19986
SWIDTH 1000 0
SWIDTH1 1000 0
BBX 15 14 1 0
BITMAP
3FF8
0108
0108
0908
0508
0208
0308
0488
0488
0808
1050
2020
0000
FFFE
ENDCHAR
STARTCHAR uni4E13
ENCODING 19987
SWIDTH 1000 0
SWIDTH1 1000 0
BBX 15 16 1 -1
BITMAP
0100
0100
0100
3FF8
0200
0200
FFFE
0400
0800
0FF0
0010
0020
0640
0180
0040
0020
ENDCHAR
STARTCHAR uni4E14
ENCODING 19988
SWIDTH 1000 0
SWIDTH1 1000 0
BBX 15 14 1 0
BITMAP
1FF0
1010
1010
1010
1FF0
1010
1010
1010
1FF0
1010
1010
1010
1010
FFFE
ENDCHAR
STARTCHAR uni4E15
ENCODING 19989
SWIDTH 1000 0
SWIDTH1 1000 0
BBX 15 14 1 0
BITMAP
7FFC
0080
0100
0100
0340
0520
0910
3108
C104
0100
0100
0100
0000
FFFE
ENDCHAR
STARTCHAR uni4E16
ENCODING 19990
SWIDTH 1000 0
SWIDTH1 1000 0
BBX 15 15 1 0
BITMAP
0220
1220
1220
1220
1220
FFFE
1220
1220
1220
1220
13E0
1000
1000
1000
1FFC
ENDCHAR
STARTCHAR uni4E17
ENCODING 19991
SWIDTH 1000 0
SWIDTH1 1000 0
BBX 15 16 1 -1
BITMAP
1110
1110
1110
1110
1110
1110
FFFE
1110
1110
1110
1110
1110
1110
1110
1FF0
1010
ENDCHAR
STARTCHAR uni4E18
ENCODING 19992
SWIDTH 1000 0
SWIDTH1 1000 0
BBX 15 15 1 0
BITMAP
0010
0078
1F80
1000
1000
1000
1000
1FFC
1040
1040
1040
1040
1040
1040
FFFE
ENDCHAR
STARTCHAR uni4E19
ENCODING 19993
SWIDTH 1000 0
SWIDTH1 1000 0
BBX 15 15 1 -1
BITMAP
FFFE
0100
0100
0100
7FFC
4104
4104
4284
4244
4424
4824
4004
4004
4014
4008
ENDCHAR
STARTCHAR uni4E1A
ENCODING 19994
SWIDTH 1000 0
SWIDTH1 1000 0
BBX 15 15 1 0
BITMAP
0440
0440
0440
0440
4444
2444
2448
1448
1450
1460
0440
0440
0440
0440
FFFE
ENDCHAR
STARTCHAR uni4E1B
ENCODING 19995
SWIDTH 1000 0
SWIDTH1 1000 0
BBX 15 15 1 0
BITMAP
0820
0820
0820
0820
0820
0820
0820
1450
1250
2288
2088
4104
8202
0000
FFFE
ENDCHAR
STARTCHAR uni4E1C
ENCODING 19996
SWIDTH 1000 0
SWIDTH1 1000 0
BBX 13 16 2 -1
BITMAP
0400
0400
0400
FFF8
0800
1200
2200
4200
7FF0
0200
1240
2220
4210
8208
0A00
0400
ENDCHAR
STARTCHAR uni4E1D
ENCODING 19997
SWIDTH 1000 0
SWIDTH1 1000 0
BBX 15 15 1 0
BITMAP
0810
0810
1020
1020
2244
4284
7CF8
0408
0810
1020
2040
7EFC
0000
0000
FFFE
ENDCHAR
STARTCHAR uni4E1E
ENCODING 19998
SWIDTH 1000 0
SWIDTH1 1000 0
BBX 15 14 1 0
BITMAP
3FF0
0020
0040
0080
7D04
0588
0950
0920
1110
2108
4106
8500
0200
FFFE
ENDCHAR
STARTCHAR uni4E1F
ENCODING 19999
SWIDTH 1000 0
SWIDTH1 1000 0
BBX 15 15 1 -1
BITMAP
7FFC
0100
0100
0100
3FF8
0100
0100
0100
FFFE
0200
0400
0820
1010
3FF8
1008
ENDCHAR
STARTCHAR uni4E20
ENCODING 20000
SWIDTH 1000 0
SWIDTH1 1000 0
BBX 15 15 1 0
BITMAP
0440
0440
0440
0444
7C48
0450
0460
0440
0442
0442
1C42
E43E
4400
0000
FFFE
ENDCHAR
STARTCHAR uni4E21
ENCODING 20001
SWIDTH 1000 0
SWIDTH1 1000 0
BBX 15 15 1 -1
BITMAP
FFFE
0100
0100
0100
7FFC
4104
4924
4924
4924
4924
4FE4
4024
4004
4014
4008
ENDCHAR
STARTCHAR uni4E22
ENCODING 20002
SWIDTH 1000 0
SWIDTH1 1000 0
BBX 15 16 1 -1
BITMAP
0010
00F8
3F00
0100
0100
3FF8
0100
0100
0100
FFFE
0200
0400
0820
1010
3FF8
1008
ENDCHAR
STARTCHAR uni4E23
ENCODING 20003
SWIDTH 1000 0
SWIDTH1 1000 0
BBX 15 15 1 -1
BITMAP
FFFE
0440
0440
0440
7C7C
4444
4444
4444
7C7C
0444
0840
0840
1040
2040
4040
ENDCHAR
STARTCHAR uni4E24
ENCODING 20004
SWIDTH 1000 0
SWIDTH1 1000 0
BBX 15 15 1 -1
BITMAP
FFFE
0440
0440
0440
7FFC
4444
4444
4444
4AA4
4A94
5114
4204
4004
4014
4008
ENDCHAR
STARTCHAR uni4E25
ENCODING 20005
SWIDTH 1000 0
SWIDTH1 1000 0
BBX 15 15 1 -1
BITMAP
7FFC
0240
1248
0A50
0240
3FFE
2000
2000
2000
2000
2000
2000
4000
4000
8000
ENDCHAR
STARTCHAR uni4E26
ENCODING 20006
SWIDTH 1000 0
SWIDTH1 1000 0
BBX 15 15 1 0
BITMAP
1010
0820
0440
7FFC
0440
0440
0440
4444
2444
1448
1450
0440
0440
0440
FFFE
ENDCHAR
STARTCHAR uni4E27
ENCODING 20007
SWIDTH 1000 0
SWIDTH1 1000 0
BBX 15 16 1 -1
BITMAP
0100
0100
7FFC
0100
1110
0910
0920
0100
FFFE
1200
1110
10A0
1040
1430
180E
1000
ENDCHAR
STARTCHAR uni4E28
ENCODING 20008
SWIDTH 1000 0
SWIDTH1 1000 0
BBX 1 16 8 -1
BITMAP
80
80
80
80
80
80
80
80
80
80
80
80
80
80
80
80
ENDCHAR
STARTCHAR uni4E29
ENCODING 20009
SWIDTH 1000 0
SWIDTH1 1000 0
BBX 7 16 4 -1
BITMAP
02
02
82
82
82
82
82
82
86
9A
E2
82
02
02
02
02
ENDCHAR
STARTCHAR uni4E2A
ENCODING 20010
SWIDTH 1000 0
SWIDTH1 1000 0
BBX 15 16 1 -1
BITMAP
0100
0100
0280
0440
0820
1010
2108
C106
0100
0100
0100
0100
0100
0100
0100
0100
ENDCHAR
STARTCHAR uni4E2B
ENCODING 20011
SWIDTH 1000 0
SWIDTH1 1000 0
BBX 10 15 3 -1
BITMAP
8040
4080
2100
1200
0400
0400
0400
0400
0400
0400
0400
0400
0400
0400
0400
ENDCHAR
STARTCHAR uni4E2C
ENCODING 20012
SWIDTH 1000 0
SWIDTH1 1000 0
BBX 6 16 3 -1
BITMAP
04
04
04
44
24
24
04
0C
14
24
C4
04
04
04
04
04
ENDCHAR
STARTCHAR uni4E2D
ENCODING 20013
SWIDTH 1000 0
SWIDTH1 1000 0
BBX 11 16 3 -1
BITMAP
0400
0400
0400
0400
FFE0
8420
8420
8420
8420
8420
FFE0
8420
0400
0400
0400
0400
ENDCHAR
STARTCHAR uni4E2E
ENCODING 20014
SWIDTH 1000 0
SWIDTH1 1000 0
BBX 15 15 1 -1
BITMAP
7FF0
0410
0410
0410
7FD0
0410
0410
0410
FFD0
0412
040A
040A
0406
0402
0400
ENDCHAR
STARTCHAR uni4E2F
ENCODING 20015
SWIDTH 1000 0
SWIDTH1 1000 0
BBX 13 16 2 -1
BITMAP
0200
0218
02E0
0F00
F200
0218
02E0
0F00
F200
0218
02E0
0F00
F200
0200
0200
0200
ENDCHAR
STARTCHAR uni4E30
ENCODING 20016
SWIDTH 1000 0
SWIDTH1 1000 0
BBX 15 16 1 -1
BITMAP
0100
0100
0100
7FFC
0100
0100
0100
3FF8
0100
0100
0100
FFFE
0100
0100
0100
0100
ENDCHAR
STARTCHAR uni4E31
ENCODING 20017
SWIDTH 1000 0
SWIDTH1 1000 0
BBX 14 16 1 -1
BITMAP
0440
0440
4444
4444
4444
4444
4444
4C44
547C
6444
0440
0840
0840
1040
2040
C040
ENDCHAR
STARTCHAR uni4E32
ENCODING 20018
SWIDTH 1000 0
SWIDTH1 1000 0
BBX 13 16 2 -1
BITMAP
0200
0200
7FF0
4210
4210
7FF0
0200
0200
FFF8
8208
8208
FFF8
8208
0200
0200
0200
ENDCHAR
STARTCHAR uni4E33
ENCODING 20019
SWIDTH 1000 0
SWIDTH1 1000 0
BBX 13 16 2 -1
BITMAP
0880
0880
7FF0
4890
4890
7FF0
0880
0880
FFF8
8888
8888
FFF8
9088
2080
4080
8080
ENDCHAR
STARTCHAR uni4E34
ENCODING 20020
SWIDTH 1000 0
SWIDTH1 1000 0
BBX 14 16 2 -1
BITMAP
1100
1100
1100
93FC
9280
9440
9840
9000
93F8
9248
9248
9248
9248
13F8
1208
1000
ENDCHAR
STARTCHAR uni4E35
ENCODING 20021
SWIDTH 1000 0
SWIDTH1 1000 0
BBX 15 16 1 -1
BITMAP
0440
2448
1450
0440
FFFE
0000
0820
0440
3FF8
0100
0100
FFFE
0100
0100
0100
0100
ENDCHAR
STARTCHAR uni4E36
ENCODING 20022
SWIDTH 1000 0
SWIDTH1 1000 0
BBX 5 6 6 4
BITMAP
80
40
20
10
08
08
ENDCHAR
STARTCHAR uni4E37
ENCODING 20023
SWIDTH 1000 0
SWIDTH1 1000 0
BBX 11 7 3 5
BITMAP
0020
8020
4040
2040
1080
1100
0200
ENDCHAR
STARTCHAR uni4E38
ENCODING 20024
SWIDTH 1000 0
SWIDTH1 1000 0
BBX 15 16 1 -1
BITMAP
0200
0200
0200
0200
7FE0
0220
1220
0A20
0420
0420
0A20
0922
1122
2022
401E
8000
ENDCHAR
STARTCHAR uni4E39
ENCODING 20025
SWIDTH 1000 0
SWIDTH1 1000 0
BBX 15 15 1 -1
BITMAP
1FF0
1010
1010
1210
1110
1110
1010
FFFE
1010
1010
1010
2010
2010
4050
8020
ENDCHAR
STARTCHAR uni4E3A
ENCODING 20026
SWIDTH 1000 0
SWIDTH1 1000 0
BBX 13 16 1 -1
BITMAP
0100
2100
1100
1100
0100
7FF8
0208
0208
0288
0448
0448
0808
1008
2008
4050
8020
ENDCHAR
STARTCHAR uni4E3B
ENCODING 20027
SWIDTH 1000 0
SWIDTH1 1000 0
BBX 15 15 1 0
BITMAP
0200
0100
0000
7FFC
0100
0100
0100
0100
3FF8
0100
0100
0100
0100
0100
FFFE
ENDCHAR
STARTCHAR uni4E3C
ENCODING 20028
SWIDTH 1000 0
SWIDTH1 1000 0
BBX 15 16 1 -1
BITMAP
0820
0820
0820
0820
7FFC
0820
0A20
0920
0820
FFFE
0820
0820
1020
1020
2020
4020
ENDCHAR
STARTCHAR uni4E3D
ENCODING 20029
SWIDTH 1000 0
SWIDTH1 1000 0
BBX 15 15 1 -1
BITMAP
FFFE
0000
0000
3EF8
2288
2288
2288
32C8
2AA8
2AA8
2288
2288
2288
2AA8
2490
ENDCHAR
STARTCHAR uni4E3E
ENCODING 20030
SWIDTH 1000 0
SWIDTH1 1000 0
BBX 15 16 1 -1
BITMAP
2208
1108
1110
0020
FFFE
0820
1110
2108
CFE6
0100
0100
7FFC
0100
0100
0100
0100
ENDCHAR
STARTCHAR uni4E3F
ENCODING 20031
SWIDTH 1000 0
SWIDTH1 1000 0
BBX 6 16 3 -1
BITMAP
04
04
04
04
04
04
04
04
04
08
08
10
10
20
40
80
ENDCHAR
STARTCHAR uni4E40
ENCODING 20032
SWIDTH 1000 0
SWIDTH1 1000 0
BBX 14 10 2 2
BITMAP
1000
1000
2800
2800
4800
8400
0200
0180
0060
001C
ENDCHAR
STARTCHAR uni4E41
ENCODING 20033
SWIDTH 1000 0
SWIDTH1 1000 0
BBX 13 14 3 -1
BITMAP
FC00
0400
0400
0400
0400
0400
0400
0200
0200
0100
0080
0040
0020
0018
ENDCHAR
STARTCHAR uni4E42
ENCODING 20034
SWIDTH 1000 0
SWIDTH1 1000 0
BBX 15 15 1 -1
BITMAP
0010
2010
2010
1020
1020
0820
0840
0440
0280
0100
0280
0440
0820
3018
C006
ENDCHAR
STARTCHAR uni4E43
ENCODING 20035
SWIDTH 1000 0
SWIDTH1 1000 0
BBX 14 15 1 -1
BITMAP
3FF0
0410
0420
0420
0440
047C
0404
0804
0804
0804
1004
1004
2004
4028
8010
ENDCHAR
STARTCHAR uni4E44
ENCODING 20036
SWIDTH 1000 0
SWIDTH1 1000 0
BBX 10 14 3 0
BITMAP
0040
0040
0040
0040
0880
0480
0300
0100
0280
0440
8840
9000
E000
8000
ENDCHAR
STARTCHAR uni4E45
ENCODING 20037
SWIDTH 1000 0
SWIDTH1 1000 0
BBX 15 16 1 -1
BITMAP
0400
0400
0400
07E0
0820
0820
1040
2040
4080
0080
0140
0240
0420
0810
3008
C006
ENDCHAR
STARTCHAR uni4E46
ENCODING 20038
SWIDTH 1000 0
SWIDTH1 1000 0
BBX 15 16 1 -1
BITMAP
0010
0810
0810
1020
1020
2040
7FC0
2080
0080
0140
0140
0220
0420
0810
3008
C006
ENDCHAR
STARTCHAR uni4E47
ENCODING 20039
SWIDTH 1000 0
SWIDTH1 1000 0
BBX 14 15 1 0
BITMAP
0020
03F0
3E00
0200
0200
0200
0200
03FC
FE00
0200
0200
0204
0204
0204
01FC
ENDCHAR
STARTCHAR uni4E48
ENCODING 20040
SWIDTH 1000 0
SWIDTH1 1000 0
BBX 13 15 2 0
BITMAP
0200
0200
0400
0400
0880
1080
2100
4100
8200
0400
0840
1020
2010
7FF8
2008
ENDCHAR
STARTCHAR uni4E49
ENCODING 20041
SWIDTH 1000 0
SWIDTH1 1000 0
BBX 15 16 1 -1
BITMAP
0200
0110
2110
2010
1020
1020
0820
0840
0440
0280
0100
0280
0440
0820
3018
C006
ENDCHAR
STARTCHAR uni4E4A
ENCODING 20042
SWIDTH 1000 0
SWIDTH1 1000 0
BBX 13 9 2 5
BITMAP
0010
03F8
FC00
0010
4010
2020
2020
1040
1080
ENDCHAR
STARTCHAR uni4E4B
ENCODING 20043
SWIDTH 1000 0
SWIDTH1 1000 0
BBX 14 15 2 0
BITMAP
0400
0200
0200
0000
FFF0
0020
0040
0080
0100
0200
0400
0800
3000
4800
87FC
ENDCHAR
STARTCHAR uni4E4C
ENCODING 20044
SWIDTH 1000 0
SWIDTH1 1000 0
BBX 13 16 2 -1
BITMAP
0200
0400
3FE0
2020
2020
2020
20A0
2040
2000
3FF8
0008
0008
FFC8
0008
0050
0020
ENDCHAR
STARTCHAR uni4E4D
ENCODING 20045
SWIDTH 1000 0
SWIDTH1 1000 0
BBX 15 16 1 -1
BITMAP
0800
0800
0FFE
1200
1200
2200
43F8
8200
0200
0200
03FC
0200
0200
0200
0200
0200
ENDCHAR
STARTCHAR uni4E4E
ENCODING 20046
SWIDTH 1000 0
SWIDTH1 1000 0
BBX 15 16 1 -1
BITMAP
0010
00F8
3F00
0100
1110
0910
0920
0100
FFFE
0100
0100
0100
0100
0100
0500
0200
ENDCHAR
STARTCHAR uni4E4F
ENCODING 20047
SWIDTH 1000 0
SWIDTH1 1000 0
BBX 15 15 1 0
BITMAP
0010
01F8
7E00
0000
0200
0100
0100
7FF8
0030
00C0
0300
0C00
3000
4800
87FE
ENDCHAR
STARTCHAR uni4E50
ENCODING 20048
SWIDTH 1000 0
SWIDTH1 1000 0
BBX 13 16 2 -1
BITMAP
0040
01E0
3E00
2000
2200
4200
4200
7FF8
0200
1240
1220
2210
4208
8208
0A00
0400
ENDCHAR
STARTCHAR uni4E51
ENCODING 20049
SWIDTH 1000 0
SWIDTH1 1000 0
BBX 15 16 1 -1
BITMAP
0008
01FC
7F00
0100
0904
0908
1190
21A0
4540
8540
0920
1110
2108
4106
8100
0100
ENDCHAR
STARTCHAR uni4E52
ENCODING 20050
SWIDTH 1000 0
SWIDTH1 1000 0
BBX 15 16 1 -1
BITMAP
0020
00F0
1F00
1000
1000
1FF8
1080
1080
1080
1080
FFFE
0000
0800
1000
2000
4000
ENDCHAR
STARTCHAR uni4E53
ENCODING 20051
SWIDTH 1000 0
SWIDTH1 1000 0
BBX 15 16 1 -1
BITMAP
0020
00F0
1F00
1000
1000
1FF8
1080
1080
1080
1080
FFFE
0000
0040
0020
0010
0008
ENDCHAR
STARTCHAR uni4E54
ENCODING 20052
SWIDTH 1000 0
SWIDTH1 1000 0
BBX 15 16 1 -1
BITMAP
0010
00F8
3F00
0100
0200
7FFC
0440
0820
3018
C826
0820
0820
0820
1020
1020
2020
ENDCHAR
STARTCHAR uni4E55
ENCODING 20053
SWIDTH 1000 0
SWIDTH1 1000 0
BBX 15 16 1 -1
BITMAP
0008
00FC
3F80
2080
2FF8
2080
2080
3FFE
2080
2080
2FF8
2888
4888
48A8
8890
0080
ENDCHAR
STARTCHAR uni4E56
ENCODING 20054
SWIDTH 1000 0
SWIDTH1 1000 0
BBX 15 16 1 -1
BITMAP
0070
1F80
0100
0100
FFFE
0100
0920
0924
7928
0930
0922
1922
E91E
0100
0100
0100
ENDCHAR
STARTCHAR uni4E57
ENCODING 20055
SWIDTH 1000 0
SWIDTH1 1000 0
BBX 15 16 1 -1
BITMAP
00F8
3F00
0100
7FFC
0920
0920
FFFE
0920
0920
7FFC
0380
0540
0920
3118
C106
0100
ENDCHAR
STARTCHAR uni4E58
ENCODING 20056
SWIDTH 1000 0
SWIDTH1 1000 0
BBX 15 16 1 -1
BITMAP
00F8
3F00
0100
7FFC
0100
0924
F938
0922
3922
CB9E
0540
0920
3118
C106
0100
0100
ENDCHAR
STARTCHAR uni4E59
ENCODING 20057
SWIDTH 1000 0
SWIDTH1 1000 0
BBX 13 14 2 0
BITMAP
FFE0
0040
0080
0100
0200
0400
0800
1000
2000
2000
4008
4008
4008
3FF8
ENDCHAR
STARTCHAR uni4E5A
ENCODING 20058
SWIDTH 1000 0
SWIDTH1 1000 0
BBX 11 15 4 0
BITMAP
8000
8000
8000
8000
8000
8000
8000
8000
8000
8000
8000
8020
8020
8020
7FE0
ENDCHAR
STARTCHAR uni4E5B
ENCODING 20059
SWIDTH 1000 0
SWIDTH1 1000 0
BBX 14 4 1 9
BITMAP
FFFC
0004
0008
0010
ENDCHAR
STARTCHAR uni4E5C
ENCODING 20060
SWIDTH 1000 0
SWIDTH1 1000 0
BBX 15 13 1 0
BITMAP
1000
1030
10D0
1710
3810
D010
1010
1050
1020
1002
1002
1002
0FFE
ENDCHAR
STARTCHAR uni4E5D
ENCODING 20061
SWIDTH 1000 0
SWIDTH1 1000 0
BBX 15 16 1 -1
BITMAP
0400
0400
0400
0400
7FE0
0420
0420
0420
0820
0820
0820
1022
1022
2022
401E
8000
ENDCHAR
STARTCHAR uni4E5E
ENCODING 20062
SWIDTH 1000 0
SWIDTH1 1000 0
BBX 14 15 1 0
BITMAP
0800
0800
1FFC
1000
2000
4000
9FE0
0020
0040
0180
0600
0804
1004
1004
0FFC
ENDCHAR
STARTCHAR uni4E5F
ENCODING 20063
SWIDTH 1000 0
SWIDTH1 1000 0
BBX 15 15 1 0
BITMAP
0100
0100
1100
1130
11D0
1710
3910
D110
1110
1150
1120
1102
1002
1002
0FFE
ENDCHAR
STARTCHAR uni4E60
ENCODING 20064
SWIDTH 1000 0
SWIDTH1 1000 0
BBX 12 15 2 -1
BITMAP
FFF0
0010
0010
1010
0810
0410
0410
00D0
0310
1C10
E010
4010
0010
00A0
0040
ENDCHAR
STARTCHAR uni4E61
ENCODING 20065
SWIDTH 1000 0
SWIDTH1 1000 0
BBX 13 16 1 -1
BITMAP
0200
0200
0420
0820
1040
3F80
0108
0208
0410
1FE0
0040
0080
0100
0600
1800
E000
ENDCHAR
STARTCHAR uni4E62
ENCODING 20066
SWIDTH 1000 0
SWIDTH1 1000 0
BBX 14 15 2 0
BITMAP
1040
1040
1040
1040
9240
9240
9240
9240
9240
9240
9240
9E44
F244
0044
003C
ENDCHAR
STARTCHAR uni4E63
ENCODING 20067
SWIDTH 1000 0
SWIDTH1 1000 0
BBX 15 15 1 0
BITMAP
0840
0840
1040
1040
2240
4240
FC40
0440
0840
1040
2440
4242
FE42
4242
003E
ENDCHAR
STARTCHAR uni4E64
ENCODING 20068
SWIDTH 1000 0
SWIDTH1 1000 0
BBX 15 15 1 -1
BITMAP
FFFE
0200
0240
0220
0210
0208
0200
0000
7FF0
0060
0180
0600
1804
2004
1FFC
ENDCHAR
STARTCHAR uni4E65
ENCODING 20069
SWIDTH 1000 0
SWIDTH1 1000 0
BBX 13 16 2 -1
BITMAP
0010
03F8
FC00
0020
2020
1040
0880
0100
0000
FFE0
00C0
0300
0C00
3008
4008
3FF8
ENDCHAR
STARTCHAR uni4E66
ENCODING 20070
SWIDTH 1000 0
SWIDTH1 1000 0
BBX 14 16 1 -1
BITMAP
0220
0210
0208
3FE0
0220
0220
0220
0220
FFFC
0204
0204
0204
0204
0228
0210
0200
ENDCHAR
STARTCHAR uni4E67
ENCODING 20071
SWIDTH 1000 0
SWIDTH1 1000 0
BBX 13 16 2 -1
BITMAP
0080
0880
0480
2480
1080
13F8
FC80
0080
0080
0000
FFE0
00C0
0700
3808
4008
3FF8
ENDCHAR
STARTCHAR uni4E68
ENCODING 20072
SWIDTH 1000 0
SWIDTH1 1000 0
BBX 15 16 1 -1
BITMAP
0820
0820
1020
2220
4120
FFA0
00A0
0020
7F20
4120
4120
4122
4122
4122
7F1E
4100
ENDCHAR
STARTCHAR uni4E69
ENCODING 20073
SWIDTH 1000 0
SWIDTH1 1000 0
BBX 14 16 2 -1
BITMAP
1040
1040
1040
1040
1F40
1040
1040
1040
FE40
8240
8240
8244
8244
8244
FE3C
8200
ENDCHAR
STARTCHAR uni4E6A
ENCODING 20074
SWIDTH 1000 0
SWIDTH1 1000 0
BBX 15 14 1 0
BITMAP
FDFC
0524
0524
0924
0924
11FC
1124
2124
2124
4124
41FC
4002
4002
3FFE
ENDCHAR
STARTCHAR uni4E6B
ENCODING 20075
SWIDTH 1000 0
SWIDTH1 1000 0
BBX 14 16 1 -1
BITMAP
1000
1000
7E7C
1244
1244
1244
227C
4A44
8400
7FF0
0060
0180
0600
1804
2004
1FFC
ENDCHAR
STARTCHAR uni4E6C
ENCODING 20076
SWIDTH 1000 0
SWIDTH1 1000 0
BBX 13 15 2 -1
BITMAP
7FF8
4000
7FF0
4010
7FF0
4000
7FF8
0000
FFE0
00C0
0300
0C00
3008
4008
3FF8
ENDCHAR
STARTCHAR uni4E6D
ENCODING 20077
SWIDTH 1000 0
SWIDTH1 1000 0
BBX 15 15 1 -1
BITMAP
FFFE
0400
0800
1FF0
2810
C810
0FF0
0000
7FF0
0060
0180
0600
1804
2004
1FFC
ENDCHAR
STARTCHAR uni4E6E
ENCODING 20078
SWIDTH 1000 0
SWIDTH1 1000 0
BBX 13 16 2 -1
BITMAP
1800
E1F8
8108
8908
B908
C928
8910
1100
2100
FFE0
00C0
0300
0C00
3008
4008
3FF8
ENDCHAR
STARTCHAR uni4E6F
ENCODING 20079
SWIDTH 1000 0
SWIDTH1 1000 0
BBX 15 16 1 -1
BITMAP
00F8
7F00
1110
0920
FFFE
0100
0100
0500
0200
7FF0
0060
0180
0600
1804
2004
1FFC
ENDCHAR
STARTCHAR uni4E70
ENCODING 20080
SWIDTH 1000 0
SWIDTH1 1000 0
BBX 15 15 1 -1
BITMAP
7FFC
0004
0888
0480
2480
1080
1080
0100
FFFE
0100
02C0
0420
0810
3008
C004
ENDCHAR
STARTCHAR uni4E71
ENCODING 20081
SWIDTH 1000 0
SWIDTH1 1000 0
BBX 15 15 1 0
BITMAP
0440
0E40
3840
0840
0840
FF40
0840
0840
3E40
2240
2240
2242
2242
3E42
223E
ENDCHAR
STARTCHAR uni4E72
ENCODING 20082
SWIDTH 1000 0
SWIDTH1 1000 0
BBX 15 16 1 -1
BITMAP
4080
2080
09FC
1204
2448
E040
20A0
2318
2C06
0000
7FF0
0060
0380
1C04
2004
1FFC
ENDCHAR
STARTCHAR uni4E73
ENCODING 20083
SWIDTH 1000 0
SWIDTH1 1000 0
BBX 15 16 1 -1
BITMAP
0220
0F20
F020
0120
9120
4A20
0020
FE20
0420
0820
0F20
F822
4822
0822
281E
1000
ENDCHAR
STARTCHAR uni4E74
ENCODING 20084
SWIDTH 1000 0
SWIDTH1 1000 0
BBX 14 16 2 -1
BITMAP
1018
11E0
FD00
1100
1DFC
F110
1110
5210
2410
0000
FFE0
00C0
0700
3808
4008
3FF8
ENDCHAR
STARTCHAR uni4E75
ENCODING 20085
SWIDTH 1000 0
SWIDTH1 1000 0
BBX 15 16 1 -1
BITMAP
1020
0820
7F20
0020
2220
1420
FFA0
0820
0820
0820
7F20
0822
0822
0822
081E
0800
ENDCHAR
STARTCHAR uni4E76
ENCODING 20086
SWIDTH 1000 0
SWIDTH1 1000 0
BBX 13 16 2 -1
BITMAP
0240
0220
FFF8
0200
7FF0
4210
7FF0
4210
7FF0
4210
0000
7FE0
0380
3C08
4008
3FF8
ENDCHAR
STARTCHAR uni4E77
ENCODING 20087
SWIDTH 1000 0
SWIDTH1 1000 0
BBX 14 16 2 -1
BITMAP
2040
1040
8150
4948
1244
2450
E060
2180
2E00
0000
FFE0
00C0
0700
3808
4008
3FF8
ENDCHAR
STARTCHAR uni4E78
ENCODING 20088
SWIDTH 1000 0
SWIDTH1 1000 0
BBX 15 15 1 0
BITMAP
0800
087C
2844
2E64
3A54
EAFE
2A44
2AA4
2A94
2EFE
2804
282A
2012
2002
1FFE
ENDCHAR
STARTCHAR uni4E79
ENCODING 20089
SWIDTH 1000 0
SWIDTH1 1000 0
BBX 15 16 1 -1
BITMAP
0820
0820
FFA0
0820
7F20
4120
7F20
4120
7F20
4920
0820
FFA2
0822
0822
081E
0800
ENDCHAR
STARTCHAR uni4E7A
ENCODING 20090
SWIDTH 1000 0
SWIDTH1 1000 0
BBX 14 16 1 -1
BITMAP
0618
38E0
2080
3EFC
2290
3E90
2090
4110
8000
7FF0
0060
0180
0600
1804
2004
1FFC
ENDCHAR
STARTCHAR uni4E7B
ENCODING 20091
SWIDTH 1000 0
SWIDTH1 1000 0
BBX 15 16 1 -1
BITMAP
1010
0810
FF28
2044
3E82
2210
2208
4220
4A10
8408
7FF0
0060
0380
1C04
2004
1FFC
ENDCHAR
STARTCHAR uni4E7C
ENCODING 20092
SWIDTH 1000 0
SWIDTH1 1000 0
BBX 14 16 1 -1
BITMAP
2080
1040
87FC
4040
1040
23F8
E040
2040
27FC
2000
7FF0
0060
0380
1C04
2004
1FFC
ENDCHAR
STARTCHAR uni4E7D
ENCODING 20093
SWIDTH 1000 0
SWIDTH1 1000 0
BBX 14 16 1 -1
BITMAP
0108
1FD0
0120
7FFC
0200
0FF0
3810
CFF0
0810
0FF0
0000
3FF0
01C0
1E04
2004
1FFC
ENDCHAR
STARTCHAR uni4E7E
ENCODING 20094
SWIDTH 1000 0
SWIDTH1 1000 0
BBX 15 16 1 -1
BITMAP
1040
1040
1080
FEFE
1100
7E00
44FC
7C08
4410
7C20
1040
FE80
1102
1102
10FE
1000
ENDCHAR
STARTCHAR uni4E7F
ENCODING 20095
SWIDTH 1000 0
SWIDTH1 1000 0
BBX 15 16 1 -1
BITMAP
0F20
F020
1120
8920
4220
1020
2220
7C20
0820
1120
FFA0
08A2
4A22
8922
281E
1000
ENDCHAR
STARTCHAR uni4E80
ENCODING 20096
SWIDTH 1000 0
SWIDTH1 1000 0
BBX 14 16 2 -1
BITMAP
0800
1FC0
2080
7FE0
A220
3FE0
2220
3FE0
0200
7FF0
4210
7FF0
4210
7FF4
0204
01FC
ENDCHAR
STARTCHAR uni4E81
ENCODING 20097
SWIDTH 1000 0
SWIDTH1 1000 0
BBX 15 16 1 -1
BITMAP
0820
0820
FFA0
087E
7F40
4180
7F7C
4104
7F08
0010
7F20
0840
FFC2
0842
083E
0800
ENDCHAR
STARTCHAR uni4E82
ENCODING 20098
SWIDTH 1000 0
SWIDTH1 1000 0
BBX 15 16 1 -1
BITMAP
0F20
F020
4920
2220
FE20
1420
0820
FF20
9520
BD20
8320
BD22
9522
8922
951E
A300
ENDCHAR
STARTCHAR uni4E83
ENCODING 20099
SWIDTH 1000 0
SWIDTH1 1000 0
BBX 15 16 1 -1
BITMAP
0820
4920
2A20
FFA0
2A20
4920
88A0
4120
4120
77A0
9120
5522
27A2
4122
811E
0100
ENDCHAR
STARTCHAR uni4E84
ENCODING 20100
SWIDTH 1000 0
SWIDTH1 1000 0
BBX 15 16 1 -1
BITMAP
0820
FFA0
0820
7F20
0020
FFA0
80A0
7F20
0020
7F20
4120
7F22
4122
2222
0F9E
F000
ENDCHAR
STARTCHAR uni4E85
ENCODING 20101
SWIDTH 1000 0
SWIDTH1 1000 0
BBX 3 16 10 -1
BITMAP
20
20
20
20
20
20
20
20
20
20
20
20
20
20
A0
40
ENDCHAR
STARTCHAR uni4E86
ENCODING 20102
SWIDTH 1000 0
SWIDTH1 1000 0
BBX 12 15 2 -1
BITMAP
FFF0
0020
0040
0080
0300
0200
0200
0200
0200
0200
0200
0200
0200
0A00
0400
ENDCHAR
STARTCHAR uni4E87
ENCODING 20103
SWIDTH 1000 0
SWIDTH1 1000 0
BBX 13 16 2 -1
BITMAP
1000
1000
1000
1FF8
2008
2210
4220
8200
0200
0200
0200
0200
0200
0200
0A00
0400
ENDCHAR
STARTCHAR uni4E88
ENCODING 20104
SWIDTH 1000 0
SWIDTH1 1000 0
BBX 14 15 2 -1
BITMAP
3FE0
0020
0440
0280
0100
FFFC
0104
0108
0100
0100
0100
0100
0100
0500
0200
ENDCHAR
STARTCHAR uni4E89
ENCODING 20105
SWIDTH 1000 0
SWIDTH1 1000 0
BBX 15 16 1 -1
BITMAP
0800
0800
1FE0
2020
4040
BFF8
0108
0108
7FFE
0108
0108
3FF8
0108
0100
0500
0200
ENDCHAR
STARTCHAR uni4E8A
ENCODING 20106
SWIDTH 1000 0
SWIDTH1 1000 0
BBX 15 16 1 -1
BITMAP
0100
0100
7FFC
1110
0920
3FF8
0108
0108
FFFE
0108
0108
3FF8
0108
0100
0500
0200
ENDCHAR
STARTCHAR uni4E8B
ENCODING 20107
SWIDTH 1000 0
SWIDTH1 1000 0
BBX 15 16 1 -1
BITMAP
0100
0100
FFFE
0100
3FF8
2108
3FF8
0100
3FF8
0108
FFFE
0108
3FF8
0100
0500
0200
ENDCHAR
STARTCHAR uni4E8C
ENCODING 20108
SWIDTH 1000 0
SWIDTH1 1000 0
BBX 15 10 1 2
BITMAP
3FF8
0000
0000
0000
0000
0000
0000
0000
0000
FFFE
ENDCHAR
STARTCHAR uni4E8D
ENCODING 20109
SWIDTH 1000 0
SWIDTH1 1000 0
BBX 15 15 1 -1
BITMAP
3FF8
0000
0000
0000
0000
FFFE
0100
0100
0100
0100
0100
0100
0100
0500
0200
ENDCHAR
STARTCHAR uni4E8E
ENCODING 20110
SWIDTH 1000 0
SWIDTH1 1000 0
BBX 15 15 1 -1
BITMAP
3FF8
0100
0100
0100
0100
FFFE
0100
0100
0100
0100
0100
0100
0100
0500
0200
ENDCHAR
STARTCHAR uni4E8F
ENCODING 20111
SWIDTH 1000 0
SWIDTH1 1000 0
BBX 15 15 1 -1
BITMAP
3FF8
0000
0000
0000
FFFE
0400
0400
0800
0FF0
0010
0010
0010
0010
00A0
0040
ENDCHAR
STARTCHAR uni4E90
ENCODING 20112
SWIDTH 1000 0
SWIDTH1 1000 0
BBX 15 15 1 -1
BITMAP
3FF8
0200
0200
0200
FFFE
0400
0400
0800
0FF0
0010
0010
0010
0010
00A0
0040
ENDCHAR
STARTCHAR uni4E91
ENCODING 20113
SWIDTH 1000 0
SWIDTH1 1000 0
BBX 15 15 1 -1
BITMAP
3FF8
0000
0000
0000
0000
FFFE
0200
0400
0400
0840
1020
2010
7FF8
2008
0008
ENDCHAR
STARTCHAR uni4E92
ENCODING 20114
SWIDTH 1000 0
SWIDTH1 1000 0
BBX 15 14 1 0
BITMAP
7FFC
0400
0400
0400
0FF0
0810
0810
1010
1020
1FE0
0020
0040
0040
FFFE
ENDCHAR
STARTCHAR uni4E93
ENCODING 20115
SWIDTH 1000 0
SWIDTH1 1000 0
BBX 15 15 1 -1
BITMAP
3FF8
0000
0000
0000
FFFE
0820
0820
0820
0820
0820
1020
1020
2020
4020
8020
ENDCHAR
STARTCHAR uni4E94
ENCODING 20116
SWIDTH 1000 0
SWIDTH1 1000 0
BBX 15 14 1 0
BITMAP
7FFC
0200
0200
0200
0200
3FF0
0410
0410
0410
0410
0810
0810
0810
FFFE
ENDCHAR
STARTCHAR uni4E95
ENCODING 20117
SWIDTH 1000 0
SWIDTH1 1000 0
BBX 15 16 1 -1
BITMAP
0820
0820
0820
0820
7FFC
0820
0820
0820
0820
FFFE
0820
0820
1020
1020
2020
4020
ENDCHAR
STARTCHAR uni4E96
ENCODING 20118
SWIDTH 1000 0
SWIDTH1 1000 0
BBX 15 13 1 0
BITMAP
3FF8
0000
0000
0000
FFFE
0000
0000
0000
3FF8
0000
0000
0000
FFFE
ENDCHAR
STARTCHAR uni4E97
ENCODING 20119
SWIDTH 1000 0
SWIDTH1 1000 0
BBX 15 15 1 0
BITMAP
0100
0100
2108
2108
2108
3FF8
0000
0000
0000
3FF8
0000
0000
0000
0000
FFFE
ENDCHAR
STARTCHAR uni4E98
ENCODING 20120
SWIDTH 1000 0
SWIDTH1 1000 0
BBX 15 14 1 0
BITMAP
7FFC
0000
0000
1FF0
1010
1010
1FF0
1010
1010
1FF0
1010
0000
0000
FFFE
ENDCHAR
STARTCHAR uni4E99
ENCODING 20121
SWIDTH 1000 0
SWIDTH1 1000 0
BBX 15 14 1 0
BITMAP
7FFC
0400
0400
0400
0FF0
0810
0A10
1110
1020
0420
0220
0040
0040
FFFE
ENDCHAR
STARTCHAR uni4E9A
ENCODING 20122
SWIDTH 1000 0
SWIDTH1 1000 0
BBX 15 14 1 0
BITMAP
7FFC
0440
0440
0440
0440
4444
2444
2448
1448
1450
0440
0440
0440
FFFE
ENDCHAR
STARTCHAR uni4E9B
ENCODING 20123
SWIDTH 1000 0
SWIDTH1 1000 0
BBX 15 15 1 0
BITMAP
0440
0440
2444
2748
2470
2442
2442
2F42
F03E
4000
0000
1FF0
0000
0000
7FFC
ENDCHAR
STARTCHAR uni4E9C
ENCODING 20124
SWIDTH 1000 0
SWIDTH1 1000 0
BBX 15 14 1 0
BITMAP
7FFC
0440
0440
0440
3FF8
2448
2448
2448
2448
3FF8
0440
0440
0440
FFFE
ENDCHAR
STARTCHAR uni4E9D
ENCODING 20125
SWIDTH 1000 0
SWIDTH1 1000 0
BBX 15 15 1 0
BITMAP
0400
0820
1010
3FF8
0810
1020
2448
7EFC
0204
0000
3FF8
0000
0000
0000
FFFE
ENDCHAR
STARTCHAR uni4E9E
ENCODING 20126
SWIDTH 1000 0
SWIDTH1 1000 0
BBX 15 14 1 0
BITMAP
7FFC
0440
0440
0440
3C78
2008
2008
2008
2008
3C78
0440
0440
0440
FFFE
ENDCHAR
STARTCHAR uni4E9F
ENCODING 20127
SWIDTH 1000 0
SWIDTH1 1000 0
BBX 15 14 1 0
BITMAP
3FF0
0020
0040
0180
793C
4904
4944
4928
4910
7928
0144
0500
0200
FFFE
ENDCHAR
STARTCHAR uni4EA0
ENCODING 20128
SWIDTH 1000 0
SWIDTH1 1000 0
BBX 15 4 1 11
BITMAP
0200
0100
0100
FFFE
ENDCHAR
STARTCHAR uni4EA1
ENCODING 20129
SWIDTH 1000 0
SWIDTH1 1000 0
BBX 15 15 1 0
BITMAP
0200
0100
0100
0000
FFFE
1000
1000
1000
1000
1000
1000
1000
1000
1000
1FFC
ENDCHAR
STARTCHAR uni4EA2
ENCODING 20130
SWIDTH 1000 0
SWIDTH1 1000 0
BBX 15 16 1 -1
BITMAP
0200
0100
0100
FFFE
0000
0000
0FE0
0820
0820
0820
0820
0822
1022
1022
201E
4000
ENDCHAR
STARTCHAR uni4EA3
ENCODING 20131
SWIDTH 1000 0
SWIDTH1 1000 0
BBX 15 16 1 -1
BITMAP
0200
0100
0100
FFFE
0420
0420
0420
0420
0420
0420
0420
0820
0820
1020
2020
4020
ENDCHAR
STARTCHAR uni4EA4
ENCODING 20132
SWIDTH 1000 0
SWIDTH1 1000 0
BBX 15 16 1 -1
BITMAP
0200
0100
0100
FFFE
0000
1010
1008
2024
4824
0440
0280
0100
0280
0C40
3030
C00E
ENDCHAR
STARTCHAR uni4EA5
ENCODING 20133
SWIDTH 1000 0
SWIDTH1 1000 0
BBX 13 16 2 -1
BITMAP
0400
0200
0000
FFF8
0400
0800
1040
2080
7F10
0220
0C40
3080
C140
0620
1810
E008
ENDCHAR
STARTCHAR uni4EA6
ENCODING 20134
SWIDTH 1000 0
SWIDTH1 1000 0
BBX 15 16 1 -1
BITMAP
0200
0100
0100
FFFE
0440
0440
2450
2448
2448
4444
4444
8844
0840
1040
2140
4080
ENDCHAR
STARTCHAR uni4EA7
ENCODING 20135
SWIDTH 1000 0
SWIDTH1 1000 0
BBX 15 16 1 -1
BITMAP
0200
0100
7FFC
0000
0820
0420
0440
3FFE
2000
2000
2000
2000
2000
4000
4000
8000
ENDCHAR
STARTCHAR uni4EA8
ENCODING 20136
SWIDTH 1000 0
SWIDTH1 1000 0
BBX 15 16 1 -1
BITMAP
0200
0100
FFFE
0000
1FF0
1010
1010
1FF0
0000
3FF0
0060
0180
0100
0100
0500
0200
ENDCHAR
STARTCHAR uni4EA9
ENCODING 20137
SWIDTH 1000 0
SWIDTH1 1000 0
BBX 15 16 1 -1
BITMAP
0200
0100
0100
FFFE
0000
0000
3FF8
2108
2108
2108
3FF8
2108
2108
2108
3FF8
2008
ENDCHAR
STARTCHAR uni4EAA
ENCODING 20138
SWIDTH 1000 0
SWIDTH1 1000 0
BBX 15 16 1 -1
BITMAP
0200
0100
FFFE
0440
1450
2448
4844
0940
1080
7FE0
0020
0020
0010
0010
0008
0006
ENDCHAR
STARTCHAR uni4EAB
ENCODING 20139
SWIDTH 1000 0
SWIDTH1 1000 0
BBX 15 16 1 -1
BITMAP
0200
0100
7FFC
0000
1FF0
1010
1FF0
0000
1FE0
0040
0180
FFFE
0100
0100
0500
0200
ENDCHAR
STARTCHAR uni4EAC
ENCODING 20140
SWIDTH 1000 0
SWIDTH1 1000 0
BBX 15 16 1 -1
BITMAP
0200
0100
FFFE
0000
0000
1FF0
1010
1010
1010
1FF0
0100
1110
1108
2104
4504
0200
ENDCHAR
STARTCHAR uni4EAD
ENCODING 20141
SWIDTH 1000 0
SWIDTH1 1000 0
BBX 15 16 1 -1
BITMAP
0200
0100
7FFC
0000
1FF0
1010
1FF0
0000
7FFE
4002
9FF4
0100
0100
0100
0500
0200
ENDCHAR
STARTCHAR uni4EAE
ENCODING 20142
SWIDTH 1000 0
SWIDTH1 1000 0
BBX 15 16 1 -1
BITMAP
0200
0100
7FFC
0000
1FF0
1010
1FF0
0000
7FFE
4002
8FE4
0820
0820
1022
2022
C01E
ENDCHAR
STARTCHAR uni4EAF
ENCODING 20143
SWIDTH 1000 0
SWIDTH1 1000 0
BBX 15 16 1 -1
BITMAP
0200
0100
FFFE
0000
1FF0
1010
1FF0
0000
3FF8
2008
2008
3FF8
2008
2008
3FF8
2008
ENDCHAR
STARTCHAR uni4EB0
ENCODING 20144
SWIDTH 1000 0
SWIDTH1 1000 0
BBX 15 16 1 -1
BITMAP
0200
0100
FFFE
0000
0000
1FF0
1010
1FF0
1010
1FF0
0100
1110
1108
2104
4504
0200
ENDCHAR
STARTCHAR uni4EB1
ENCODING 20145
SWIDTH 1000 0
SWIDTH1 1000 0
BBX 15 16 1 -1
BITMAP
0200
0100
FFFE
0800
0800
13F8
1208
3208
53F8
9208
1208
13F8
1208
1000
17FC
1000
ENDCHAR
STARTCHAR uni4EB2
ENCODING 20146
SWIDTH 1000 0
SWIDTH1 1000 0
BBX 15 16 1 -1
BITMAP
0200
0100
3FF8
0000
0820
0440
FFFE
0100
0100
7FFC
0100
0920
1110
2108
4504
0200
ENDCHAR
STARTCHAR uni4EB3
ENCODING 20147
SWIDTH 1000 0
SWIDTH1 1000 0
BBX 15 16 1 -1
BITMAP
0100
7FFC
0000
1FF0
1010
1FF0
0000
7FFE
4002
80F4
3F00
0200
03F8
7E02
0202
01FE
ENDCHAR
STARTCHAR uni4EB4
ENCODING 20148
SWIDTH 1000 0
SWIDTH1 1000 0
BBX 15 16 1 -1
BITMAP
0100
7FFC
0000
1FF0
1010
1FF0
0000
7FFE
4102
9FF4
0100
7FFC
0200
3FE0
0822
701E
ENDCHAR
STARTCHAR uni4EB5
ENCODING 20149
SWIDTH 1000 0
SWIDTH1 1000 0
BBX 15 16 1 -1
BITMAP
0100
FFFE
0000
0840
7DF8
0848
0CC8
784A
08AA
2906
1302
0488
0C50
3530
C60E
0400
ENDCHAR
STARTCHAR uni4EB6
ENCODING 20150
SWIDTH 1000 0
SWIDTH1 1000 0
BBX 15 16 1 -1
BITMAP
0100
FFFE
0000
3FF8
2008
27C8
2448
3FF8
0000
1FF0
1010
1FF0
1010
1FF0
0000
FFFE
ENDCHAR
STARTCHAR uni4EB7
ENCODING 20151
SWIDTH 1000 0
SWIDTH1 1000 0
BBX 15 16 1 -1
BITMAP
0100
0080
3FFC
0410
0220
3FFE
2240
2FF8
2248
3FFE
2248
2FF8
2660
4A50
524C
8240
ENDCHAR
STARTCHAR uni4EB8
ENCODING 20152
SWIDTH 1000 0
SWIDTH1 1000 0
BBX 15 16 1 -1
BITMAP
2088
1048
FC50
01FC
7D24
4524
7DFC
0124
7D24
09FC
1020
1C20
F3FE
1020
5020
2020
ENDCHAR
STARTCHAR uni4EB9
ENCODING 20153
SWIDTH 1000 0
SWIDTH1 1000 0
BBX 15 16 1 -1
BITMAP
0100
FFFE
0000
2FEC
4824
6BAC
4824
6BAC
4AA4
FFFE
9012
1FF0
1010
1FF0
1010
FFFE
ENDCHAR
STARTCHAR uni4EBA
ENCODING 20154
SWIDTH 1000 0
SWIDTH1 1000 0
BBX 15 16 1 -1
BITMAP
0100
0100
0100
0100
0100
0100
0280
0280
0440
0440
0820
0820
1010
2008
4004
8002
ENDCHAR
STARTCHAR uni4EBB
ENCODING 20155
SWIDTH 1000 0
SWIDTH1 1000 0
BBX 5 16 1 -1
BITMAP
08
08
08
10
10
30
30
50
90
10
10
10
10
10
10
10
ENDCHAR
STARTCHAR uni4EBC
ENCODING 20156
SWIDTH 1000 0
SWIDTH1 1000 0
BBX 15 15 1 0
BITMAP
0100
0100
0100
0100
0280
0280
0440
0440
0820
1010
2008
C006
0000
0000
FFFE
ENDCHAR
STARTCHAR uni4EBD
ENCODING 20157
SWIDTH 1000 0
SWIDTH1 1000 0
BBX 15 14 1 1
BITMAP
0100
0100
0100
0280
0280
0440
0820
1010
2008
C006
0200
0100
0080
0080
ENDCHAR
STARTCHAR uni4EBE
ENCODING 20158
SWIDTH 1000 0
SWIDTH1 1000 0
BBX 13 15 3 0
BITMAP
0200
0200
0200
8200
8200
8500
8500
8880
8880
9040
A020
C018
8000
8000
FFF8
ENDCHAR
STARTCHAR uni4EBF
ENCODING 20159
SWIDTH 1000 0
SWIDTH1 1000 0
BBX 15 16 1 -1
BITMAP
0800
0800
0BFC
1008
1010
3020
3040
5080
9080
1100
1100
1202
1202
1202
11FE
1000
ENDCHAR
STARTCHAR uni4EC0
ENCODING 20160
SWIDTH 1000 0
SWIDTH1 1000 0
BBX 15 16 1 -1
BITMAP
0820
0820
0820
1020
1020
3020
37FE
5020
9020
1020
1020
1020
1020
1020
1020
1020
ENDCHAR
STARTCHAR uni4EC1
ENCODING 20161
SWIDTH 1000 0
SWIDTH1 1000 0
BBX 15 16 1 -1
BITMAP
0800
0800
0800
13FC
1000
3000
3000
5000
9000
1000
1000
1000
17FE
1000
1000
1000
ENDCHAR
STARTCHAR uni4EC2
ENCODING 20162
SWIDTH 1000 0
SWIDTH1 1000 0
BBX 14 16 1 -1
BITMAP
0840
0840
0840
1040
13FC
3044
3044
5044
9044
1084
1084
1084
1104
1104
1228
1410
ENDCHAR
STARTCHAR uni4EC3
ENCODING 20163
SWIDTH 1000 0
SWIDTH1 1000 0
BBX 15 16 1 -1
BITMAP
0800
0800
0BFE
1020
1020
3020
3020
5020
9020
1020
1020
1020
1020
1020
10A0
1040
ENDCHAR
STARTCHAR uni4EC4
ENCODING 20164
SWIDTH 1000 0
SWIDTH1 1000 0
BBX 15 15 1 -1
BITMAP
3FFE
2000
2000
2080
2080
2080
2080
2080
2140
2140
2220
4220
4410
8808
1006
ENDCHAR
STARTCHAR uni4EC5
ENCODING 20165
SWIDTH 1000 0
SWIDTH1 1000 0
BBX 15 16 1 -1
BITMAP
0800
0BFC
0904
1104
1104
3088
3088
5088
9050
1050
1020
1020
1050
1088
1104
1602
ENDCHAR
STARTCHAR uni4EC6
ENCODING 20166
SWIDTH 1000 0
SWIDTH1 1000 0
BBX 14 16 1 -1
BITMAP
0840
0840
0840
1040
1040
3050
3048
5044
9044
1040
1040
1040
1040
1040
1040
1040
ENDCHAR
STARTCHAR uni4EC7
ENCODING 20167
SWIDTH 1000 0
SWIDTH1 1000 0
BBX 15 16 1 -1
BITMAP
0900
0900
0900
1100
17F0
3110
3110
5110
9110
1110
1110
1212
1212
1412
180E
1000
ENDCHAR
STARTCHAR uni4EC8
ENCODING 20168
SWIDTH 1000 0
SWIDTH1 1000 0
BBX 15 16 1 -1
BITMAP
0800
0820
0920
1120
1120
3120
3120
5120
9120
1110
1110
1210
1208
1408
1804
1002
ENDCHAR
STARTCHAR uni4EC9
ENCODING 20169
SWIDTH 1000 0
SWIDTH1 1000 0
BBX 15 16 1 -1
BITMAP
0800
09F0
0910
1110
1110
3110
3110
5110
9110
1110
1110
1112
1112
1212
120E
1400
ENDCHAR
STARTCHAR uni4ECA
ENCODING 20170
SWIDTH 1000 0
SWIDTH1 1000 0
BBX 15 16 1 -1
BITMAP
0100
0100
0280
0440
0820
1210
2108
C106
0000
1FF0
0010
0020
0020
0040
0080
0100
ENDCHAR
STARTCHAR uni4ECB
ENCODING 20171
SWIDTH 1000 0
SWIDTH1 1000 0
BBX 15 16 1 -1
BITMAP
0100
0100
0280
0440
0820
1010
2008
C826
0820
0820
0820
0820
1020
1020
2020
4020
ENDCHAR
STARTCHAR uni4ECC
ENCODING 20172
SWIDTH 1000 0
SWIDTH1 1000 0
BBX 15 16 1 -1
BITMAP
0100
0100
0280
0240
0420
0810
1108
6104
0100
0280
0280
0440
0820
1010
2008
C006
ENDCHAR
STARTCHAR uni4ECD
ENCODING 20173
SWIDTH 1000 0
SWIDTH1 1000 0
BBX 14 16 1 -1
BITMAP
0800
0800
0BF8
1088
1090
3090
30A0
50BC
9084
1084
1104
1104
1104
1204
1228
1410
ENDCHAR
STARTCHAR uni4ECE
ENCODING 20174
SWIDTH 1000 0
SWIDTH1 1000 0
BBX 15 16 1 -1
BITMAP
0820
0820
0820
0820
0820
0820
0820
0820
0850
1450
1250
1288
2088
2104
4204
8402
ENDCHAR
STARTCHAR uni4ECF
ENCODING 20175
SWIDTH 1000 0
SWIDTH1 1000 0
BBX 14 16 1 -1
BITMAP
0840
0840
0840
1040
1040
3080
3080
5080
9100
1110
1108
1208
17FC
1204
1004
1000
ENDCHAR
STARTCHAR uni4ED0
ENCODING 20176
SWIDTH 1000 0
SWIDTH1 1000 0
BBX 15 16 1 -1
BITMAP
0100
0100
0280
0440
0820
1010
2108
C106
0100
0100
FFFE
0100
0100
0100
0100
0100
ENDCHAR
STARTCHAR uni4ED1
ENCODING 20177
SWIDTH 1000 0
SWIDTH1 1000 0
BBX 15 15 1 0
BITMAP
0100
0100
0280
0440
0820
1010
2008
C806
0830
08C0
0F00
0808
0808
0808
07F8
ENDCHAR
STARTCHAR uni4ED2
ENCODING 20178
SWIDTH 1000 0
SWIDTH1 1000 0
BBX 15 15 1 0
BITMAP
0100
0100
0280
0440
0820
1010
2008
C606
0180
0040
0000
0C00
0300
00C0
0020
ENDCHAR
STARTCHAR uni4ED3
ENCODING 20179
SWIDTH 1000 0
SWIDTH1 1000 0
BBX 15 15 1 0
BITMAP
0100
0100
0280
0440
0820
3018
C006
0FE0
0820
0820
08A0
0844
0804
0804
07FC
ENDCHAR
STARTCHAR uni4ED4
ENCODING 20180
SWIDTH 1000 0
SWIDTH1 1000 0
BBX 15 16 1 -1
BITMAP
0800
0BF8
0808
1010
1020
3040
3040
57FE
9040
1040
1040
1040
1040
1040
1140
1080
ENDCHAR
STARTCHAR uni4ED5
ENCODING 20181
SWIDTH 1000 0
SWIDTH1 1000 0
BBX 15 16 1 -1
BITMAP
0840
0840
0840
1040
1040
3FFE
3040
5040
9040
1040
1040
1040
1040
17FC
1000
1000
ENDCHAR
STARTCHAR uni4ED6
ENCODING 20182
SWIDTH 1000 0
SWIDTH1 1000 0
BBX 15 16 1 -1
BITMAP
0840
0840
0A40
1258
1268
32C8
3348
5E48
9248
1248
1258
1242
1202
1202
11FE
1000
ENDCHAR
STARTCHAR uni4ED7
ENCODING 20183
SWIDTH 1000 0
SWIDTH1 1000 0
BBX 15 16 1 -1
BITMAP
0810
0810
0810
1010
13FE
3010
3010
5110
9110
1090
1090
1050
1020
1050
1188
1606
ENDCHAR
STARTCHAR uni4ED8
ENCODING 20184
SWIDTH 1000 0
SWIDTH1 1000 0
BBX 15 16 1 -1
BITMAP
0810
0810
0810
1010
17FE
3010
3010
5010
9110
1090
1090
1010
1010
1010
1050
1020
ENDCHAR
STARTCHAR uni4ED9
ENCODING 20185
SWIDTH 1000 0
SWIDTH1 1000 0
BBX 14 16 1 -1
BITMAP
1040
1040
1040
2040
2444
6444
6444
A444
2444
2444
2444
2444
2444
27FC
2004
2000
ENDCHAR
STARTCHAR uni4EDA
ENCODING 20186
SWIDTH 1000 0
SWIDTH1 1000 0
BBX 15 16 1 -1
BITMAP
0100
0100
0280
0440
0820
1010
2108
C106
0100
2108
2108
2108
2108
2108
3FF8
0008
ENDCHAR
STARTCHAR uni4EDB
ENCODING 20187
SWIDTH 1000 0
SWIDTH1 1000 0
BBX 15 16 1 -1
BITMAP
0810
0878
0BC0
1040
1040
3040
3040
507E
97C0
1040
1040
1042
1042
1042
103E
1000
ENDCHAR
STARTCHAR uni4EDC
ENCODING 20188
SWIDTH 1000 0
SWIDTH1 1000 0
BBX 15 16 1 -1
BITMAP
0800
0800
0800
13FE
1020
3020
3020
5020
9020
1020
1020
1020
1020
17FE
1000
1000
ENDCHAR
STARTCHAR uni4EDD
ENCODING 20189
SWIDTH 1000 0
SWIDTH1 1000 0
BBX 15 15 1 0
BITMAP
0100
0100
0280
0440
0820
1010
2008
C006
1FF0
0100
0100
0100
0100
0100
7FFC
ENDCHAR
STARTCHAR uni4EDE
ENCODING 20190
SWIDTH 1000 0
SWIDTH1 1000 0
BBX 14 16 1 -1
BITMAP
0800
0800
0BFC
1044
1044
3244
3244
5244
9484
1084
1084
1104
1104
1204
1428
1810
ENDCHAR
STARTCHAR uni4EDF
ENCODING 20191
SWIDTH 1000 0
SWIDTH1 1000 0
BBX 15 16 1 -1
BITMAP
0810
0878
0BC0
1040
1040
3040
3040
57FE
9040
1040
1040
1040
1040
1040
1040
1040
ENDCHAR
STARTCHAR uni4EE0
ENCODING 20192
SWIDTH 1000 0
SWIDTH1 1000 0
BBX 15 16 1 -1
BITMAP
0800
0BFC
0840
1040
1040
3040
3040
5FFE
9040
1040
1040
1040
1040
1040
1040
1040
ENDCHAR
STARTCHAR uni4EE1
ENCODING 20193
SWIDTH 1000 0
SWIDTH1 1000 0
BBX 15 16 1 -1
BITMAP
0880
0880
0900
11FE
1200
3400
31F8
5008
9010
1060
1080
1100
1202
1202
11FE
1000
ENDCHAR
STARTCHAR uni4EE2
ENCODING 20194
SWIDTH 1000 0
SWIDTH1 1000 0
BBX 14 16 1 -1
BITMAP
0880
0880
0900
11FC
1204
3204
3404
5904
9084
1044
1044
1004
1004
1004
1028
1010
ENDCHAR
STARTCHAR uni4EE3
ENCODING 20195
SWIDTH 1000 0
SWIDTH1 1000 0
BBX 15 16 1 -1
BITMAP
0890
0888
0888
1080
10BE
37C0
3080
5040
9040
1040
1020
1022
1012
100A
1006
1002
ENDCHAR
STARTCHAR uni4EE4
ENCODING 20196
SWIDTH 1000 0
SWIDTH1 1000 0
BBX 15 16 1 -1
BITMAP
0100
0100
0280
0440
0A20
1110
2108
C006
1FF0
0010
0020
0440
0280
0100
0080
0080
ENDCHAR
STARTCHAR uni4EE5
ENCODING 20197
SWIDTH 1000 0
SWIDTH1 1000 0
BBX 13 16 3 -1
BITMAP
0040
1040
8840
8440
8440
8040
8040
8080
8080
8080
9100
A140
C220
8410
0808
1008
ENDCHAR
STARTCHAR uni4EE6
ENCODING 20198
SWIDTH 1000 0
SWIDTH1 1000 0
BBX 15 16 1 -1
BITMAP
0820
0820
0820
1020
1020
3128
3124
5124
9222
1222
1222
1422
1020
1020
10A0
1040
ENDCHAR
STARTCHAR uni4EE7
ENCODING 20199
SWIDTH 1000 0
SWIDTH1 1000 0
BBX 15 16 1 -1
BITMAP
0200
0200
0200
03F8
0200
0200
0200
FFFE
0100
0100
0100
0280
0440
0820
3018
C006
ENDCHAR
STARTCHAR uni4EE8
ENCODING 20200
SWIDTH 1000 0
SWIDTH1 1000 0
BBX 15 16 1 -1
BITMAP
0800
0800
0BFC
1000
1000
3000
3000
51F8
9000
1000
1000
1000
1000
17FE
1000
1000
ENDCHAR
STARTCHAR uni4EE9
ENCODING 20201
SWIDTH 1000 0
SWIDTH1 1000 0
BBX 15 16 1 -1
BITMAP
0840
0840
0840
1040
1040
3040
307C
5040
9040
1040
1040
1040
1040
1040
17FE
1000
ENDCHAR
STARTCHAR uni4EEA
ENCODING 20202
SWIDTH 1000 0
SWIDTH1 1000 0
BBX 15 16 1 -1
BITMAP
0880
0848
0A48
1208
1208
3110
3110
5110
90A0
10A0
1040
1040
10A0
1110
1208
1406
ENDCHAR
STARTCHAR uni4EEB
ENCODING 20203
SWIDTH 1000 0
SWIDTH1 1000 0
BBX 15 16 1 -1
BITMAP
0840
0840
0880
1080
1100
3110
3210
5420
9020
1040
1080
1108
1204
17FE
1202
1000
ENDCHAR
STARTCHAR uni4EEC
ENCODING 20204
SWIDTH 1000 0
SWIDTH1 1000 0
BBX 14 16 1 -1
BITMAP
0900
0880
08BC
1204
1204
3204
3204
5204
9204
1204
1204
1204
1204
1204
1214
1208
ENDCHAR
STARTCHAR uni4EED
ENCODING 20205
SWIDTH 1000 0
SWIDTH1 1000 0
BBX 15 16 1 -1
BITMAP
0800
0800
0BF8
1088
1088
3288
3188
5088
90C8
10A8
1098
110E
1108
1208
1450
1820
ENDCHAR
STARTCHAR uni4EEE
ENCODING 20206
SWIDTH 1000 0
SWIDTH1 1000 0
BBX 15 16 1 -1
BITMAP
0808
083C
0BC0
1200
1200
3200
33F8
5288
9288
1288
1250
1250
1220
1450
1488
1906
ENDCHAR
STARTCHAR uni4EEF
ENCODING 20207
SWIDTH 1000 0
SWIDTH1 1000 0
BBX 15 16 1 -1
BITMAP
0840
0840
0840
1148
1144
3242
3242
5448
9048
1048
1010
1010
1020
1040
1180
1600
ENDCHAR
STARTCHAR uni4EF0
ENCODING 20208
SWIDTH 1000 0
SWIDTH1 1000 0
BBX 14 16 1 -1
BITMAP
0800
0880
0B3C
1224
1224
3224
3224
5224
9224
1224
12B4
1328
1220
1020
1020
1020
ENDCHAR
STARTCHAR uni4EF1
ENCODING 20209
SWIDTH 1000 0
SWIDTH1 1000 0
BBX 15 16 1 -1
BITMAP
0840
0840
08A0
10A0
1110
3288
3446
5040
9000
13F8
1008
1010
1010
1020
1020
1040
ENDCHAR
STARTCHAR uni4EF2
ENCODING 20210
SWIDTH 1000 0
SWIDTH1 1000 0
BBX 14 16 1 -1
BITMAP
0840
0840
0840
1040
17FC
3444
3444
5444
9444
1444
17FC
1444
1040
1040
1040
1040
ENDCHAR
STARTCHAR uni4EF3
ENCODING 20211
SWIDTH 1000 0
SWIDTH1 1000 0
BBX 15 16 1 -1
BITMAP
0820
0A20
0A20
1222
1222
3224
33A8
5230
9220
1220
1220
1222
12A2
1322
121E
1000
ENDCHAR
STARTCHAR uni4EF4
ENCODING 20212
SWIDTH 1000 0
SWIDTH1 1000 0
BBX 14 16 1 -1
BITMAP
0800
09FC
0904
1104
1104
31FC
3104
5104
9104
11FC
1104
1104
1204
1204
1414
1808
ENDCHAR
STARTCHAR uni4EF5
ENCODING 20213
SWIDTH 1000 0
SWIDTH1 1000 0
BBX 15 16 1 -1
BITMAP
1100
1100
1100
23F8
2240
6240
6440
A040
2040
2FFE
2040
2040
2040
2040
2040
2040
ENDCHAR
STARTCHAR uni4EF6
ENCODING 20214
SWIDTH 1000 0
SWIDTH1 1000 0
BBX 15 16 1 -1
BITMAP
0820
0820
0920
1120
11FC
3220
3220
5420
9020
17FE
1020
1020
1020
1020
1020
1020
ENDCHAR
STARTCHAR uni4EF7
ENCODING 20215
SWIDTH 1000 0
SWIDTH1 1000 0
BBX 15 16 1 -1
BITMAP
0840
0840
08A0
10A0
1110
3208
3406
5110
9110
1110
1110
1110
1110
1210
1210
1410
ENDCHAR
STARTCHAR uni4EF8
ENCODING 20216
SWIDTH 1000 0
SWIDTH1 1000 0
BBX 15 16 1 -1
BITMAP
0810
0878
0FC0
1040
1040
3040
3040
57FE
9040
10A0
10A0
1110
1110
1208
1404
1802
ENDCHAR
STARTCHAR uni4EF9
ENCODING 20217
SWIDTH 1000 0
SWIDTH1 1000 0
BBX 15 16 1 -1
BITMAP
0840
0840
0840
17FC
1040
3040
3040
53FC
9040
1040
1040
1FFE
1040
1040
1040
1040
ENDCHAR
STARTCHAR uni4EFA
ENCODING 20218
SWIDTH 1000 0
SWIDTH1 1000 0
BBX 15 15 1 0
BITMAP
0100
0280
0440
0820
3018
C006
1FF0
1000
1000
1000
1FF0
1000
1000
1000
1FF8
ENDCHAR
STARTCHAR uni4EFB
ENCODING 20219
SWIDTH 1000 0
SWIDTH1 1000 0
BBX 15 16 1 -1
BITMAP
0810
0878
0BC0
1040
1040
3040
3040
5FFE
9040
1040
1040
1040
1040
1040
17FC
1000
ENDCHAR
STARTCHAR uni4EFC
ENCODING 20220
SWIDTH 1000 0
SWIDTH1 1000 0
BBX 15 16 1 -1
BITMAP
0800
0800
0BFE
1020
1020
3020
3020
5020
91FC
1020
1020
1020
1020
1020
17FE
1000
ENDCHAR
STARTCHAR uni4EFD
ENCODING 20221
SWIDTH 1000 0
SWIDTH1 1000 0
BBX 15 16 1 -1
BITMAP
0810
0890
0890
1088
1108
3104
3204
55FA
9088
1088
1088
1088
1108
1108
1228
1410
ENDCHAR
STARTCHAR uni4EFE
ENCODING 20222
SWIDTH 1000 0
SWIDTH1 1000 0
BBX 15 16 1 -1
BITMAP
0800
0FFE
0880
1080
1080
30F8
3108
5108
9108
1208
13F8
1010
1010
1010
17FE
1000
ENDCHAR
STARTCHAR uni4EFF
ENCODING 20223
SWIDTH 1000 0
SWIDTH1 1000 0
BBX 15 16 1 -1
BITMAP
0880
0840
0840
17FE
1100
3100
3100
51F8
9108
1108
1108
1108
1208
1208
1450
1820
ENDCHAR
STARTCHAR uni4F00
ENCODING 20224
SWIDTH 1000 0
SWIDTH1 1000 0
BBX 15 16 1 -1
BITMAP
0820
0920
0920
1110
1110
3248
3248
5444
9882
1080
1110
1108
1208
17FC
1204
1000
ENDCHAR
STARTCHAR uni4F01
ENCODING 20225
SWIDTH 1000 0
SWIDTH1 1000 0
BBX 15 15 1 0
BITMAP
0100
0100
0280
0440
0820
3118
C106
0100
1100
11F8
1100
1100
1100
1100
FFFE
ENDCHAR
STARTCHAR uni4F02
ENCODING 20226
SWIDTH 1000 0
SWIDTH1 1000 0
BBX 15 16 1 -1
BITMAP
1040
1040
1040
2FFE
2040
6040
67FC
A444
2444
2444
2444
2454
2448
2040
2040
2040
ENDCHAR
STARTCHAR uni4F03
ENCODING 20227
SWIDTH 1000 0
SWIDTH1 1000 0
BBX 15 16 1 -1
BITMAP
0800
0BF8
0808
1110
10A0
3040
37FE
5042
9044
1040
1040
1040
1040
1040
1140
1080
ENDCHAR
STARTCHAR uni4F04
ENCODING 20228
SWIDTH 1000 0
SWIDTH1 1000 0
BBX 15 16 1 -1
BITMAP
0800
0BFC
0844
1044
1044
33FC
3240
5240
9440
17FE
1042
1042
104A
1044
1040
1040
ENDCHAR
STARTCHAR uni4F05
ENCODING 20229
SWIDTH 1000 0
SWIDTH1 1000 0
BBX 15 16 1 -1
BITMAP
0840
0840
0840
17FC
1040
3248
3248
5248
9248
13F8
1048
1040
1042
1042
103E
1000
ENDCHAR
STARTCHAR uni4F06
ENCODING 20230
SWIDTH 1000 0
SWIDTH1 1000 0
BBX 14 16 1 -1
BITMAP
0900
0900
0900
11FC
12A4
34A4
30A4
5124
9124
1244
1444
1084
1104
1204
1428
1010
ENDCHAR
STARTCHAR uni4F07
ENCODING 20231
SWIDTH 1000 0
SWIDTH1 1000 0
BBX 15 16 1 -1
BITMAP
0800
09F0
0910
1110
1110
320E
3400
53F8
9108
1110
1090
10A0
1040
10A0
1318
1C06
ENDCHAR
STARTCHAR uni4F08
ENCODING 20232
SWIDTH 1000 0
SWIDTH1 1000 0
BBX 15 16 1 -1
BITMAP
0800
0880
0840
1020
1120
3100
3100
5504
9502
1502
1502
1908
1108
1108
10F8
1000
ENDCHAR
STARTCHAR uni4F09
ENCODING 20233
SWIDTH 1000 0
SWIDTH1 1000 0
BBX 15 16 1 -1
BITMAP
0880
0840
0840
13FC
1000
3000
31F0
5110
9110
1110
1110
1112
1112
1212
120E
1400
ENDCHAR
STARTCHAR uni4F0A
ENCODING 20234
SWIDTH 1000 0
SWIDTH1 1000 0
BBX 15 16 1 -1
BITMAP
0800
0BF8
0888
1088
1088
37FE
3088
5088
9088
13F8
1088
1080
1100
1100
1200
1400
ENDCHAR
STARTCHAR uni4F0B
ENCODING 20235
SWIDTH 1000 0
SWIDTH1 1000 0
BBX 15 16 1 -1
BITMAP
1000
17F8
1108
2110
2110
6120
613C
A104
2104
2288
2288
2250
2420
2450
2888
2306
ENDCHAR
STARTCHAR uni4F0C
ENCODING 20236
SWIDTH 1000 0
SWIDTH1 1000 0
BBX 15 16 1 -1
BITMAP
0800
0BFE
0A00
1200
12F8
3288
3288
5288
9288
12A8
1290
1282
1482
1482
187E
1000
ENDCHAR
STARTCHAR uni4F0D
ENCODING 20237
SWIDTH 1000 0
SWIDTH1 1000 0
BBX 15 16 1 -1
BITMAP
0800
0BFC
0840
1040
1040
3040
33F8
5088
9088
1088
1088
1108
1108
1108
17FE
1000
ENDCHAR
STARTCHAR uni4F0E
ENCODING 20238
SWIDTH 1000 0
SWIDTH1 1000 0
BBX 15 16 1 -1
BITMAP
0840
0840
0840
17FE
1040
3040
3040
57F8
9208
1208
1110
10A0
1040
10A0
1118
1606
ENDCHAR
STARTCHAR uni4F0F
ENCODING 20239
SWIDTH 1000 0
SWIDTH1 1000 0
BBX 15 16 1 -1
BITMAP
0840
0850
0848
1048
1040
37FE
3040
5040
90A0
10A0
10A0
1110
1110
1208
1404
1802
ENDCHAR
STARTCHAR uni4F10
ENCODING 20240
SWIDTH 1000 0
SWIDTH1 1000 0
BBX 15 16 1 -1
BITMAP
0890
0888
0888
1080
10BE
37C0
3080
5044
9044
1048
1030
1022
1052
118A
1606
1002
ENDCHAR
STARTCHAR uni4F11
ENCODING 20241
SWIDTH 1000 0
SWIDTH1 1000 0
BBX 15 16 1 -1
BITMAP
0840
0840
0840
1040
17FE
3040
30E0
50E0
9150
1150
1248
1444
1842
1040
1040
1040
ENDCHAR
STARTCHAR uni4F12
ENCODING 20242
SWIDTH 1000 0
SWIDTH1 1000 0
BBX 15 16 1 -1
BITMAP
0808
081C
09E0
1100
1100
3100
31FE
5110
9110
1110
1110
1110
1110
1210
1210
1410
ENDCHAR
STARTCHAR uni4F13
ENCODING 20243
SWIDTH 1000 0
SWIDTH1 1000 0
BBX 15 16 1 -1
BITMAP
0800
0800
0BFE
1020
1020
3040
3040
50D0
9148
1244
1444
1040
1040
1040
1040
1040
ENDCHAR
STARTCHAR uni4F14
ENCODING 20244
SWIDTH 1000 0
SWIDTH1 1000 0
BBX 15 16 1 -1
BITMAP
0800
0800
0BFE
1202
1404
3000
31F0
5110
9110
1110
1110
1112
1212
1212
140E
1800
ENDCHAR
STARTCHAR uni4F15
ENCODING 20245
SWIDTH 1000 0
SWIDTH1 1000 0
BBX 15 16 1 -1
BITMAP
0840
0840
0840
13FC
1040
3040
3040
57FE
9040
10A0
10A0
1110
1110
1208
1404
1802
ENDCHAR
STARTCHAR uni4F16
ENCODING 20246
SWIDTH 1000 0
SWIDTH1 1000 0
BBX 15 16 1 -1
BITMAP
0880
0880
0880
1080
17FE
3080
3100
51FC
9144
1244
1248
1450
1420
1850
1088
1306
ENDCHAR
STARTCHAR uni4F17
ENCODING 20247
SWIDTH 1000 0
SWIDTH1 1000 0
BBX 15 16 1 -1
BITMAP
0100
0100
0280
0440
0820
1010
2828
C826
0820
0820
0820
1450
1250
2288
4104
8202
ENDCHAR
STARTCHAR uni4F18
ENCODING 20248
SWIDTH 1000 0
SWIDTH1 1000 0
BBX 15 16 1 -1
BITMAP
0890
0888
0888
1080
17FE
30A0
30A0
50A0
90A0
10A0
1120
1122
1122
1222
121E
1400
ENDCHAR
STARTCHAR uni4F19
ENCODING 20249
SWIDTH 1000 0
SWIDTH1 1000 0
BBX 15 16 1 -1
BITMAP
0840
0840
0840
1040
1244
3244
3248
5450
9040
10A0
10A0
1110
1110
1208
1404
1802
ENDCHAR
STARTCHAR uni4F1A
ENCODING 20250
SWIDTH 1000 0
SWIDTH1 1000 0
BBX 15 16 1 -1
BITMAP
0100
0100
0280
0440
0820
3018
CFE6
0000
0000
7FFC
0200
0400
0820
1010
3FF8
1008
ENDCHAR
STARTCHAR uni4F1B
ENCODING 20251
SWIDTH 1000 0
SWIDTH1 1000 0
BBX 15 16 1 -1
BITMAP
0800
0BFC
0A00
1208
1288
3250
3250
5220
9220
1250
1250
1288
1308
1200
13FE
1000
ENDCHAR
STARTCHAR uni4F1C
ENCODING 20252
SWIDTH 1000 0
SWIDTH1 1000 0
BBX 15 16 1 -1
BITMAP
0880
0880
0BF0
1090
1090
3112
3112
524E
9440
1040
1FFE
1040
1040
1040
1040
1040
ENDCHAR
STARTCHAR uni4F1D
ENCODING 20253
SWIDTH 1000 0
SWIDTH1 1000 0
BBX 15 16 1 -1
BITMAP
0800
0800
0BFC
1000
1000
3000
37FE
5040
9040
1080
1080
1108
1204
17FE
1202
1000
ENDCHAR
STARTCHAR uni4F1E
ENCODING 20254
SWIDTH 1000 0
SWIDTH1 1000 0
BBX 15 16 1 -1
BITMAP
0100
0100
0280
0440
0820
3018
C106
1110
0910
0920
0100
FFFE
0100
0100
0100
0100
ENDCHAR
STARTCHAR uni4F1F
ENCODING 20255
SWIDTH 1000 0
SWIDTH1 1000 0
BBX 15 16 1 -1
BITMAP
0840
0840
0840
17FE
1040
3040
33FC
5040
9040
17FE
1042
1042
104A
1044
1040
1040
ENDCHAR
STARTCHAR uni4F20
ENCODING 20256
SWIDTH 1000 0
SWIDTH1 1000 0
BBX 15 16 1 -1
BITMAP
0840
0840
0840
13F8
1040
3080
37FE
5080
9100
13F8
1008
1110
10A0
1040
1020
1020
ENDCHAR
STARTCHAR uni4F21
ENCODING 20257
SWIDTH 1000 0
SWIDTH1 1000 0
BBX 15 16 1 -1
BITMAP
0840
0840
0840
17FE
1080
30A0
3120
53FC
9020
1020
1020
17FE
1020
1020
1020
1020
ENDCHAR
STARTCHAR uni4F22
ENCODING 20258
SWIDTH 1000 0
SWIDTH1 1000 0
BBX 15 16 1 -1
BITMAP
0800
0BFC
0810
1110
1110
3110
3210
53FE
9030
1050
1090
1110
1210
1410
1050
1020
ENDCHAR
STARTCHAR uni4F23
ENCODING 20259
SWIDTH 1000 0
SWIDTH1 1000 0
BBX 15 16 1 -1
BITMAP
0800
0BF8
0A08
1208
1248
3248
3248
5248
9248
12A8
12A8
1120
1120
1222
1422
181E
ENDCHAR
STARTCHAR uni4F24
ENCODING 20260
SWIDTH 1000 0
SWIDTH1 1000 0
BBX 15 16 1 -1
BITMAP
0880
0880
0900
11FE
1200
3440
3040
53FC
9044
1044
1084
1084
1104
1104
1228
1410
ENDCHAR
STARTCHAR uni4F25
ENCODING 20261
SWIDTH 1000 0
SWIDTH1 1000 0
BBX 15 16 1 -1
BITMAP
0900
0908
0908
1110
1120
3140
3100
57FE
9140
1120
1120
1110
1108
1144
1182
1100
ENDCHAR
STARTCHAR uni4F26
ENCODING 20262
SWIDTH 1000 0
SWIDTH1 1000 0
BBX 15 16 1 -1
BITMAP
0840
0840
08A0
10A0
1110
3208
3406
5110
9120
1140
1180
1100
1104
1104
10FC
1000
ENDCHAR
STARTCHAR uni4F27
ENCODING 20263
SWIDTH 1000 0
SWIDTH1 1000 0
BBX 15 16 1 -1
BITMAP
0840
0840
08A0
1110
1208
3404
3BF2
5210
9210
1210
1250
1220
1204
1204
11FC
1000
ENDCHAR
STARTCHAR uni4F28
ENCODING 20264
SWIDTH 1000 0
SWIDTH1 1000 0
BBX 14 16 1 -1
BITMAP
0900
0900
09FC
1204
1204
3504
3884
5084
9014
1024
1044
1384
1104
1004
1028
1010
ENDCHAR
STARTCHAR uni4F29
ENCODING 20265
SWIDTH 1000 0
SWIDTH1 1000 0
BBX 15 16 1 -1
BITMAP
0880
0840
0840
17FC
1110
3110
3110
5110
9110
10A0
10A0
1040
10A0
1110
1208
1C06
ENDCHAR
STARTCHAR uni4F2A
ENCODING 20266
SWIDTH 1000 0
SWIDTH1 1000 0
BBX 14 16 1 -1
BITMAP
0840
0A40
0940
1140
1040
37FC
3044
5044
9084
10A4
1094
1114
1104
1204
1428
1810
ENDCHAR
STARTCHAR uni4F2B
ENCODING 20267
SWIDTH 1000 0
SWIDTH1 1000 0
BBX 15 16 1 -1
BITMAP
0840
0820
0820
1000
13FE
3202
3404
5000
9000
1000
1000
1000
1000
13FE
1000
1000
ENDCHAR
STARTCHAR uni4F2C
ENCODING 20268
SWIDTH 1000 0
SWIDTH1 1000 0
BBX 15 16 1 -1
BITMAP
0800
09FC
0904
1104
1104
3104
31FC
5124
9120
1120
1110
1110
1208
1208
1404
1802
ENDCHAR
STARTCHAR uni4F2D
ENCODING 20269
SWIDTH 1000 0
SWIDTH1 1000 0
BBX 15 16 1 -1
BITMAP
0880
0840
0840
17FE
1040
3080
3108
5210
97E0
1040
1080
1108
1204
17FE
1202
1000
ENDCHAR
STARTCHAR uni4F2E
ENCODING 20270
SWIDTH 1000 0
SWIDTH1 1000 0
BBX 15 16 1 -1
BITMAP
1200
1200
127C
2224
2FA4
64A4
64A4
A4A8
24A8
2928
2510
2210
2528
2948
3084
2102
ENDCHAR
STARTCHAR uni4F2F
ENCODING 20271
SWIDTH 1000 0
SWIDTH1 1000 0
BBX 14 16 1 -1
BITMAP
0840
0840
0880
13FC
1204
3204
3204
5204
93FC
1204
1204
1204
1204
1204
13FC
1204
ENDCHAR
STARTCHAR uni4F30
ENCODING 20272
SWIDTH 1000 0
SWIDTH1 1000 0
BBX 15 16 1 -1
BITMAP
0840
0840
0840
1040
17FE
3040
3040
5040
93F8
1208
1208
1208
1208
1208
13F8
1208
ENDCHAR
STARTCHAR uni4F31
ENCODING 20273
SWIDTH 1000 0
SWIDTH1 1000 0
BBX 15 16 1 -1
BITMAP
0840
0840
08A0
10A0
1110
3208
3446
5040
9150
1148
1248
1244
1444
1040
1140
1080
ENDCHAR
STARTCHAR uni4F32
ENCODING 20274
SWIDTH 1000 0
SWIDTH1 1000 0
BBX 15 16 1 -1
BITMAP
0800
0BFC
0A04
1204
1204
33FC
3200
5240
9244
1248
1270
1240
1442
1442
183E
1000
ENDCHAR
STARTCHAR uni4F33
ENCODING 20275
SWIDTH 1000 0
SWIDTH1 1000 0
BBX 15 16 1 -1
BITMAP
0848
0A48
0A48
1248
1248
37FE
3248
5248
9248
1248
1278
1200
1200
1200
13FE
1000
ENDCHAR
STARTCHAR uni4F34
ENCODING 20276
SWIDTH 1000 0
SWIDTH1 1000 0
BBX 15 16 1 -1
BITMAP
0840
0A44
0948
1150
1040
37FC
3040
5040
9040
1FFE
1040
1040
1040
1040
1040
1040
ENDCHAR
STARTCHAR uni4F35
ENCODING 20277
SWIDTH 1000 0
SWIDTH1 1000 0
BBX 14 16 1 -1
BITMAP
1000
1000
17FC
24A4
24A4
64A4
64A4
A4A4
24A4
2524
251C
2604
2404
2404
27FC
2404
ENDCHAR
STARTCHAR uni4F36
ENCODING 20278
SWIDTH 1000 0
SWIDTH1 1000 0
BBX 15 16 1 -1
BITMAP
0840
0840
08A0
10A0
1110
3248
3426
5020
93F8
1008
1010
1110
10A0
1040
1020
1020
ENDCHAR
STARTCHAR uni4F37
ENCODING 20279
SWIDTH 1000 0
SWIDTH1 1000 0
BBX 14 16 1 -1
BITMAP
1040
1040
1040
2040
27FC
6444
6444
A444
2444
27FC
2444
2444
2444
2444
27FC
2404
ENDCHAR
STARTCHAR uni4F38
ENCODING 20280
SWIDTH 1000 0
SWIDTH1 1000 0
BBX 14 16 1 -1
BITMAP
0840
0840
0840
17FC
1444
3444
3444
57FC
9444
1444
1444
17FC
1444
1040
1040
1040
ENDCHAR
STARTCHAR uni4F39
ENCODING 20281
SWIDTH 1000 0
SWIDTH1 1000 0
BBX 15 16 1 -1
BITMAP
0800
09F8
0908
1108
1108
31F8
3108
5108
9108
11F8
1108
1108
1108
1108
17FE
1000
ENDCHAR
STARTCHAR uni4F3A
ENCODING 20282
SWIDTH 1000 0
SWIDTH1 1000 0
BBX 14 16 1 -1
BITMAP
0800
0BFC
0804
1004
17F4
3004
3004
53E4
9224
1224
1224
13E4
1004
1004
1014
1008
ENDCHAR
STARTCHAR uni4F3B
ENCODING 20283
SWIDTH 1000 0
SWIDTH1 1000 0
BBX 15 16 1 -1
BITMAP
0800
0BF8
0840
1040
1248
3148
3150
5040
97FE
1040
1040
1040
1040
1040
1040
1040
ENDCHAR
STARTCHAR uni4F3C
ENCODING 20284
SWIDTH 1000 0
SWIDTH1 1000 0
BBX 15 16 1 -1
BITMAP
1008
1108
1088
2448
2448
6408
6408
A408
2410
2410
2410
2528
2624
2444
2082
2102
ENDCHAR
STARTCHAR uni4F3D
ENCODING 20285
SWIDTH 1000 0
SWIDTH1 1000 0
BBX 14 16 1 -1
BITMAP
1400
1400
1400
243C
2FA4
64A4
64A4
A4A4
24A4
24A4
24A4
24A4
28A4
28BC
32A4
2100
ENDCHAR
STARTCHAR uni4F3E
ENCODING 20286
SWIDTH 1000 0
SWIDTH1 1000 0
BBX 15 16 1 -1
BITMAP
0800
0BFC
0820
1020
1040
3040
30D0
5148
9244
1444
1040
1040
1040
1000
17FE
1000
ENDCHAR
STARTCHAR uni4F3F
ENCODING 20287
SWIDTH 1000 0
SWIDTH1 1000 0
BBX 15 16 1 -1
BITMAP
0800
0800
0BFC
1204
1204
3204
3204
5204
93FC
1204
1000
1090
1088
1104
1202
1402
ENDCHAR
STARTCHAR uni4F40
ENCODING 20288
SWIDTH 1000 0
SWIDTH1 1000 0
BBX 14 16 1 -1
BITMAP
0800
0BF8
0A08
1208
1208
3208
33F8
5200
9200
13FC
1204
1204
1204
1204
13FC
1204
ENDCHAR
STARTCHAR uni4F41
ENCODING 20289
SWIDTH 1000 0
SWIDTH1 1000 0
BBX 14 16 1 -1
BITMAP
0840
0840
0880
1080
1110
3208
37FC
5004
9000
13F8
1208
1208
1208
1208
13F8
1208
ENDCHAR
STARTCHAR uni4F42
ENCODING 20290
SWIDTH 1000 0
SWIDTH1 1000 0
BBX 15 16 1 -1
BITMAP
0800
0800
0BFE
1020
1020
3020
3120
5120
913C
1120
1120
1120
1120
1120
17FE
1000
ENDCHAR
STARTCHAR uni4F43
ENCODING 20291
SWIDTH 1000 0
SWIDTH1 1000 0
BBX 14 16 1 -1
BITMAP
1000
1000
17FC
2444
2444
6444
6444
A7FC
2444
2444
2444
2444
2444
27FC
2404
2000
ENDCHAR
STARTCHAR uni4F44
ENCODING 20292
SWIDTH 1000 0
SWIDTH1 1000 0
BBX 15 16 1 -1
BITMAP
0908
0908
0908
1108
17FE
3108
3108
5108
9108
11F8
1108
1108
1108
1108
11F8
1108
ENDCHAR
STARTCHAR uni4F45
ENCODING 20293
SWIDTH 1000 0
SWIDTH1 1000 0
BBX 15 16 1 -1
BITMAP
0840
0840
0840
13FC
1040
3040
3040
57FE
90E0
1150
1150
1248
1444
1842
1040
1040
ENDCHAR
STARTCHAR uni4F46
ENCODING 20294
SWIDTH 1000 0
SWIDTH1 1000 0
BBX 15 16 1 -1
BITMAP
0800
0800
0BFC
1204
1204
3204
33FC
5204
9204
1204
13FC
1204
1000
1000
17FE
1000
ENDCHAR
STARTCHAR uni4F47
ENCODING 20295
SWIDTH 1000 0
SWIDTH1 1000 0
BBX 15 16 1 -1
BITMAP
0840
0820
0820
13FE
1202
3404
3000
5000
93FE
1020
1020
1020
1020
1020
10A0
1040
ENDCHAR
STARTCHAR uni4F48
ENCODING 20296
SWIDTH 1000 0
SWIDTH1 1000 0
BBX 15 16 1 -1
BITMAP
0840
0840
0840
17FE
1080
30A0
3120
51FC
9324
1524
1124
1124
1134
1128
1020
1020
ENDCHAR
STARTCHAR uni4F49
ENCODING 20297
SWIDTH 1000 0
SWIDTH1 1000 0
BBX 15 16 1 -1
BITMAP
0840
0840
0840
1040
13FC
3040
3040
5040
97FE
1040
1080
1080
1110
1208
17FC
1204
ENDCHAR
STARTCHAR uni4F4A
ENCODING 20298
SWIDTH 1000 0
SWIDTH1 1000 0
BBX 15 16 1 -1
BITMAP
0820
0820
0820
13FE
1222
3224
3220
53FC
9284
1288
1248
1250
1220
1450
1488
1906
ENDCHAR
STARTCHAR uni4F4B
ENCODING 20299
SWIDTH 1000 0
SWIDTH1 1000 0
BBX 14 16 1 -1
BITMAP
0800
0BFC
0884
1084
1084
3104
3114
5208
9400
11FC
1104
1104
1104
1104
11FC
1104
ENDCHAR
STARTCHAR uni4F4C
ENCODING 20300
SWIDTH 1000 0
SWIDTH1 1000 0
BBX 15 16 1 -1
BITMAP
1120
1120
1120
2522
2522
65E4
6528
A530
2520
2520
2520
2522
25E2
3E22
281E
2000
ENDCHAR
STARTCHAR uni4F4D
ENCODING 20301
SWIDTH 1000 0
SWIDTH1 1000 0
BBX 15 16 1 -1
BITMAP
0880
0840
0840
1000
17FC
3000
3008
5208
9208
1110
1110
1110
1120
1020
1FFE
1000
ENDCHAR
STARTCHAR uni4F4E
ENCODING 20302
SWIDTH 1000 0
SWIDTH1 1000 0
BBX 15 16 1 -1
BITMAP
0808
083C
0BE0
1220
1220
3220
3220
53FE
9220
1210
1210
1212
120A
128A
1326
1212
ENDCHAR
STARTCHAR uni4F4F
ENCODING 20303
SWIDTH 1000 0
SWIDTH1 1000 0
BBX 15 16 1 -1
BITMAP
0880
0840
0800
17FC
1040
3040
3040
5040
97FC
1040
1040
1040
1040
1040
1FFE
1000
ENDCHAR
STARTCHAR uni4F50
ENCODING 20304
SWIDTH 1000 0
SWIDTH1 1000 0
BBX 15 16 1 -1
BITMAP
0880
0880
0880
1080
17FE
3080
3100
5100
91FC
1220
1220
1420
1420
1820
13FE
1000
ENDCHAR
STARTCHAR uni4F51
ENCODING 20305
SWIDTH 1000 0
SWIDTH1 1000 0
BBX 15 16 1 -1
BITMAP
0840
0840
0840
1040
17FE
3080
3080
5100
93FC
1504
1904
1104
1104
1104
11FC
1104
ENDCHAR
STARTCHAR uni4F52
ENCODING 20306
SWIDTH 1000 0
SWIDTH1 1000 0
BBX 15 16 1 -1
BITMAP
0840
0840
0840
13F8
1248
3248
3248
5248
9248
17FE
1040
10A0
10A0
1110
1208
1406
ENDCHAR
STARTCHAR uni4F53
ENCODING 20307
SWIDTH 1000 0
SWIDTH1 1000 0
BBX 15 16 1 -1
BITMAP
0840
0840
0840
1040
17FC
3040
30E0
50E0
9150
1150
1248
15F4
1842
1040
1040
1040
ENDCHAR
STARTCHAR uni4F54
ENCODING 20308
SWIDTH 1000 0
SWIDTH1 1000 0
BBX 15 16 1 -1
BITMAP
0840
0840
0840
107E
1040
3040
3040
5040
93FC
1204
1204
1204
1204
1204
13FC
1204
ENDCHAR
STARTCHAR uni4F55
ENCODING 20309
SWIDTH 1000 0
SWIDTH1 1000 0
BBX 15 16 1 -1
BITMAP
0800
0800
0FFE
1008
1008
33C8
3248
5248
9248
1248
13C8
1248
1008
1008
1028
1010
ENDCHAR
STARTCHAR uni4F56
ENCODING 20310
SWIDTH 1000 0
SWIDTH1 1000 0
BBX 15 16 1 -1
BITMAP
1000
1080
1040
2028
2128
6108
6110
A514
2522
2522
2542
2988
2108
2308
24F8
2800
ENDCHAR
STARTCHAR uni4F57
ENCODING 20311
SWIDTH 1000 0
SWIDTH1 1000 0
BBX 15 16 1 -1
BITMAP
0840
0820
0820
13FE
1202
3404
3100
5108
9110
1120
11C0
1102
1102
1102
10FE
1000
ENDCHAR
STARTCHAR uni4F58
ENCODING 20312
SWIDTH 1000 0
SWIDTH1 1000 0
BBX 15 16 1 -1
BITMAP
0100
0100
0280
0440
0820
3018
CFE6
0000
0000
7FFC
0100
1110
1108
2104
4504
0200
ENDCHAR
STARTCHAR uni4F59
ENCODING 20313
SWIDTH 1000 0
SWIDTH1 1000 0
BBX 15 16 1 -1
BITMAP
0100
0100
0280
0440
0820
1010
2FE8
C106
0100
3FF8
0100
1110
1108
2104
4504
0200
ENDCHAR
STARTCHAR uni4F5A
ENCODING 20314
SWIDTH 1000 0
SWIDTH1 1000 0
BBX 15 16 1 -1
BITMAP
1040
1040
1240
2240
23FC
6240
6440
A040
2FFE
2040
20A0
20A0
2110
2208
2404
2802
ENDCHAR
STARTCHAR uni4F5B
ENCODING 20315
SWIDTH 1000 0
SWIDTH1 1000 0
BBX 15 16 1 -1
BITMAP
1120
1120
1120
2FFC
2124
6124
67FC
A520
2920
2FFE
2122
2122
222A
2224
2420
2820
ENDCHAR
STARTCHAR uni4F5C
ENCODING 20316
SWIDTH 1000 0
SWIDTH1 1000 0
BBX 15 16 1 -1
BITMAP
0900
0900
0900
11FE
1280
3280
3480
50F8
9080
1080
1080
10FC
1080
1080
1080
1080
ENDCHAR
STARTCHAR uni4F5D
ENCODING 20317
SWIDTH 1000 0
SWIDTH1 1000 0
BBX 14 16 1 -1
BITMAP
1100
1100
1200
23FC
2404
6804
63E4
A224
2224
2224
2224
23E4
2224
2004
2028
2010
ENDCHAR
STARTCHAR uni4F5E
ENCODING 20318
SWIDTH 1000 0
SWIDTH1 1000 0
BBX 15 16 1 -1
BITMAP
1000
13F8
1000
2000
2FFE
6080
6080
AFFE
2108
2210
2610
21A0
2060
2090
2308
2C04
ENDCHAR
STARTCHAR uni4F5F
ENCODING 20319
SWIDTH 1000 0
SWIDTH1 1000 0
BBX 15 16 1 -1
BITMAP
0880
0880
08F8
1108
1310
34A0
3040
50A0
9318
1C06
10C0
1020
1010
1180
1060
1010
ENDCHAR
STARTCHAR uni4F60
ENCODING 20320
SWIDTH 1000 0
SWIDTH1 1000 0
BBX 15 16 1 -1
BITMAP
0880
0880
0880
11FE
1102
3204
3420
5020
9128
1124
1224
1222
1422
1020
10A0
1040
ENDCHAR
STARTCHAR uni4F61
ENCODING 20321
SWIDTH 1000 0
SWIDTH1 1000 0
BBX 15 16 1 -1
BITMAP
1040
1040
10A0
20A0
2110
6208
6444
A842
2040
2444
2444
2444
2444
2444
27FC
2004
ENDCHAR
STARTCHAR uni4F62
ENCODING 20322
SWIDTH 1000 0
SWIDTH1 1000 0
BBX 15 16 1 -1
BITMAP
0800
0BFE
0A00
1200
1200
33FC
3204
5204
9204
1204
13FC
1200
1200
1200
13FE
1000
ENDCHAR
STARTCHAR uni4F63
ENCODING 20323
SWIDTH 1000 0
SWIDTH1 1000 0
BBX 14 16 1 -1
BITMAP
1000
17FC
1444
2444
2444
67FC
6444
A444
2444
27FC
2444
2444
2444
2844
2854
3008
ENDCHAR
STARTCHAR uni4F64
ENCODING 20324
SWIDTH 1000 0
SWIDTH1 1000 0
BBX 15 16 1 -1
BITMAP
0800
0800
0FFC
1100
1100
31F0
3110
5110
9190
1250
1250
1210
1212
1292
1312
120E
ENDCHAR
STARTCHAR uni4F65
ENCODING 20325
SWIDTH 1000 0
SWIDTH1 1000 0
BBX 15 15 1 0
BITMAP
0100
0100
0280
0440
0820
1010
2FE8
C006
0210
1110
0910
0920
0820
0040
7FFC
ENDCHAR
STARTCHAR uni4F66
ENCODING 20326
SWIDTH 1000 0
SWIDTH1 1000 0
BBX 15 16 1 -1
BITMAP
0800
0800
0FFE
1040
1040
3080
3080
51F8
9308
1508
1908
1108
1108
1108
11F8
1108
ENDCHAR
STARTCHAR uni4F67
ENCODING 20327
SWIDTH 1000 0
SWIDTH1 1000 0
BBX 15 16 1 -1
BITMAP
0840
0840
0840
107C
1040
3040
3040
57FE
9040
1040
1050
1048
1044
1040
1040
1040
ENDCHAR
STARTCHAR uni4F68
ENCODING 20328
SWIDTH 1000 0
SWIDTH1 1000 0
BBX 15 16 1 -1
BITMAP
0880
0880
09FC
1104
1204
35F4
3114
5114
9114
11F4
1104
1128
1112
1102
10FE
1000
ENDCHAR
STARTCHAR uni4F69
ENCODING 20329
SWIDTH 1000 0
SWIDTH1 1000 0
BBX 15 16 1 -1
BITMAP
1000
17FC
1404
2404
25F4
6444
6444
A5F4
2554
2554
2554
2554
2574
2446
2446
2842
ENDCHAR
STARTCHAR uni4F6A
ENCODING 20330
SWIDTH 1000 0
SWIDTH1 1000 0
BBX 14 16 1 -1
BITMAP
0800
0800
0BFC
1204
1204
32F4
3294
5294
9294
1294
12F4
1204
1204
13FC
1204
1000
ENDCHAR
STARTCHAR uni4F6B
ENCODING 20331
SWIDTH 1000 0
SWIDTH1 1000 0
BBX 15 16 1 -1
BITMAP
0880
0880
09F8
1208
1510
30A0
3040
50A0
9318
1C06
13F8
1208
1208
1208
13F8
1208
ENDCHAR
STARTCHAR uni4F6C
ENCODING 20332
SWIDTH 1000 0
SWIDTH1 1000 0
BBX 15 16 1 -1
BITMAP
0840
0840
0844
13F4
1048
3050
37FE
5040
9080
1184
1298
14E0
1882
1082
107E
1000
ENDCHAR
STARTCHAR uni4F6D
ENCODING 20333
SWIDTH 1000 0
SWIDTH1 1000 0
BBX 15 16 1 -1
BITMAP
0900
0900
09F8
1310
14A0
3040
31B0
564E
9040
13FC
1040
1440
17FE
1040
1040
1040
ENDCHAR
STARTCHAR uni4F6E
ENCODING 20334
SWIDTH 1000 0
SWIDTH1 1000 0
BBX 15 16 1 -1
BITMAP
0840
0840
08A0
1110
1208
3406
33F8
5000
9000
13F8
1208
1208
1208
1208
13F8
1208
ENDCHAR
STARTCHAR uni4F6F
ENCODING 20335
SWIDTH 1000 0
SWIDTH1 1000 0
BBX 15 16 1 -1
BITMAP
0A08
0908
0910
1000
17FC
3040
3040
53F8
9040
1040
17FE
1040
1040
1040
1040
1040
ENDCHAR
STARTCHAR uni4F70
ENCODING 20336
SWIDTH 1000 0
SWIDTH1 1000 0
BBX 15 16 1 -1
BITMAP
0800
0BFE
0820
1020
1040
31FC
3104
5104
9104
11FC
1104
1104
1104
1104
11FC
1104
ENDCHAR
STARTCHAR uni4F71
ENCODING 20337
SWIDTH 1000 0
SWIDTH1 1000 0
BBX 15 15 1 0
BITMAP
0100
0280
0440
0820
3018
DFF6
0000
0000
7FFC
0100
1100
11F8
1100
1100
FFFE
ENDCHAR
STARTCHAR uni4F72
ENCODING 20338
SWIDTH 1000 0
SWIDTH1 1000 0
BBX 14 16 1 -1
BITMAP
0880
0880
08FC
1104
1288
3450
3020
5040
91FC
1304
1D04
1104
1104
1104
11FC
1104
ENDCHAR
STARTCHAR uni4F73
ENCODING 20339
SWIDTH 1000 0
SWIDTH1 1000 0
BBX 15 16 1 -1
BITMAP
0840
0840
0BFC
1040
1040
3040
3FFE
5000
9040
1040
13FC
1040
1040
1040
1FFE
1000
ENDCHAR
STARTCHAR uni4F74
ENCODING 20340
SWIDTH 1000 0
SWIDTH1 1000 0
BBX 15 16 1 -1
BITMAP
0800
0BFE
0908
1108
1108
31F8
3108
5108
91F8
1108
1108
111E
17E8
1008
1008
1008
ENDCHAR
STARTCHAR uni4F75
ENCODING 20341
SWIDTH 1000 0
SWIDTH1 1000 0
BBX 15 16 1 -1
BITMAP
0904
0884
0888
1000
13FE
3088
3088
5088
9088
17FE
1088
1088
1108
1108
1208
1408
ENDCHAR
STARTCHAR uni4F76
ENCODING 20342
SWIDTH 1000 0
SWIDTH1 1000 0
BBX 15 16 1 -1
BITMAP
0840
0840
0840
1FFE
1040
3040
37FC
5000
9000
13F8
1208
1208
1208
1208
13F8
1208
ENDCHAR
STARTCHAR uni4F77
ENCODING 20343
SWIDTH 1000 0
SWIDTH1 1000 0
BBX 15 16 1 -1
BITMAP
0800
0BF8
0A08
1208
13F8
3208
3208
53F8
9244
1248
1230
1220
1210
1288
1306
1200
ENDCHAR
STARTCHAR uni4F78
ENCODING 20344
SWIDTH 1000 0
SWIDTH1 1000 0
BBX 15 16 1 -1
BITMAP
0810
0878
0BC0
1040
1040
37FE
3040
5040
9040
13F8
1208
1208
1208
1208
13F8
1208
ENDCHAR
STARTCHAR uni4F79
ENCODING 20345
SWIDTH 1000 0
SWIDTH1 1000 0
BBX 15 16 1 -1
BITMAP
1100
1100
13F8
2208
2410
6BFE
6200
A2F8
2288
2288
22A8
2290
2282
2482
247E
2800
ENDCHAR
STARTCHAR uni4F7A
ENCODING 20346
SWIDTH 1000 0
SWIDTH1 1000 0
BBX 15 16 1 -1
BITMAP
0840
0840
08A0
1110
1208
3406
33F8
5040
9040
1040
13F8
1040
1040
1040
17FE
1000
ENDCHAR
STARTCHAR uni4F7B
ENCODING 20347
SWIDTH 1000 0
SWIDTH1 1000 0
BBX 15 16 1 -1
BITMAP
0890
0890
0890
1492
1294
3098
3090
5198
9294
1492
1090
1090
1112
1112
1212
140E
ENDCHAR
STARTCHAR uni4F7C
ENCODING 20348
SWIDTH 1000 0
SWIDTH1 1000 0
BBX 15 16 1 -1
BITMAP
1080
1040
1040
27FC
2000
6110
6208
A404
2110
2110
20A0
2040
20A0
2110
2208
2C06
ENDCHAR
STARTCHAR uni4F7D
ENCODING 20349
SWIDTH 1000 0
SWIDTH1 1000 0
BBX 15 16 1 -1
BITMAP
1020
1020
1420
227E
2242
6084
6010
A110
2110
2E10
2228
2228
2248
2244
2084
2102
ENDCHAR
STARTCHAR uni4F7E
ENCODING 20350
SWIDTH 1000 0
SWIDTH1 1000 0
BBX 15 16 1 -1
BITMAP
0810
0910
0908
1208
1404
3BFA
3208
5208
93F8
1208
1208
13F8
1208
1208
1228
1210
ENDCHAR
STARTCHAR uni4F7F
ENCODING 20351
SWIDTH 1000 0
SWIDTH1 1000 0
BBX 15 16 1 -1
BITMAP
1040
1040
1FFE
2040
2040
67FC
6444
A444
27FC
2040
2240
2140
2080
2140
2230
2C0E
ENDCHAR
STARTCHAR uni4F80
ENCODING 20352
SWIDTH 1000 0
SWIDTH1 1000 0
BBX 14 16 1 -1
BITMAP
1004
1FC4
1484
2494
2494
6494
6494
AFD4
2494
2494
2494
2494
2484
2884
2894
3088
ENDCHAR
STARTCHAR uni4F81
ENCODING 20353
SWIDTH 1000 0
SWIDTH1 1000 0
BBX 15 16 1 -1
BITMAP
1040
1240
1240
23FC
2440
6840
6040
A7FE
2120
2120
2120
2120
2222
2222
241E
2800
ENDCHAR
STARTCHAR uni4F82
ENCODING 20354
SWIDTH 1000 0
SWIDTH1 1000 0
BBX 15 16 1 -1
BITMAP
0840
0820
0BFE
1200
1200
320C
32F0
5220
9220
123E
13E0
1220
1422
1422
181E
1000
ENDCHAR
STARTCHAR uni4F83
ENCODING 20355
SWIDTH 1000 0
SWIDTH1 1000 0
BBX 15 16 1 -1
BITMAP
1000
17FC
1404
2404
2404
67FC
6000
A248
2248
2248
2248
2248
224A
244A
244A
2806
ENDCHAR
STARTCHAR uni4F84
ENCODING 20356
SWIDTH 1000 0
SWIDTH1 1000 0
BBX 15 16 1 -1
BITMAP
1000
17FE
1040
2080
2110
6208
67FC
A044
2040
2040
27FC
2040
2040
2040
2FFE
2000
ENDCHAR
STARTCHAR uni4F85
ENCODING 20357
SWIDTH 1000 0
SWIDTH1 1000 0
BBX 15 16 1 -1
BITMAP
0840
0820
0820
17FE
1040
3084
3108
53F0
9022
1044
1188
1610
1020
1050
1188
1604
ENDCHAR
STARTCHAR uni4F86
ENCODING 20358
SWIDTH 1000 0
SWIDTH1 1000 0
BBX 15 16 1 -1
BITMAP
0100
0100
0100
7FFC
0100
1110
1110
2928
4544
0380
0540
0920
3118
C106
0100
0100
ENDCHAR
STARTCHAR uni4F87
ENCODING 20359
SWIDTH 1000 0
SWIDTH1 1000 0
BBX 15 16 1 -1
BITMAP
1040
1040
17FE
2040
27FC
6044
63FC
A240
2440
27FE
2042
20AA
20A4
2110
2208
2C06
ENDCHAR
STARTCHAR uni4F88
ENCODING 20360
SWIDTH 1000 0
SWIDTH1 1000 0
BBX 14 16 1 -1
BITMAP
1080
1080
11F8
2210
2520
60C0
6090
A320
2C7C
2084
2108
2690
2060
2040
2180
2E00
ENDCHAR
STARTCHAR uni4F89
ENCODING 20361
SWIDTH 1000 0
SWIDTH1 1000 0
BBX 15 16 1 -1
BITMAP
1040
1040
17FC
20A0
2110
6208
6DF6
A000
27FC
2080
2100
23F8
2008
2008
2050
2020
ENDCHAR
ENDFONT
